<?xml version="1.0" standalone="no"?>
<!DOCTYPE svg PUBLIC "-//W3C//DTD SVG 20010904//EN"
 "http://www.w3.org/TR/2001/REC-SVG-20010904/DTD/svg10.dtd">
<svg version="1.0" xmlns="http://www.w3.org/2000/svg"
 width="967.000000pt" height="480.000000pt" viewBox="0 0 967.000000 480.000000"
 preserveAspectRatio="xMidYMid meet">

<g transform="translate(0.000000,480.000000) scale(0.100000,-0.100000)"
fill="#000000" stroke="none">
<path d="M0 2400 l0 -2400 4835 0 4835 0 0 2400 0 2400 -4835 0 -4835 0 0
-2400z m250 2280 l0 -60 -80 0 -80 0 0 60 0 60 80 0 80 0 0 -60z m8890 0 l0
-50 -50 0 -50 0 0 50 0 50 50 0 50 0 0 -50z m438 31 l27 24 -24 -27 -24 -28
24 -27 24 -28 -27 24 -28 24 -27 -24 -28 -24 24 28 24 27 -24 28 -24 27 28
-24 27 -24 28 24z m-9236 -28 l14 -38 14 38 c19 51 30 47 29 -10 -2 -46 -2
-46 -8 -13 l-6 35 -13 -35 -13 -35 -19 35 -18 35 -5 -35 c-3 -30 -4 -28 -5 13
-2 57 10 61 30 10z m421 30 c-7 -2 -13 -9 -13 -14 0 -12 27 -12 32 0 2 5 9 3
16 -5 7 -8 8 -14 2 -14 -14 0 -13 -37 3 -43 7 -3 5 -6 -5 -6 -13 -1 -18 7 -18
24 0 36 -30 33 -31 -2 l-1 -28 -7 30 c-8 33 3 65 22 64 9 0 9 -2 0 -6z m102
-30 l8 -38 11 32 c17 48 26 50 12 3 -7 -23 -16 -41 -22 -41 -5 0 -14 18 -21
40 -6 23 -8 41 -3 41 4 0 11 -17 15 -37z m272 -30 c-2 -16 -4 -5 -4 22 0 28 2
40 4 28 2 -13 2 -35 0 -50z m81 60 c-23 -6 -23 -12 3 -39 24 -26 18 -44 -14
-43 -21 0 -21 1 3 10 l25 10 -24 18 c-27 21 -23 52 6 50 17 -1 17 -2 1 -6z
m192 -39 c0 -41 -2 -45 -22 -42 -31 4 -38 47 -9 55 12 3 21 12 21 19 0 8 2 14
5 14 3 0 5 -21 5 -46z m208 13 c4 -33 -13 -57 -39 -57 -16 0 -19 8 -19 46 0
44 1 45 28 42 21 -2 28 -9 30 -31z m113 0 c18 5 20 2 17 -23 -2 -21 -9 -30
-25 -32 -21 -3 -23 0 -22 45 1 26 4 38 6 27 3 -16 9 -20 24 -17z m249 24 c-19
-5 -25 -13 -25 -36 0 -23 6 -31 25 -36 21 -6 22 -7 5 -8 -27 -1 -45 17 -45 44
0 27 18 45 45 44 17 -1 16 -2 -5 -8z m307 -58 c-2 -16 -4 -5 -4 22 0 28 2 40
4 28 2 -13 2 -35 0 -50z m-1018 29 c-13 -5 -11 -40 4 -45 7 -4 6 -6 -4 -6 -11
-1 -18 9 -21 27 -6 41 0 54 17 39 7 -7 9 -13 4 -15z m-842 -39 c-3 -10 -5 -2
-5 17 0 19 2 27 5 18 2 -10 2 -26 0 -35z m47 32 c-19 -15 -19 -15 0 -30 18
-13 18 -15 3 -15 -10 0 -20 7 -23 15 -9 22 3 45 23 45 15 0 15 -2 -3 -15z m58
3 c-5 -7 -12 -22 -15 -33 -3 -13 -5 -9 -6 13 -1 23 3 32 15 32 12 0 14 -3 6
-12z m63 -18 c0 -29 -32 -41 -41 -16 -9 24 4 48 23 44 12 -2 18 -12 18 -28z
m47 21 c-10 -6 -10 -10 2 -21 18 -14 12 -30 -12 -30 -13 0 -14 2 -3 9 9 6 10
11 2 15 -17 11 -13 36 7 36 13 0 14 -2 4 -9z m73 -21 c0 -29 -32 -41 -41 -16
-9 24 4 48 23 44 12 -2 18 -12 18 -28z m212 -17 c-3 -10 -5 -2 -5 17 0 19 2
27 5 18 2 -10 2 -26 0 -35z m45 38 c-10 -6 -10 -10 2 -21 19 -15 12 -30 -12
-29 -14 0 -14 2 2 8 18 7 18 8 3 14 -22 8 -22 37 1 37 13 0 14 -2 4 -9z m53
-41 c8 0 16 12 18 28 4 25 4 24 6 -6 1 -29 -2 -33 -21 -30 -17 2 -23 10 -24
28 -1 22 0 22 3 3 2 -13 10 -23 18 -23z m85 20 c0 -23 -4 -30 -20 -30 -24 0
-27 28 -3 37 15 6 15 7 -3 14 -17 7 -17 8 4 8 18 1 22 -4 22 -29z m205 -20 c8
0 16 12 18 28 4 25 4 24 6 -6 1 -29 -2 -33 -21 -30 -17 2 -23 10 -24 28 -1 22
0 22 3 3 2 -13 10 -23 18 -23z m122 3 c-3 -10 -5 -2 -5 17 0 19 2 27 5 18 2
-10 2 -26 0 -35z m68 17 c0 -16 -6 -26 -18 -28 -19 -4 -32 20 -23 44 9 25 41
13 41 -16z m182 13 c2 -6 -6 -13 -19 -15 l-23 -5 25 -11 c25 -11 25 -11 2 -11
-25 -1 -38 20 -28 45 7 17 37 16 43 -3z m108 -33 c8 0 16 12 18 28 4 25 4 24
6 -6 1 -29 -2 -33 -21 -30 -17 2 -23 10 -24 28 -1 22 0 22 3 3 2 -13 10 -23
18 -23z m93 8 c-3 -38 -6 -43 -28 -45 l-25 -3 25 11 25 11 -22 9 c-13 4 -23
17 -23 27 0 24 8 32 32 32 16 0 19 -6 16 -42z m177 12 c0 -16 -6 -26 -18 -28
-19 -4 -32 20 -23 44 9 25 41 13 41 -16z m74 -2 c-2 -32 -2 -32 -6 -5 -5 33
-25 31 -34 -4 -6 -21 -7 -21 -8 9 -1 28 2 32 24 32 22 0 25 -4 24 -32z m43 23
c-10 -6 -10 -10 2 -21 19 -15 12 -30 -12 -29 -14 0 -13 2 3 9 18 7 19 8 3 15
-10 4 -18 13 -18 21 0 8 8 14 18 14 13 0 14 -2 4 -9z m73 -21 c0 -16 -6 -26
-18 -28 -19 -4 -32 20 -23 44 9 25 41 13 41 -16z m102 13 c2 -6 -6 -13 -19
-15 l-23 -5 25 -11 c25 -11 25 -11 2 -11 -25 -1 -38 20 -28 45 7 17 37 16 43
-3z m6311 0 c-16 -2 -40 -2 -55 0 -16 2 -3 4 27 4 30 0 43 -2 28 -4z m-8448
-227 c0 -26 5 -46 13 -49 6 -3 -4 -5 -23 -5 -19 0 -27 2 -17 5 20 5 25 78 5
86 -8 3 -6 6 5 6 14 1 17 -7 17 -43z m795 9 c16 0 20 -7 21 -35 l2 -35 -5 33
c-6 42 -35 40 -44 -3 -5 -22 -7 -16 -7 25 0 31 3 46 6 35 4 -11 16 -20 27 -20z
m480 0 c16 0 20 -7 20 -30 0 -25 -4 -30 -27 -33 -28 -3 -28 -2 -27 50 1 31 4
45 7 33 4 -11 16 -20 27 -20z m725 25 c0 -5 -4 -10 -10 -10 -5 0 -10 5 -10 10
0 6 5 10 10 10 6 0 10 -4 10 -10z m638 -26 c0 -19 -3 -33 -6 -29 -9 9 -11 65
-2 65 4 0 8 -16 8 -36z m-2825 -26 c3 -21 2 -38 -3 -38 -4 0 -10 20 -12 45 -4
52 7 47 15 -7z m652 42 c-3 -6 4 -10 17 -11 l23 0 -22 -9 c-13 -5 -23 -16 -23
-25 0 -9 10 -20 23 -25 l22 -9 -22 0 c-17 -1 -25 7 -31 32 -9 34 -6 57 10 57
5 0 6 -4 3 -10z m260 -13 c18 -4 18 -5 -2 -6 -16 -1 -23 -7 -23 -21 0 -12 10
-24 23 -30 l22 -9 -22 0 c-17 -1 -25 7 -31 32 -9 33 -4 67 7 49 3 -5 15 -12
26 -15z m299 7 c4 -9 4 -19 1 -22 -3 -3 -6 1 -6 9 -1 8 -5 -4 -9 -26 l-7 -40
-2 48 c-1 46 11 63 23 31z m31 -72 c-7 -7 -25 17 -25 33 0 6 5 3 10 -5 7 -11
10 -5 12 25 l1 40 4 -44 c3 -23 1 -46 -2 -49z m559 80 c3 -5 -5 -8 -17 -8 -18
1 -22 -5 -22 -29 0 -20 5 -31 18 -33 20 -4 24 24 5 31 -8 3 -6 6 5 6 12 1 17
-7 17 -25 0 -22 -4 -25 -27 -22 -22 2 -29 9 -31 31 -5 41 34 77 52 49z m726 0
c0 -5 -10 -8 -22 -8 -19 1 -23 -4 -23 -29 0 -20 5 -31 18 -33 20 -4 24 24 5
31 -8 3 -6 6 5 6 12 1 17 -7 17 -25 0 -22 -4 -25 -27 -22 -22 2 -29 9 -31 31
-2 16 2 35 9 43 12 15 49 20 49 6z m-2402 -34 c3 -14 -3 -18 -24 -18 -30 0
-23 -14 11 -23 12 -3 8 -5 -10 -4 -31 2 -43 23 -31 53 8 21 50 14 54 -8z m145
15 c-13 -2 -24 -9 -24 -14 -5 -28 -2 -34 21 -41 25 -7 25 -7 1 -5 -52 4 -49
69 3 66 20 -2 20 -2 -1 -6z m92 -28 c0 -25 -4 -30 -25 -30 -16 0 -26 6 -28 18
-6 30 6 49 30 45 18 -2 23 -9 23 -33z m88 21 c2 -6 0 -22 -4 -36 -6 -23 -7
-22 -9 10 l-3 35 -7 -35 c-6 -31 -8 -32 -9 -8 -2 39 -19 44 -24 6 l-4 -33 -1
37 c-2 34 0 37 28 36 16 -1 31 -6 33 -12z m75 -8 c3 -14 -3 -18 -24 -18 -30 0
-23 -14 11 -23 12 -3 8 -5 -10 -4 -31 2 -43 23 -31 53 8 21 50 14 54 -8z m237
-13 c0 -25 -4 -30 -25 -30 -16 0 -26 6 -28 18 -6 30 6 49 30 45 18 -2 23 -9
23 -33z m323 13 c3 -14 -3 -18 -24 -18 -30 0 -23 -14 11 -23 12 -3 8 -5 -10
-4 -31 2 -43 23 -31 53 8 21 50 14 54 -8z m212 -33 c8 0 18 13 21 30 7 30 7
30 8 -6 1 -33 -1 -36 -26 -35 -25 1 -28 5 -30 36 -1 34 -1 34 5 5 4 -17 14
-30 22 -30z m112 19 c2 -19 0 -34 -4 -34 -4 0 -9 15 -9 33 l-2 32 -7 -35 c-6
-31 -8 -32 -9 -8 -2 39 -19 44 -24 6 l-4 -33 -1 37 c-2 34 0 37 27 36 25 -1
30 -5 33 -34z m156 14 c3 -14 -3 -18 -24 -18 -30 0 -23 -14 11 -23 12 -3 8 -5
-10 -4 -31 2 -43 23 -31 53 8 21 50 14 54 -8z m79 2 c4 -13 3 -13 -6 0 -13 18
-27 5 -34 -30 -3 -19 -5 -16 -6 11 -1 31 2 36 21 35 12 0 23 -8 25 -16z m213
-35 c8 0 18 13 21 30 7 30 7 30 8 -6 1 -33 -1 -36 -26 -35 -25 1 -28 5 -30 36
-1 34 -1 34 5 5 4 -17 14 -30 22 -30z m108 33 c3 -14 -3 -18 -24 -18 -30 0
-23 -14 11 -23 12 -3 8 -5 -10 -4 -31 2 -43 23 -31 53 8 21 50 14 54 -8z m60
15 c-24 -6 -23 -19 3 -26 30 -8 18 -32 -17 -34 l-29 -2 30 8 c30 7 30 7 8 19
-13 7 -23 19 -23 27 0 9 9 15 23 14 16 -1 18 -2 5 -6z m80 0 c-24 -6 -23 -19
3 -26 30 -8 18 -32 -17 -34 l-29 -2 30 8 c30 7 30 7 8 19 -13 7 -23 19 -23 27
0 9 9 15 23 14 16 -1 18 -2 5 -6z m82 -22 c0 -16 6 -32 13 -34 6 -3 -4 -5 -23
-5 -19 0 -27 2 -17 5 20 5 24 49 5 56 -8 3 -6 6 5 6 12 1 17 -7 17 -28z m96
-6 c1 -30 1 -30 -3 -2 -6 38 -36 32 -44 -8 -7 -30 -7 -30 -8 6 -1 33 1 36 27
35 23 -1 27 -5 28 -31z m80 13 c-1 -15 -10 -24 -26 -29 -25 -7 -25 -7 3 -8 37
-1 34 -36 -3 -36 -22 0 -25 5 -26 40 -2 49 1 55 30 55 18 0 23 -5 22 -22z
m242 -14 c3 -28 1 -31 -25 -30 -35 1 -38 28 -3 37 l25 6 -25 12 -25 11 25 -3
c20 -2 26 -8 28 -33z m81 -3 l-2 -36 -7 35 -7 35 -3 -35 c-1 -22 -4 -27 -7
-15 -10 45 -17 50 -23 15 l-7 -35 -2 37 c-1 35 1 37 29 36 28 -1 30 -4 29 -37z
m79 17 c3 -14 -3 -18 -24 -18 -30 0 -23 -14 11 -23 12 -3 8 -5 -10 -4 -31 2
-43 23 -31 53 8 21 50 14 54 -8z m-2742 -15 c-10 -10 -19 5 -10 18 6 11 8 11
12 0 2 -7 1 -15 -2 -18z m26 -3 c-2 -16 -8 -30 -13 -30 -10 0 -11 7 -3 38 9
33 21 27 16 -8z m2778 -20 c0 -5 -4 -10 -10 -10 -5 0 -10 5 -10 10 0 6 5 10
10 10 6 0 10 -4 10 -10z m-2400 -80 c0 -5 -4 -10 -10 -10 -5 0 -10 5 -10 10 0
6 5 10 10 10 6 0 10 -4 10 -10z m80 -34 c0 -26 5 -46 13 -49 6 -3 -4 -5 -23
-5 -19 0 -27 2 -17 5 20 5 25 78 5 86 -8 3 -6 6 5 6 14 1 17 -7 17 -43z m80 0
c0 -26 5 -46 13 -49 6 -3 -4 -5 -23 -5 -19 0 -27 2 -17 5 20 5 25 78 5 86 -8
3 -6 6 5 6 14 1 17 -7 17 -43z m155 9 c16 0 20 -7 21 -35 l2 -35 -5 33 c-6 42
-35 40 -44 -3 -5 -22 -7 -16 -7 25 0 31 3 46 6 35 4 -11 16 -20 27 -20z m565
-9 c0 -26 5 -46 13 -49 6 -3 -4 -5 -23 -5 -19 0 -27 2 -17 5 20 5 25 78 5 86
-8 3 -6 6 5 6 14 1 17 -7 17 -43z m80 34 c0 -5 -4 -10 -10 -10 -5 0 -10 5 -10
10 0 6 5 10 10 10 6 0 10 -4 10 -10z m160 0 c0 -5 -4 -10 -10 -10 -5 0 -10 5
-10 10 0 6 5 10 10 10 6 0 10 -4 10 -10z m260 -39 c0 -46 -1 -48 -27 -47 -24
1 -28 5 -28 31 0 23 5 31 23 33 12 2 22 10 22 18 0 8 2 14 5 14 3 0 5 -22 5
-49z m375 14 c16 0 20 -7 20 -30 0 -25 -4 -30 -27 -33 -28 -3 -28 -2 -27 50 1
31 4 45 7 33 4 -11 16 -20 27 -20z m413 28 c-10 -2 -18 -11 -18 -19 0 -8 8
-15 18 -15 16 -1 16 -2 0 -6 -11 -3 -19 -15 -19 -31 l-2 -27 -4 25 c-3 14 -10
28 -17 32 -8 6 -8 8 0 8 7 0 14 9 17 20 3 12 13 20 24 19 16 -1 16 -2 1 -6z
m1045 0 c-27 -5 -31 -32 -5 -34 16 -1 16 -2 0 -6 -11 -3 -19 -15 -19 -31 l-2
-27 -4 25 c-3 14 -10 28 -17 32 -8 6 -8 8 0 8 7 0 14 9 17 20 3 13 13 20 29
19 23 -2 23 -2 1 -6z m67 -3 c0 -5 -4 -10 -10 -10 -5 0 -10 5 -10 10 0 6 5 10
10 10 6 0 10 -4 10 -10z m180 -39 c0 -46 -1 -48 -27 -47 -24 1 -28 5 -28 31 0
23 5 31 23 33 12 2 22 10 22 18 0 8 2 14 5 14 3 0 5 -22 5 -49z m215 14 c16 0
20 -7 21 -35 l2 -35 -5 33 c-6 42 -35 40 -44 -3 -5 -22 -7 -16 -7 25 0 31 3
46 6 35 4 -11 16 -20 27 -20z m1040 0 c16 0 20 -7 20 -30 0 -25 -4 -30 -27
-33 -28 -3 -28 -2 -27 50 1 31 4 45 7 33 4 -11 16 -20 27 -20z m-5140 5 c3
-11 10 -20 15 -20 5 0 12 9 15 20 3 11 11 20 16 20 5 0 0 -16 -11 -37 -10 -20
-17 -40 -14 -45 3 -4 0 -8 -5 -8 -6 0 -11 10 -11 23 0 12 -7 33 -16 45 -8 12
-11 22 -5 22 5 0 13 -9 16 -20z m1610 10 c-3 -6 4 -10 17 -11 l23 0 -22 -9
c-13 -5 -23 -16 -23 -25 0 -9 10 -20 23 -25 l22 -9 -22 0 c-17 -1 -25 7 -31
32 -9 34 -6 57 10 57 5 0 6 -4 3 -10z m1760 0 c-3 -6 4 -10 17 -11 l23 0 -22
-9 c-13 -5 -23 -16 -23 -25 0 -9 10 -20 23 -25 l22 -9 -22 0 c-17 -1 -25 7
-31 32 -9 34 -6 57 10 57 5 0 6 -4 3 -10z m658 -11 c15 0 17 -2 7 -6 -34 -13
-38 -40 -7 -53 l22 -9 -22 0 c-17 -1 -25 7 -31 32 -8 31 -3 76 6 49 2 -7 13
-12 25 -13z m702 11 c-3 -5 4 -11 17 -11 17 -1 18 -3 6 -6 -11 -3 -18 -14 -18
-28 0 -14 7 -25 18 -28 13 -4 12 -5 -5 -6 -17 -1 -24 7 -31 32 -9 34 -6 57 10
57 5 0 6 -4 3 -10z m-4610 -45 c0 -25 -4 -30 -25 -30 -16 0 -26 6 -28 18 -6
30 6 49 30 45 18 -2 23 -9 23 -33z m55 -20 c8 0 18 13 21 30 7 30 7 30 8 -6 1
-33 -1 -36 -26 -35 -25 1 -28 5 -30 36 -1 34 -1 34 5 5 4 -17 14 -30 22 -30z
m143 18 c4 -19 2 -33 -3 -33 -6 0 -10 17 -10 37 0 43 5 41 13 -4z m43 -31
c-11 -10 -14 3 -7 38 l6 35 3 -33 c2 -19 1 -36 -2 -40z m64 39 c0 -16 6 -32
13 -34 6 -3 -4 -5 -23 -5 -19 0 -27 2 -17 5 20 5 24 49 5 56 -8 3 -6 6 5 6 12
1 17 -7 17 -28z m418 -7 c3 -28 1 -31 -25 -30 -35 1 -38 28 -3 37 l25 6 -25
12 -25 11 25 -3 c20 -2 26 -8 28 -33z m42 7 c0 -9 5 -22 12 -29 8 -8 8 -12 1
-12 -6 0 -16 14 -22 31 -13 39 -14 42 -1 34 6 -3 10 -14 10 -24z m31 -2 c-5
-13 -10 -19 -10 -12 -1 15 10 45 15 40 3 -2 0 -15 -5 -28z m87 9 c3 -14 -3
-18 -24 -18 -30 0 -23 -14 11 -23 12 -3 8 -5 -10 -4 -31 2 -43 23 -31 53 8 21
50 14 54 -8z m160 -14 c3 -28 1 -31 -25 -30 -35 1 -38 28 -3 37 l25 6 -25 12
-25 11 25 -3 c20 -2 26 -8 28 -33z m222 7 c0 -16 6 -32 13 -34 6 -3 -4 -5 -23
-5 -19 0 -27 2 -17 5 20 5 24 49 5 56 -8 3 -6 6 5 6 12 1 17 -7 17 -28z m102
-7 c2 -19 0 -34 -4 -34 -4 0 -9 15 -9 33 l-2 32 -7 -35 c-6 -31 -8 -32 -9 -8
-2 39 -19 44 -24 6 l-4 -33 -1 37 c-2 34 0 37 27 36 25 -1 30 -5 33 -34z m58
7 c0 -16 6 -32 13 -34 6 -3 -4 -5 -23 -5 -19 0 -27 2 -17 5 20 5 24 49 5 56
-8 3 -6 6 5 6 12 1 17 -7 17 -28z m178 7 c3 -14 -3 -18 -24 -18 -30 0 -23 -14
11 -23 12 -3 8 -5 -10 -4 -31 2 -43 23 -31 53 8 21 50 14 54 -8z m238 -13 c1
-30 1 -30 -3 -2 -6 38 -36 32 -44 -8 -7 -30 -7 -30 -8 6 -1 33 1 36 27 35 23
-1 27 -5 28 -31z m54 -20 c8 0 18 13 21 30 7 30 7 30 8 -6 1 -33 -1 -36 -26
-35 -25 1 -28 5 -30 36 -1 34 -1 34 5 5 4 -17 14 -30 22 -30z m116 28 c4 -14
1 -30 -5 -36 -8 -8 -11 -2 -12 24 l-2 34 -7 -35 c-6 -31 -8 -32 -9 -8 -2 39
-19 44 -24 6 l-4 -33 -1 37 c-2 35 0 37 28 36 23 -1 32 -7 36 -25z m152 5 c3
-14 -3 -18 -24 -18 -30 0 -23 -14 11 -23 12 -3 8 -5 -10 -4 -31 2 -43 23 -31
53 8 21 50 14 54 -8z m82 4 c0 -14 -2 -15 -10 -2 -11 18 -27 5 -33 -30 -3 -19
-5 -17 -6 10 -1 31 2 36 24 38 18 1 25 -3 25 -16z m155 -17 c0 -25 -4 -30 -25
-30 -16 0 -26 6 -28 18 -6 30 6 49 30 45 18 -2 23 -9 23 -33z m241 13 c-1 -15
-10 -24 -26 -29 -25 -7 -25 -7 3 -8 37 -1 34 -36 -3 -36 -21 0 -25 5 -27 35
-4 48 2 60 30 60 19 0 24 -5 23 -22z m54 -33 c8 0 18 13 21 30 7 30 7 30 8 -6
1 -33 -1 -36 -26 -35 -25 1 -28 5 -30 36 -1 34 -1 34 5 5 4 -17 14 -30 22 -30z
m108 33 c3 -14 -3 -18 -24 -18 -30 0 -23 -14 11 -23 12 -3 8 -5 -10 -4 -31 2
-43 23 -31 53 8 21 50 14 54 -8z m60 15 c-24 -6 -23 -19 3 -26 30 -8 18 -32
-17 -34 l-29 -2 30 8 c30 7 30 7 8 19 -13 7 -23 19 -23 27 0 9 9 15 23 14 16
-1 18 -2 5 -6z m80 0 c-24 -6 -23 -19 3 -26 30 -8 18 -32 -17 -34 l-29 -2 30
8 c30 7 30 7 8 19 -13 7 -23 19 -23 27 0 9 9 15 23 14 16 -1 18 -2 5 -6z m100
-15 c3 -14 -3 -18 -24 -18 -30 0 -23 -14 11 -23 12 -3 8 -5 -10 -4 -31 2 -43
23 -31 53 8 21 50 14 54 -8z m60 15 c-24 -6 -23 -19 3 -26 30 -8 18 -32 -17
-34 l-29 -2 30 8 c30 7 30 7 8 19 -13 7 -23 19 -23 27 0 9 9 15 23 14 16 -1
18 -2 5 -6z m257 -28 c0 -25 -4 -30 -25 -30 -16 0 -26 6 -28 18 -6 30 6 49 30
45 18 -2 23 -9 23 -33z m225 6 c0 -16 6 -32 13 -34 6 -3 -4 -5 -23 -5 -19 0
-27 2 -17 5 20 5 24 49 5 56 -8 3 -6 6 5 6 12 1 17 -7 17 -28z m96 -6 c1 -30
1 -30 -3 -2 -6 38 -36 32 -44 -8 -7 -30 -7 -30 -8 6 -1 33 1 36 27 35 23 -1
27 -5 28 -31z m402 13 c3 -14 -3 -18 -24 -18 -30 0 -23 -14 11 -23 12 -3 8 -5
-10 -4 -31 2 -43 23 -31 53 8 21 50 14 54 -8z m140 15 c-24 -6 -23 -19 3 -26
30 -8 18 -32 -17 -34 l-29 -2 30 8 c30 7 30 7 8 19 -13 7 -23 19 -23 27 0 9 9
15 23 14 16 -1 18 -2 5 -6z m100 -15 c3 -14 -3 -18 -24 -18 -30 0 -23 -14 11
-23 12 -3 8 -5 -10 -4 -31 2 -43 23 -31 53 8 21 50 14 54 -8z m62 13 c-14 -4
-25 -12 -24 -19 2 -26 4 -31 17 -35 8 -3 7 -4 -2 -3 -8 1 -19 8 -24 18 -14 21
7 48 37 47 19 -1 18 -2 -4 -8z m97 -11 c4 -13 3 -13 -6 0 -13 18 -27 5 -34
-30 -3 -19 -5 -16 -6 11 -1 31 2 36 21 35 12 0 23 -8 25 -16z m81 -2 c3 -14
-3 -18 -24 -18 -30 0 -23 -14 11 -23 12 -3 8 -5 -10 -4 -31 2 -43 23 -31 53 8
21 50 14 54 -8z m238 -13 c1 -30 1 -30 -3 -2 -6 38 -36 32 -44 -8 -7 -30 -7
-30 -8 6 -1 33 1 36 27 35 23 -1 27 -5 28 -31z m54 -20 c8 0 18 13 21 30 7 30
7 30 8 -6 1 -33 -1 -36 -26 -35 -25 1 -28 5 -30 36 -1 34 -1 34 5 5 4 -17 14
-30 22 -30z m116 28 c4 -14 1 -30 -5 -36 -8 -8 -11 -2 -12 24 l-2 34 -7 -35
c-6 -31 -8 -32 -9 -8 -2 39 -19 44 -24 6 l-4 -33 -1 37 c-2 35 0 37 28 36 23
-1 32 -7 36 -25z m152 5 c3 -14 -3 -18 -24 -18 -30 0 -23 -14 11 -23 12 -3 8
-5 -10 -4 -31 2 -43 23 -31 53 8 21 50 14 54 -8z m79 2 c4 -13 3 -13 -6 0 -13
18 -27 5 -34 -30 -3 -19 -5 -16 -6 11 -1 31 2 36 21 35 12 0 23 -8 25 -16z
m-4977 -20 c0 -5 -2 -10 -4 -10 -3 0 -8 5 -11 10 -3 6 -1 10 4 10 6 0 11 -4
11 -10z m5040 -20 c0 -5 -4 -10 -10 -10 -5 0 -10 5 -10 10 0 6 5 10 10 10 6 0
10 -4 10 -10z m-5280 -245 c0 -8 -4 -15 -10 -15 -5 0 -10 7 -10 15 0 8 5 15
10 15 6 0 10 -7 10 -15z m315 -20 c16 0 20 -7 21 -35 l2 -35 -5 33 c-6 42 -35
40 -44 -3 -5 -22 -7 -16 -7 25 0 31 3 46 6 35 4 -11 16 -20 27 -20z m85 25 c0
-5 -4 -10 -10 -10 -5 0 -10 5 -10 10 0 6 5 10 10 10 6 0 10 -4 10 -10z m140
-16 c0 -23 2 -25 15 -14 27 23 24 6 -6 -30 l-29 -34 0 52 c0 29 5 52 10 52 6
0 10 -12 10 -26z m100 16 c0 -5 -4 -10 -10 -10 -5 0 -10 5 -10 10 0 6 5 10 10
10 6 0 10 -4 10 -10z m408 3 c-10 -2 -18 -11 -18 -19 0 -8 8 -15 18 -15 16 -1
16 -2 0 -6 -11 -3 -19 -15 -19 -31 l-2 -27 -4 25 c-3 14 -10 28 -17 32 -8 6
-8 8 0 8 7 0 14 9 17 20 3 12 13 20 24 19 16 -1 16 -2 1 -6z m547 -28 c16 0
20 -7 20 -30 0 -25 -4 -30 -27 -33 -28 -3 -28 -2 -27 50 1 31 4 45 7 33 4 -11
16 -20 27 -20z m320 0 c16 0 20 -7 20 -30 0 -25 -4 -30 -27 -33 -28 -3 -28 -2
-27 50 1 31 4 45 7 33 4 -11 16 -20 27 -20z m985 -14 c0 -46 -1 -48 -27 -47
-23 1 -28 6 -28 26 0 16 8 28 23 35 12 5 22 15 22 22 0 7 2 13 5 13 3 0 5 -22
5 -49z m855 14 c16 0 20 -7 21 -35 l2 -35 -5 33 c-6 42 -35 40 -44 -3 -5 -22
-7 -16 -7 25 0 31 3 46 6 35 4 -11 16 -20 27 -20z m-3827 18 c-12 -3 -15 -12
-11 -36 3 -18 10 -35 16 -39 7 -4 -4 -7 -23 -7 -19 0 -29 3 -22 6 16 6 16 70
0 76 -7 3 3 5 22 5 19 0 28 -2 18 -5z m317 -16 c18 -4 18 -5 -2 -6 -33 -2 -28
-40 7 -54 10 -4 8 -6 -7 -6 -17 -1 -25 7 -31 32 -9 33 -4 67 7 49 3 -5 15 -12
26 -15z m1820 13 c-3 -5 4 -11 17 -11 l23 -2 -22 -4 c-15 -3 -23 -12 -23 -24
0 -11 10 -24 23 -29 l22 -9 -22 0 c-17 -1 -25 7 -31 32 -9 34 -6 57 10 57 5 0
6 -4 3 -10z m495 -29 c0 -22 5 -42 13 -44 6 -3 -4 -5 -23 -5 -19 0 -27 2 -17
5 12 3 17 15 17 40 0 32 -2 34 -17 22 -16 -13 -17 -12 -4 4 21 27 31 20 31
-22z m480 0 c0 -22 5 -42 13 -44 6 -3 -4 -5 -23 -5 -19 0 -27 2 -17 5 12 3 17
15 17 40 0 32 -2 34 -17 22 -16 -13 -17 -12 -4 4 21 27 31 20 31 -22z m95 -6
c0 -36 -2 -40 -25 -40 -20 0 -26 6 -28 28 -5 42 5 59 30 55 20 -3 23 -9 23
-43z m80 0 c0 -36 -2 -40 -25 -40 -20 0 -26 6 -28 28 -5 42 5 59 30 55 20 -3
23 -9 23 -43z m200 25 c3 -11 10 -20 15 -20 5 0 12 9 15 20 3 11 11 20 16 20
5 0 0 -16 -11 -37 -10 -20 -17 -40 -14 -45 3 -4 0 -8 -5 -8 -6 0 -11 10 -11
23 0 12 -7 33 -16 45 -8 12 -11 22 -5 22 5 0 13 -9 16 -20z m765 15 c0 -10
-40 -85 -45 -85 -3 0 1 13 10 30 20 39 19 48 -7 53 -17 3 -14 5 10 6 17 0 32
-1 32 -4z m-4077 -29 c2 -6 0 -22 -4 -36 -6 -23 -7 -22 -9 10 l-3 35 -7 -35
c-6 -31 -8 -32 -9 -8 -2 39 -19 44 -24 6 l-4 -33 -1 37 c-2 34 0 37 28 36 16
-1 31 -6 33 -12z m297 -15 c0 -16 6 -32 13 -34 6 -3 -4 -5 -23 -5 -19 0 -27 2
-17 5 20 5 24 49 5 56 -8 3 -6 6 5 6 12 1 17 -7 17 -28z m96 -6 c1 -30 1 -30
-3 -2 -6 38 -36 32 -44 -8 -7 -30 -7 -30 -8 6 -1 33 1 36 27 35 23 -1 27 -5
28 -31z m144 6 c0 -16 6 -32 13 -34 6 -3 -4 -5 -23 -5 -19 0 -27 2 -17 5 20 5
24 49 5 56 -8 3 -6 6 5 6 12 1 17 -7 17 -28z m96 -6 c1 -30 1 -30 -3 -2 -6 38
-36 32 -44 -8 -7 -30 -7 -30 -8 6 -1 33 1 36 27 35 23 -1 27 -5 28 -31z m80
13 c-1 -15 -10 -24 -26 -29 -25 -7 -25 -7 3 -8 37 -1 34 -36 -3 -36 -22 0 -25
5 -26 40 -2 49 1 55 30 55 18 0 23 -5 22 -22z m159 -13 c0 -25 -4 -30 -25 -30
-16 0 -26 6 -28 18 -6 30 6 49 30 45 18 -2 23 -9 23 -33z m243 -1 c3 -28 1
-31 -25 -30 -35 1 -38 28 -3 37 l25 6 -25 12 -25 11 25 -3 c20 -2 26 -8 28
-33z m158 1 c1 -30 1 -30 -3 -2 -6 38 -36 32 -44 -8 -7 -30 -7 -30 -8 6 -1 33
1 36 27 35 23 -1 27 -5 28 -31z m54 -20 c8 0 18 13 21 30 7 30 7 30 8 -6 1
-33 -1 -36 -26 -35 -25 1 -28 5 -30 36 -1 34 -1 34 5 5 4 -17 14 -30 22 -30z
m116 28 c4 -14 1 -30 -5 -36 -8 -8 -11 -2 -12 24 l-2 34 -7 -35 c-6 -31 -8
-32 -9 -8 -2 39 -19 44 -24 6 l-4 -33 -1 37 c-2 35 0 37 28 36 23 -1 32 -7 36
-25z m152 5 c3 -14 -3 -18 -24 -18 -30 0 -23 -14 11 -23 12 -3 8 -5 -10 -4
-31 2 -43 23 -31 53 8 21 50 14 54 -8z m79 2 c4 -13 3 -13 -6 0 -13 18 -27 5
-34 -30 -3 -19 -5 -16 -6 11 -1 31 2 36 21 35 12 0 23 -8 25 -16z m241 -2 c3
-14 -3 -18 -24 -18 -30 0 -23 -14 11 -23 12 -3 8 -5 -10 -4 -31 2 -43 23 -31
53 8 21 50 14 54 -8z m115 -15 c4 -19 2 -33 -3 -33 -6 0 -10 17 -10 37 0 43 5
41 13 -4z m43 -31 c-11 -10 -14 3 -7 38 l6 35 3 -33 c2 -19 1 -36 -2 -40z m82
46 c3 -14 -3 -18 -24 -18 -30 0 -23 -14 11 -23 12 -3 8 -5 -10 -4 -31 2 -43
23 -31 53 8 21 50 14 54 -8z m80 0 c3 -14 -3 -18 -24 -18 -30 0 -23 -14 11
-23 12 -3 8 -5 -10 -4 -31 2 -43 23 -31 53 8 21 50 14 54 -8z m78 -13 c1 -30
1 -30 -3 -2 -6 38 -36 32 -44 -8 -7 -30 -7 -30 -8 6 -1 33 1 36 27 35 23 -1
27 -5 28 -31z m322 -1 c3 -28 1 -31 -25 -30 -35 1 -38 28 -3 37 l25 6 -25 12
-25 11 25 -3 c20 -2 26 -8 28 -33z m78 1 c1 -30 1 -30 -3 -2 -6 38 -36 32 -44
-8 -7 -30 -7 -30 -8 6 -1 33 1 36 27 35 23 -1 27 -5 28 -31z m719 0 c0 -25 -4
-30 -25 -30 -16 0 -26 6 -28 18 -6 30 6 49 30 45 18 -2 23 -9 23 -33z m55 -20
c8 0 18 13 21 30 7 30 7 30 8 -6 1 -33 -1 -36 -26 -35 -25 1 -28 5 -30 36 -1
34 -1 34 5 5 4 -17 14 -30 22 -30z m268 19 c3 -28 1 -31 -25 -30 -35 1 -38 28
-3 37 l25 6 -25 12 -25 11 25 -3 c20 -2 26 -8 28 -33z m42 5 c0 -28 17 -23 24
7 4 15 9 24 12 22 6 -7 -17 -68 -26 -68 -4 0 -13 14 -19 31 -13 39 -14 42 -1
34 6 -3 10 -15 10 -26z m118 9 c3 -14 -3 -18 -24 -18 -30 0 -23 -14 11 -23 12
-3 8 -5 -10 -4 -31 2 -43 23 -31 53 8 21 50 14 54 -8z m320 0 c-2 -14 -13 -25
-28 -29 -25 -7 -25 -7 3 -8 37 -1 34 -36 -3 -36 -21 0 -25 5 -27 35 -4 48 2
60 32 60 22 0 26 -4 23 -22z m52 -33 c8 0 18 13 21 30 7 30 7 30 8 -6 1 -33
-1 -36 -26 -35 -25 1 -28 5 -30 36 -1 34 -1 34 5 5 4 -17 14 -30 22 -30z m108
33 c3 -14 -3 -18 -24 -18 -30 0 -23 -14 11 -23 12 -3 8 -5 -10 -4 -31 2 -43
23 -31 53 8 21 50 14 54 -8z m60 15 c-24 -6 -23 -19 3 -26 30 -8 18 -32 -17
-34 l-29 -2 30 8 c30 7 30 7 8 19 -13 7 -23 19 -23 27 0 9 9 15 23 14 16 -1
18 -2 5 -6z m80 0 c-24 -6 -23 -19 3 -26 30 -8 18 -32 -17 -34 l-29 -2 30 8
c30 7 30 7 8 19 -13 7 -23 19 -23 27 0 9 9 15 23 14 16 -1 18 -2 5 -6z m100
-15 c3 -14 -3 -18 -24 -18 -30 0 -23 -14 11 -23 12 -3 8 -5 -10 -4 -31 2 -43
23 -31 53 8 21 50 14 54 -8z m60 15 c-24 -6 -23 -19 3 -26 30 -8 18 -32 -17
-34 l-29 -2 30 8 c30 7 30 7 8 19 -13 7 -23 19 -23 27 0 9 9 15 23 14 16 -1
18 -2 5 -6z m-2638 -29 c0 -8 -5 -12 -10 -9 -6 4 -8 11 -5 16 9 14 15 11 15
-7z m-1589 -21 c13 -16 12 -17 -3 -4 -10 7 -18 15 -18 17 0 8 8 3 21 -13z
m2709 -3 c0 -5 -4 -10 -10 -10 -5 0 -10 5 -10 10 0 6 5 10 10 10 6 0 10 -4 10
-10z m1600 0 c0 -5 -4 -10 -10 -10 -5 0 -10 5 -10 10 0 6 5 10 10 10 6 0 10
-4 10 -10z m-4962 -87 c-10 -2 -18 -11 -18 -19 0 -8 8 -15 18 -15 16 -1 16 -2
0 -6 -10 -2 -18 -11 -18 -18 0 -7 8 -16 18 -18 13 -4 11 -5 -5 -6 -21 -1 -23
4 -23 44 0 40 2 45 23 44 16 -1 18 -2 5 -6z m147 -3 c-3 -5 4 -11 17 -11 l23
-2 -22 -4 c-15 -3 -23 -12 -23 -24 0 -11 10 -24 23 -29 l22 -9 -22 0 c-17 -1
-25 7 -31 32 -9 34 -6 57 10 57 5 0 6 -4 3 -10z m1311 -17 c9 -33 -6 -57 -37
-60 l-24 -2 24 7 c30 9 41 33 12 25 -23 -6 -37 16 -27 42 9 26 45 18 52 -12z
m79 -18 c0 -36 -2 -40 -25 -40 -20 0 -26 6 -28 28 -5 42 5 59 30 55 20 -3 23
-9 23 -43z m-1439 -10 c1 -30 1 -30 -3 -2 -6 38 -36 32 -44 -8 -7 -30 -7 -30
-8 6 -1 33 1 36 27 35 23 -1 27 -5 28 -31z m162 13 c3 -14 -3 -18 -24 -18 -30
0 -23 -14 11 -23 12 -3 8 -5 -10 -4 -31 2 -43 23 -31 53 8 21 50 14 54 -8z
m79 2 c4 -13 3 -13 -6 0 -13 18 -27 5 -34 -30 -3 -19 -5 -16 -6 11 -1 31 2 36
21 35 12 0 23 -8 25 -16z m134 -30 c4 0 10 12 13 26 4 15 9 24 12 21 10 -9
-34 -97 -48 -97 -10 0 -10 2 1 9 9 6 11 18 7 34 -12 48 -12 52 -2 30 5 -13 13
-23 17 -23z m104 15 c0 -25 -4 -30 -25 -30 -16 0 -26 6 -28 18 -6 30 6 49 30
45 18 -2 23 -9 23 -33z m55 -20 c8 0 18 13 21 30 7 30 7 30 8 -6 1 -33 -1 -36
-26 -35 -25 1 -28 5 -30 36 -1 34 -1 34 5 5 4 -17 14 -30 22 -30z m107 35 c4
-13 3 -13 -6 0 -13 18 -27 5 -34 -30 -3 -19 -5 -16 -6 11 -1 31 2 36 21 35 12
0 23 -8 25 -16z m161 -2 c-2 -14 -13 -25 -28 -29 -25 -7 -25 -7 3 -8 37 -1 34
-36 -3 -36 -21 0 -25 5 -27 35 -4 48 2 60 32 60 22 0 26 -4 23 -22z m52 -33
c8 0 18 13 21 30 7 30 7 30 8 -6 1 -33 -1 -36 -26 -35 -25 1 -28 5 -30 36 -1
34 -1 34 5 5 4 -17 14 -30 22 -30z m108 33 c3 -14 -3 -18 -24 -18 -30 0 -23
-14 11 -23 12 -3 8 -5 -10 -4 -31 2 -43 23 -31 53 8 21 50 14 54 -8z m60 15
c-24 -6 -23 -19 3 -26 30 -8 18 -32 -17 -34 l-29 -2 30 8 c30 7 30 7 8 19 -13
7 -23 19 -23 27 0 9 9 15 23 14 16 -1 18 -2 5 -6z m80 0 c-24 -6 -23 -19 3
-26 30 -8 18 -32 -17 -34 l-29 -2 30 8 c30 7 30 7 8 19 -13 7 -23 19 -23 27 0
9 9 15 23 14 16 -1 18 -2 5 -6z m82 -3 c0 -5 -4 -10 -10 -10 -5 0 -10 5 -10
10 0 6 5 10 10 10 6 0 10 -4 10 -10z m0 -50 c0 -5 -4 -10 -10 -10 -5 0 -10 5
-10 10 0 6 5 10 10 10 6 0 10 -4 10 -10z m-965 -105 c16 0 20 -7 21 -35 l2
-35 -5 33 c-6 42 -35 40 -44 -3 -5 -22 -7 -16 -7 25 0 31 3 46 6 35 4 -11 16
-20 27 -20z m85 25 c0 -5 -4 -10 -10 -10 -5 0 -10 5 -10 10 0 6 5 10 10 10 6
0 10 -4 10 -10z m155 -25 c16 0 20 -7 21 -35 l2 -35 -5 33 c-6 42 -35 40 -44
-3 -5 -22 -7 -16 -7 25 0 31 3 46 6 35 4 -11 16 -20 27 -20z m805 25 c0 -5 -4
-10 -10 -10 -5 0 -10 5 -10 10 0 6 5 10 10 10 6 0 10 -4 10 -10z m-1347 -7
c-8 -2 -13 -22 -13 -44 0 -22 -5 -39 -11 -39 -7 0 -10 15 -7 40 2 29 0 40 -12
44 -8 2 1 4 20 4 19 0 29 -2 23 -5z m800 0 c-8 -2 -13 -22 -13 -44 0 -21 -4
-39 -10 -39 -5 0 -10 18 -10 39 0 22 -5 42 -12 44 -7 3 3 5 22 5 19 0 29 -2
23 -5z m-718 -48 c0 -25 -4 -30 -25 -30 -16 0 -26 6 -28 18 -6 30 6 49 30 45
18 -2 23 -9 23 -33z m80 0 c0 -25 -4 -30 -25 -30 -16 0 -26 6 -28 18 -6 30 6
49 30 45 18 -2 23 -9 23 -33z m225 6 c0 -16 6 -32 13 -34 6 -3 -4 -5 -23 -5
-19 0 -27 2 -17 5 20 5 24 49 5 56 -8 3 -6 6 5 6 12 1 17 -7 17 -28z m96 7
c-1 -15 -10 -24 -26 -29 -25 -7 -25 -7 3 -8 37 -1 34 -36 -3 -36 -21 0 -25 5
-27 35 -4 48 2 60 30 60 19 0 24 -5 23 -22z m402 1 c3 -11 2 -11 -7 1 -13 18
-27 5 -34 -30 -4 -21 -4 -21 -6 7 -1 40 37 59 47 22z m55 -30 c12 -8 -10 -49
-26 -49 -8 0 -8 3 2 9 13 8 12 20 -4 78 -3 10 0 7 7 -7 7 -14 16 -28 21 -31z
m18 24 c-12 -20 -14 -14 -5 12 4 9 9 14 11 11 3 -2 0 -13 -6 -23z m167 -9 c3
-28 1 -31 -25 -30 -35 1 -38 28 -3 37 l25 6 -25 12 -25 11 25 -3 c20 -2 26 -8
28 -33z m77 19 c-2 -10 -4 -21 -4 -25 -1 -4 -11 -9 -23 -11 -19 -4 -18 -5 5
-6 37 -1 34 -36 -3 -36 -21 0 -25 5 -27 35 -4 48 2 60 31 60 18 0 23 -5 21
-17z m83 -19 c3 -28 1 -31 -25 -30 -35 1 -38 28 -3 37 l25 6 -25 12 -25 11 25
-3 c20 -2 26 -8 28 -33z m62 7 c0 -16 6 -32 13 -34 6 -3 -4 -5 -23 -5 -19 0
-27 2 -17 5 20 5 24 49 5 56 -8 3 -6 6 5 6 12 1 17 -7 17 -28z m96 -6 c1 -30
1 -30 -3 -2 -6 38 -36 32 -44 -8 -7 -30 -7 -30 -8 6 -1 33 1 36 27 35 23 -1
27 -5 28 -31z m-816 -25 c0 -5 -4 -10 -10 -10 -5 0 -10 5 -10 10 0 6 5 10 10
10 6 0 10 -4 10 -10z m880 0 c0 -5 -4 -10 -10 -10 -5 0 -10 5 -10 10 0 6 5 10
10 10 6 0 10 -4 10 -10z m-1517 -87 c-27 -5 -31 -32 -5 -34 16 -1 16 -2 0 -6
-26 -6 -22 -31 5 -36 19 -4 18 -4 -5 -6 -27 -1 -28 1 -28 44 0 43 1 45 28 44
23 -2 24 -2 5 -6z m142 -3 c-3 -5 4 -11 17 -11 l23 -2 -22 -4 c-15 -3 -23 -12
-23 -24 0 -11 10 -24 23 -29 l22 -9 -22 0 c-17 -1 -25 7 -31 32 -9 34 -6 57
10 57 5 0 6 -4 3 -10z m1315 5 c0 -10 -40 -85 -45 -85 -3 0 1 13 10 30 20 39
19 48 -7 53 -17 3 -14 5 10 6 17 0 32 -1 32 -4z m75 -40 c0 -36 -2 -40 -25
-40 -20 0 -26 6 -28 28 -5 42 5 59 30 55 20 -3 23 -9 23 -43z m-1439 -10 c1
-30 1 -30 -3 -2 -6 38 -36 32 -44 -8 -7 -30 -7 -30 -8 6 -1 33 1 36 27 35 23
-1 27 -5 28 -31z m162 13 c3 -14 -3 -18 -24 -18 -30 0 -23 -14 11 -23 12 -3 8
-5 -10 -4 -31 2 -43 23 -31 53 8 21 50 14 54 -8z m79 2 c4 -13 3 -13 -6 0 -13
18 -27 5 -34 -30 -3 -19 -5 -16 -6 11 -1 31 2 36 21 35 12 0 23 -8 25 -16z
m134 -30 c4 0 10 12 13 26 4 15 9 24 12 21 10 -9 -34 -97 -48 -97 -10 0 -10 2
1 9 9 6 11 18 7 34 -12 48 -12 52 -2 30 5 -13 13 -23 17 -23z m104 15 c0 -25
-4 -30 -25 -30 -16 0 -26 6 -28 18 -6 30 6 49 30 45 18 -2 23 -9 23 -33z m55
-20 c8 0 18 13 21 30 7 30 7 30 8 -6 1 -33 -1 -36 -26 -35 -25 1 -28 5 -30 36
-1 34 -1 34 5 5 4 -17 14 -30 22 -30z m107 35 c4 -13 3 -13 -6 0 -13 18 -27 5
-34 -30 -3 -19 -5 -16 -6 11 -1 31 2 36 21 35 12 0 23 -8 25 -16z m163 8 c0
-20 -13 -35 -35 -41 -15 -3 -13 -5 8 -6 37 -1 34 -36 -3 -36 -21 0 -25 5 -27
35 -4 48 2 60 32 60 14 0 25 -6 25 -12z m50 -43 c8 0 18 13 21 30 7 30 7 30 8
-6 1 -33 -1 -36 -26 -35 -25 1 -28 5 -30 36 -1 34 -1 34 5 5 4 -17 14 -30 22
-30z m108 33 c3 -14 -3 -18 -24 -18 -30 0 -23 -14 11 -23 12 -3 8 -5 -10 -4
-31 2 -43 23 -31 53 8 21 50 14 54 -8z m60 15 c-24 -6 -23 -19 3 -26 30 -8 18
-32 -17 -34 l-29 -2 30 8 c30 7 30 7 8 19 -13 7 -23 19 -23 27 0 9 9 15 23 14
16 -1 18 -2 5 -6z m80 0 c-24 -6 -23 -19 3 -26 30 -8 18 -32 -17 -34 l-29 -2
30 8 c30 7 30 7 8 19 -13 7 -23 19 -23 27 0 9 9 15 23 14 16 -1 18 -2 5 -6z
m82 -3 c0 -5 -4 -10 -10 -10 -5 0 -10 5 -10 10 0 6 5 10 10 10 6 0 10 -4 10
-10z m0 -50 c0 -5 -4 -10 -10 -10 -5 0 -10 5 -10 10 0 6 5 10 10 10 6 0 10 -4
10 -10z m-965 -105 c16 0 20 -7 21 -35 l2 -35 -5 33 c-6 42 -35 40 -44 -3 -5
-22 -7 -16 -7 25 0 31 3 46 6 35 4 -11 16 -20 27 -20z m85 25 c0 -5 -4 -10
-10 -10 -5 0 -10 5 -10 10 0 6 5 10 10 10 6 0 10 -4 10 -10z m155 -25 c16 0
20 -7 21 -35 l2 -35 -5 33 c-6 42 -35 40 -44 -3 -5 -22 -7 -16 -7 25 0 31 3
46 6 35 4 -11 16 -20 27 -20z m805 25 c0 -5 -4 -10 -10 -10 -5 0 -10 5 -10 10
0 6 5 10 10 10 6 0 10 -4 10 -10z m-1347 -7 c-8 -2 -13 -22 -13 -44 0 -21 -4
-39 -10 -39 -5 0 -10 18 -10 39 0 22 -5 42 -12 44 -7 3 3 5 22 5 19 0 29 -2
23 -5z m800 0 c-8 -2 -13 -22 -13 -44 0 -21 -4 -39 -10 -39 -5 0 -10 18 -10
39 0 22 -5 42 -12 44 -7 3 3 5 22 5 19 0 29 -2 23 -5z m-718 -48 c0 -25 -4
-30 -25 -30 -16 0 -26 6 -28 18 -6 30 6 49 30 45 18 -2 23 -9 23 -33z m80 0
c0 -25 -4 -30 -25 -30 -16 0 -26 6 -28 18 -6 30 6 49 30 45 18 -2 23 -9 23
-33z m225 6 c0 -16 6 -32 13 -34 6 -3 -4 -5 -23 -5 -19 0 -27 2 -17 5 20 5 24
49 5 56 -8 3 -6 6 5 6 12 1 17 -7 17 -28z m96 7 c-1 -15 -10 -24 -26 -29 -25
-7 -25 -7 3 -8 37 -1 34 -36 -3 -36 -21 0 -25 5 -27 35 -4 48 2 60 30 60 19 0
24 -5 23 -22z m402 1 c3 -11 2 -11 -7 1 -13 18 -27 5 -34 -30 -4 -21 -4 -21
-6 7 -1 40 37 59 47 22z m55 -30 c12 -8 -10 -49 -26 -49 -8 0 -8 3 2 9 13 8
12 20 -4 78 -3 10 0 7 7 -7 7 -14 16 -28 21 -31z m18 24 c-12 -20 -14 -14 -5
12 4 9 9 14 11 11 3 -2 0 -13 -6 -23z m167 -9 c3 -28 1 -31 -25 -30 -35 1 -38
28 -3 37 l25 6 -25 12 -25 11 25 -3 c20 -2 26 -8 28 -33z m77 19 c-2 -10 -4
-21 -4 -25 -1 -4 -11 -9 -23 -11 -19 -4 -18 -5 5 -6 37 -1 34 -36 -3 -36 -21
0 -25 5 -27 35 -4 48 2 60 31 60 18 0 23 -5 21 -17z m83 -19 c3 -28 1 -31 -25
-30 -35 1 -38 28 -3 37 l25 6 -25 12 -25 11 25 -3 c20 -2 26 -8 28 -33z m62 7
c0 -16 6 -32 13 -34 6 -3 -4 -5 -23 -5 -19 0 -27 2 -17 5 20 5 24 49 5 56 -8
3 -6 6 5 6 12 1 17 -7 17 -28z m96 -6 c1 -30 1 -30 -3 -2 -6 38 -36 32 -44 -8
-7 -30 -7 -30 -8 6 -1 33 1 36 27 35 23 -1 27 -5 28 -31z m-816 -25 c0 -5 -4
-10 -10 -10 -5 0 -10 5 -10 10 0 6 5 10 10 10 6 0 10 -4 10 -10z m880 0 c0 -5
-4 -10 -10 -10 -5 0 -10 5 -10 10 0 6 5 10 10 10 6 0 10 -4 10 -10z m-1517
-87 c-27 -5 -31 -32 -5 -34 16 -1 16 -2 0 -6 -26 -6 -22 -31 5 -36 19 -4 18
-4 -5 -6 -27 -1 -28 1 -28 44 0 43 1 45 28 44 23 -2 24 -2 5 -6z m142 -3 c-3
-5 4 -11 17 -11 l23 -2 -22 -4 c-15 -3 -23 -12 -23 -24 0 -11 10 -24 23 -29
l22 -9 -22 0 c-17 -1 -25 7 -31 32 -9 34 -6 57 10 57 5 0 6 -4 3 -10z m1295 3
c-8 -3 -18 -11 -22 -17 -5 -7 -8 -4 -8 7 0 11 7 17 23 16 15 0 17 -2 7 -6z
m95 -38 c0 -36 -2 -40 -25 -40 -20 0 -26 6 -28 28 -5 42 5 59 30 55 20 -3 23
-9 23 -43z m-1439 -10 c1 -30 1 -30 -3 -2 -6 38 -36 32 -44 -8 -7 -30 -7 -30
-8 6 -1 33 1 36 27 35 23 -1 27 -5 28 -31z m162 13 c3 -14 -3 -18 -24 -18 -30
0 -23 -14 11 -23 12 -3 8 -5 -10 -4 -31 2 -43 23 -31 53 8 21 50 14 54 -8z
m79 2 c4 -13 3 -13 -6 0 -13 18 -27 5 -34 -30 -3 -19 -5 -16 -6 11 -1 31 2 36
21 35 12 0 23 -8 25 -16z m134 -30 c4 0 10 12 13 26 4 15 9 24 12 21 10 -9
-34 -97 -48 -97 -10 0 -10 2 1 9 9 6 11 18 7 34 -12 48 -12 52 -2 30 5 -13 13
-23 17 -23z m104 15 c0 -25 -4 -30 -25 -30 -16 0 -26 6 -28 18 -6 30 6 49 30
45 18 -2 23 -9 23 -33z m55 -20 c8 0 18 13 21 30 7 30 7 30 8 -6 1 -33 -1 -36
-26 -35 -25 1 -28 5 -30 36 -1 34 -1 34 5 5 4 -17 14 -30 22 -30z m107 35 c4
-13 3 -13 -6 0 -13 18 -27 5 -34 -30 -3 -19 -5 -16 -6 11 -1 31 2 36 21 35 12
0 23 -8 25 -16z m161 -2 c-2 -14 -13 -25 -28 -29 -25 -7 -25 -7 3 -8 37 -1 34
-36 -3 -36 -21 0 -25 5 -27 35 -4 48 2 60 32 60 22 0 26 -4 23 -22z m52 -33
c8 0 18 13 21 30 7 30 7 30 8 -6 1 -33 -1 -36 -26 -35 -25 1 -28 5 -30 36 -1
34 -1 34 5 5 4 -17 14 -30 22 -30z m108 33 c3 -14 -3 -18 -24 -18 -30 0 -23
-14 11 -23 12 -3 8 -5 -10 -4 -31 2 -43 23 -31 53 8 21 50 14 54 -8z m60 15
c-24 -6 -23 -19 3 -26 30 -8 18 -32 -17 -34 l-29 -2 30 8 c30 7 30 7 8 19 -13
7 -23 19 -23 27 0 9 9 15 23 14 16 -1 18 -2 5 -6z m80 0 c-24 -6 -23 -19 3
-26 30 -8 18 -32 -17 -34 l-29 -2 30 8 c30 7 30 7 8 19 -13 7 -23 19 -23 27 0
9 9 15 23 14 16 -1 18 -2 5 -6z m82 -3 c0 -5 -4 -10 -10 -10 -5 0 -10 5 -10
10 0 6 5 10 10 10 6 0 10 -4 10 -10z m175 -35 c0 -15 -7 -20 -30 -22 -25 -2
-26 -1 -7 5 28 8 30 23 5 34 -14 6 -13 7 7 5 18 -1 25 -8 25 -22z m-175 -15
c0 -5 -4 -10 -10 -10 -5 0 -10 5 -10 10 0 6 5 10 10 10 6 0 10 -4 10 -10z
m-965 -105 c16 0 20 -7 21 -35 l2 -35 -5 33 c-6 42 -35 40 -44 -3 -5 -22 -7
-16 -7 25 0 31 3 46 6 35 4 -11 16 -20 27 -20z m85 25 c0 -5 -4 -10 -10 -10
-5 0 -10 5 -10 10 0 6 5 10 10 10 6 0 10 -4 10 -10z m155 -25 c16 0 20 -7 21
-35 l2 -35 -5 33 c-6 42 -35 40 -44 -3 -5 -22 -7 -16 -7 25 0 31 3 46 6 35 4
-11 16 -20 27 -20z m805 25 c0 -5 -4 -10 -10 -10 -5 0 -10 5 -10 10 0 6 5 10
10 10 6 0 10 -4 10 -10z m-1347 -7 c-8 -2 -13 -22 -13 -44 0 -21 -4 -39 -10
-39 -5 0 -10 18 -10 39 0 22 -5 42 -12 44 -7 3 3 5 22 5 19 0 29 -2 23 -5z
m795 0 c-10 -2 -26 -2 -35 0 -10 3 -2 5 17 5 19 0 27 -2 18 -5z m-713 -48 c0
-25 -4 -30 -25 -30 -16 0 -26 6 -28 18 -6 30 6 49 30 45 18 -2 23 -9 23 -33z
m80 0 c0 -25 -4 -30 -25 -30 -16 0 -26 6 -28 18 -6 30 6 49 30 45 18 -2 23 -9
23 -33z m225 6 c0 -16 6 -32 13 -34 6 -3 -4 -5 -23 -5 -19 0 -27 2 -17 5 20 5
24 49 5 56 -8 3 -6 6 5 6 12 1 17 -7 17 -28z m96 7 c-1 -15 -10 -24 -26 -29
-25 -7 -25 -7 3 -8 37 -1 34 -36 -3 -36 -21 0 -25 5 -27 35 -4 48 2 60 30 60
19 0 24 -5 23 -22z m304 -13 c0 -19 -4 -35 -10 -35 -5 0 -10 16 -10 35 0 19 5
35 10 35 6 0 10 -16 10 -35z m98 14 c3 -11 2 -11 -7 1 -13 18 -27 5 -34 -30
-4 -21 -4 -21 -6 7 -1 40 37 59 47 22z m46 -10 c16 -33 8 -69 -17 -69 -8 0 -8
3 2 9 13 8 12 32 -5 75 -11 28 4 17 20 -15z m27 4 c-12 -20 -14 -14 -5 12 4 9
9 14 11 11 3 -2 0 -13 -6 -23z m167 -9 c3 -28 1 -31 -25 -30 -35 1 -38 28 -3
37 l25 6 -25 12 -25 11 25 -3 c20 -2 26 -8 28 -33z m78 14 c-1 -15 -10 -24
-26 -29 -25 -7 -25 -7 3 -8 37 -1 34 -36 -3 -36 -21 0 -25 5 -27 35 -4 48 2
60 30 60 19 0 24 -5 23 -22z m82 -14 c3 -28 1 -31 -25 -30 -35 1 -38 28 -3 37
l25 6 -25 12 -25 11 25 -3 c20 -2 26 -8 28 -33z m62 7 c0 -16 6 -32 13 -34 6
-3 -4 -5 -23 -5 -19 0 -27 2 -17 5 20 5 24 49 5 56 -8 3 -6 6 5 6 12 1 17 -7
17 -28z m96 -6 c1 -30 1 -30 -3 -2 -6 38 -36 32 -44 -8 -7 -30 -7 -30 -8 6 -1
33 1 36 27 35 23 -1 27 -5 28 -31z m-816 -25 c0 -5 -4 -10 -10 -10 -5 0 -10 5
-10 10 0 6 5 10 10 10 6 0 10 -4 10 -10z m880 0 c0 -5 -4 -10 -10 -10 -5 0
-10 5 -10 10 0 6 5 10 10 10 6 0 10 -4 10 -10z m-1517 -87 c-27 -5 -31 -32 -5
-34 16 -1 16 -2 0 -6 -26 -6 -22 -31 5 -36 19 -4 18 -4 -5 -6 -27 -1 -28 1
-28 44 0 43 1 45 28 44 23 -2 24 -2 5 -6z m142 -3 c-3 -5 4 -11 17 -11 l23 -2
-22 -4 c-15 -3 -23 -12 -23 -24 0 -11 10 -24 23 -29 l22 -9 -22 0 c-17 -1 -25
7 -31 32 -9 34 -6 57 10 57 5 0 6 -4 3 -10z m1295 -29 c0 -22 5 -42 13 -44 6
-3 -4 -5 -23 -5 -19 0 -27 2 -17 5 12 3 17 15 17 40 0 32 -2 34 -17 22 -16
-13 -17 -12 -4 4 21 27 31 20 31 -22z m95 -6 c0 -36 -2 -40 -25 -40 -20 0 -26
6 -28 28 -5 42 5 59 30 55 20 -3 23 -9 23 -43z m-1439 -10 c1 -30 1 -30 -3 -2
-6 38 -36 32 -44 -8 -7 -30 -7 -30 -8 6 -1 33 1 36 27 35 23 -1 27 -5 28 -31z
m162 13 c3 -14 -3 -18 -24 -18 -30 0 -23 -14 11 -23 12 -3 8 -5 -10 -4 -31 2
-43 23 -31 53 8 21 50 14 54 -8z m79 2 c4 -13 3 -13 -6 0 -13 18 -27 5 -34
-30 -3 -19 -5 -16 -6 11 -1 31 2 36 21 35 12 0 23 -8 25 -16z m134 -30 c4 0
10 12 13 26 4 15 9 24 12 21 10 -9 -34 -97 -48 -97 -10 0 -10 2 1 9 9 6 11 18
7 34 -12 48 -12 52 -2 30 5 -13 13 -23 17 -23z m104 15 c0 -25 -4 -30 -25 -30
-16 0 -26 6 -28 18 -6 30 6 49 30 45 18 -2 23 -9 23 -33z m55 -20 c8 0 18 13
21 30 7 30 7 30 8 -6 1 -33 -1 -36 -26 -35 -25 1 -28 5 -30 36 -1 34 -1 34 5
5 4 -17 14 -30 22 -30z m107 35 c4 -13 3 -13 -6 0 -13 18 -27 5 -34 -30 -3
-19 -5 -16 -6 11 -1 31 2 36 21 35 12 0 23 -8 25 -16z m163 8 c0 -20 -13 -35
-35 -41 -15 -3 -13 -5 8 -6 37 -1 34 -36 -3 -36 -21 0 -25 5 -27 35 -4 48 2
60 32 60 14 0 25 -6 25 -12z m50 -43 c8 0 18 13 21 30 7 30 7 30 8 -6 1 -33
-1 -36 -26 -35 -25 1 -28 5 -30 36 -1 34 -1 34 5 5 4 -17 14 -30 22 -30z m108
33 c3 -14 -3 -18 -24 -18 -30 0 -23 -14 11 -23 12 -3 8 -5 -10 -4 -31 2 -43
23 -31 53 8 21 50 14 54 -8z m60 15 c-24 -6 -23 -19 3 -26 30 -8 18 -32 -17
-34 l-29 -2 30 8 c30 7 30 7 8 19 -13 7 -23 19 -23 27 0 9 9 15 23 14 16 -1
18 -2 5 -6z m80 0 c-24 -6 -23 -19 3 -26 30 -8 18 -32 -17 -34 l-29 -2 30 8
c30 7 30 7 8 19 -13 7 -23 19 -23 27 0 9 9 15 23 14 16 -1 18 -2 5 -6z m82 -3
c0 -5 -4 -10 -10 -10 -5 0 -10 5 -10 10 0 6 5 10 10 10 6 0 10 -4 10 -10z m0
-50 c0 -5 -4 -10 -10 -10 -5 0 -10 5 -10 10 0 6 5 10 10 10 6 0 10 -4 10 -10z
m-965 -105 c16 0 20 -7 21 -35 l2 -35 -5 33 c-6 42 -35 40 -44 -3 -5 -22 -7
-16 -7 25 0 31 3 46 6 35 4 -11 16 -20 27 -20z m85 25 c0 -5 -4 -10 -10 -10
-5 0 -10 5 -10 10 0 6 5 10 10 10 6 0 10 -4 10 -10z m155 -25 c16 0 20 -7 21
-35 l2 -35 -5 33 c-6 42 -35 40 -44 -3 -5 -22 -7 -16 -7 25 0 31 3 46 6 35 4
-11 16 -20 27 -20z m805 25 c0 -5 -4 -10 -10 -10 -5 0 -10 5 -10 10 0 6 5 10
10 10 6 0 10 -4 10 -10z m-1347 -7 c-8 -2 -13 -22 -13 -44 0 -21 -4 -39 -10
-39 -5 0 -10 18 -10 39 0 22 -5 42 -12 44 -7 3 3 5 22 5 19 0 29 -2 23 -5z
m795 0 c-10 -2 -26 -2 -35 0 -10 3 -2 5 17 5 19 0 27 -2 18 -5z m-713 -48 c0
-25 -4 -30 -25 -30 -16 0 -26 6 -28 18 -6 30 6 49 30 45 18 -2 23 -9 23 -33z
m80 0 c0 -25 -4 -30 -25 -30 -16 0 -26 6 -28 18 -6 30 6 49 30 45 18 -2 23 -9
23 -33z m225 6 c0 -16 6 -32 13 -34 6 -3 -4 -5 -23 -5 -19 0 -27 2 -17 5 20 5
24 49 5 56 -8 3 -6 6 5 6 12 1 17 -7 17 -28z m96 7 c-1 -15 -10 -24 -26 -29
-25 -7 -25 -7 3 -8 37 -1 34 -36 -3 -36 -22 0 -25 5 -26 40 -2 49 1 55 30 55
18 0 23 -5 22 -22z m304 -13 c0 -19 -4 -35 -10 -35 -5 0 -10 16 -10 35 0 19 5
35 10 35 6 0 10 -16 10 -35z m98 14 c3 -11 2 -11 -7 1 -13 18 -27 5 -34 -30
-4 -21 -4 -21 -6 7 -1 40 37 59 47 22z m46 -10 c16 -33 8 -69 -17 -69 -8 0 -8
3 2 9 13 8 12 32 -5 75 -11 28 4 17 20 -15z m27 4 c-12 -20 -14 -14 -5 12 4 9
9 14 11 11 3 -2 0 -13 -6 -23z m167 -9 c3 -28 1 -31 -25 -30 -35 1 -38 28 -3
37 l25 6 -25 12 -25 11 25 -3 c20 -2 26 -8 28 -33z m78 14 c-1 -15 -10 -24
-26 -29 -25 -7 -25 -7 3 -8 37 -1 34 -36 -3 -36 -21 0 -25 5 -27 35 -4 48 2
60 30 60 19 0 24 -5 23 -22z m82 -14 c3 -28 1 -31 -25 -30 -35 1 -38 28 -3 37
l25 6 -25 12 -25 11 25 -3 c20 -2 26 -8 28 -33z m62 7 c0 -16 6 -32 13 -34 6
-3 -4 -5 -23 -5 -19 0 -27 2 -17 5 20 5 24 49 5 56 -8 3 -6 6 5 6 12 1 17 -7
17 -28z m96 -6 c1 -30 1 -30 -3 -2 -6 38 -36 32 -44 -8 -7 -30 -7 -30 -8 6 -1
33 1 36 27 35 23 -1 27 -5 28 -31z m-816 -25 c0 -5 -4 -10 -10 -10 -5 0 -10 5
-10 10 0 6 5 10 10 10 6 0 10 -4 10 -10z m880 0 c0 -5 -4 -10 -10 -10 -5 0
-10 5 -10 10 0 6 5 10 10 10 6 0 10 -4 10 -10z m-1517 -87 c-27 -5 -31 -32 -5
-34 16 -1 16 -2 0 -6 -10 -2 -18 -11 -18 -18 0 -7 8 -16 18 -18 13 -4 11 -5
-5 -6 -21 -1 -23 4 -23 44 0 43 1 45 28 44 23 -2 24 -2 5 -6z m142 -3 c-3 -5
4 -11 17 -11 l23 -2 -22 -4 c-15 -3 -23 -12 -23 -24 0 -11 10 -24 23 -29 l22
-9 -22 0 c-17 -1 -25 7 -31 32 -9 34 -6 57 10 57 5 0 6 -4 3 -10z m1295 3 c-8
-3 -18 -11 -22 -17 -5 -7 -8 -4 -8 7 0 11 7 17 23 16 15 0 17 -2 7 -6z m-1344
-48 c1 -30 1 -30 -3 -2 -6 38 -36 32 -44 -8 -7 -30 -7 -30 -8 6 -1 33 1 36 27
35 23 -1 27 -5 28 -31z m162 13 c3 -14 -3 -18 -24 -18 -30 0 -23 -14 11 -23
12 -3 8 -5 -10 -4 -31 2 -43 23 -31 53 8 21 50 14 54 -8z m79 2 c4 -13 3 -13
-6 0 -13 18 -27 5 -34 -30 -3 -19 -5 -16 -6 11 -1 31 2 36 21 35 12 0 23 -8
25 -16z m134 -30 c4 0 10 12 13 26 4 15 9 24 12 21 10 -9 -34 -97 -48 -97 -10
0 -10 2 1 9 9 6 11 18 7 34 -12 48 -12 52 -2 30 5 -13 13 -23 17 -23z m104 15
c0 -25 -4 -30 -25 -30 -16 0 -26 6 -28 18 -6 30 6 49 30 45 18 -2 23 -9 23
-33z m55 -20 c8 0 18 13 21 30 7 30 7 30 8 -6 1 -33 -1 -36 -26 -35 -25 1 -28
5 -30 36 -1 34 -1 34 5 5 4 -17 14 -30 22 -30z m107 35 c4 -13 3 -13 -6 0 -13
18 -27 5 -34 -30 -3 -19 -5 -16 -6 11 -1 31 2 36 21 35 12 0 23 -8 25 -16z
m163 8 c0 -20 -13 -35 -35 -41 -15 -3 -13 -5 8 -6 37 -1 34 -36 -3 -36 -21 0
-25 5 -27 35 -4 48 2 60 32 60 14 0 25 -6 25 -12z m50 -43 c8 0 18 13 21 30 7
30 7 30 8 -6 1 -33 -1 -36 -26 -35 -25 1 -28 5 -30 36 -1 34 -1 34 5 5 4 -17
14 -30 22 -30z m108 33 c3 -14 -3 -18 -24 -18 -30 0 -23 -14 11 -23 12 -3 8
-5 -10 -4 -31 2 -43 23 -31 53 8 21 50 14 54 -8z m60 15 c-24 -6 -23 -19 3
-26 30 -8 18 -32 -17 -34 l-29 -2 30 8 c30 7 30 7 8 19 -13 7 -23 19 -23 27 0
9 9 15 23 14 16 -1 18 -2 5 -6z m80 0 c-24 -6 -23 -19 3 -26 30 -8 18 -32 -17
-34 l-29 -2 30 8 c30 7 30 7 8 19 -13 7 -23 19 -23 27 0 9 9 15 23 14 16 -1
18 -2 5 -6z m82 -3 c0 -5 -4 -10 -10 -10 -5 0 -10 5 -10 10 0 6 5 10 10 10 6
0 10 -4 10 -10z m177 -26 c7 -18 -13 -34 -42 -33 -17 1 -17 2 3 7 28 8 30 24
5 33 -16 7 -15 8 5 8 12 1 25 -6 29 -15z m-177 -24 c0 -5 -4 -10 -10 -10 -5 0
-10 5 -10 10 0 6 5 10 10 10 6 0 10 -4 10 -10z m-960 -114 c0 -26 5 -46 13
-49 6 -3 -4 -5 -23 -5 -19 0 -27 2 -17 5 20 5 25 78 5 86 -8 3 -6 6 5 6 14 1
17 -7 17 -43z m960 34 c0 -5 -4 -10 -10 -10 -5 0 -10 5 -10 10 0 6 5 10 10 10
6 0 10 -4 10 -10z m-1267 -7 c-8 -2 -13 -22 -13 -44 0 -21 -4 -39 -10 -39 -5
0 -10 18 -10 39 0 22 -5 42 -12 44 -7 3 3 5 22 5 19 0 29 -2 23 -5z m720 0
c-8 -2 -13 -22 -13 -44 0 -21 -4 -39 -10 -39 -5 0 -10 18 -10 39 0 22 -5 42
-12 44 -7 3 3 5 22 5 19 0 29 -2 23 -5z m-638 -48 c0 -25 -4 -30 -25 -30 -16
0 -26 6 -28 18 -6 30 6 49 30 45 18 -2 23 -9 23 -33z m80 0 c0 -25 -4 -30 -25
-30 -16 0 -26 6 -28 18 -6 30 6 49 30 45 18 -2 23 -9 23 -33z m240 0 c0 -25
-4 -30 -25 -30 -16 0 -26 6 -28 18 -6 30 6 49 30 45 18 -2 23 -9 23 -33z m38
-2 c4 -19 2 -33 -3 -33 -6 0 -10 17 -10 37 0 43 5 41 13 -4z m49 2 c-2 -19 -9
-35 -14 -35 -6 0 -7 7 -4 16 3 9 6 24 6 35 0 10 4 19 8 19 4 0 6 -16 4 -35z
m315 15 c4 -13 3 -13 -6 0 -13 18 -27 5 -34 -30 -3 -19 -5 -16 -6 11 -1 31 2
36 21 35 12 0 23 -8 25 -16z m56 -31 c12 -8 -10 -49 -26 -49 -8 0 -8 3 2 9 13
8 12 20 -4 78 -3 10 0 7 7 -7 7 -14 16 -28 21 -31z m18 24 c-12 -20 -14 -14
-5 12 4 9 9 14 11 11 3 -2 0 -13 -6 -23z m167 -9 c3 -28 1 -31 -25 -30 -35 1
-38 28 -3 37 l25 6 -25 12 -25 11 25 -3 c20 -2 26 -8 28 -33z m78 14 c-1 -15
-10 -24 -26 -29 -25 -7 -25 -7 3 -8 37 -1 34 -36 -3 -36 -21 0 -25 5 -27 35
-4 48 2 60 30 60 19 0 24 -5 23 -22z m82 -14 c3 -28 1 -31 -25 -30 -35 1 -38
28 -3 37 l25 6 -25 12 -25 11 25 -3 c20 -2 26 -8 28 -33z m62 7 c0 -16 6 -32
13 -34 6 -3 -4 -5 -23 -5 -19 0 -27 2 -17 5 20 5 24 49 5 56 -8 3 -6 6 5 6 12
1 17 -7 17 -28z m96 -6 c1 -30 1 -30 -3 -2 -6 38 -36 32 -44 -8 -7 -30 -7 -30
-8 6 -1 33 1 36 27 35 23 -1 27 -5 28 -31z m-896 -1 c0 -8 -5 -12 -10 -9 -6 4
-8 11 -5 16 9 14 15 11 15 -7z m80 -24 c0 -5 -4 -10 -10 -10 -5 0 -10 5 -10
10 0 6 5 10 10 10 6 0 10 -4 10 -10z m880 0 c0 -5 -4 -10 -10 -10 -5 0 -10 5
-10 10 0 6 5 10 10 10 6 0 10 -4 10 -10z m-1442 -87 c-10 -2 -18 -11 -18 -19
0 -8 8 -15 18 -15 16 -1 16 -2 0 -6 -26 -6 -22 -31 5 -36 19 -4 18 -4 -5 -6
-27 -1 -28 1 -28 44 0 40 2 45 23 44 16 -1 18 -2 5 -6z m147 -3 c-3 -6 4 -10
17 -11 l23 0 -22 -9 c-13 -5 -23 -16 -23 -25 0 -9 10 -20 23 -25 l22 -9 -22 0
c-17 -1 -25 7 -31 32 -9 34 -6 57 10 57 5 0 6 -4 3 -10z m1310 0 c4 -6 2 -17
-5 -24 -8 -11 -8 -15 1 -18 20 -7 2 -38 -21 -38 -23 0 -41 31 -21 38 9 3 9 7
1 18 -15 17 -4 34 20 34 10 0 22 -5 25 -10z m-1359 -45 c1 -30 1 -30 -3 -2 -6
38 -36 32 -44 -8 -7 -30 -7 -30 -8 6 -1 33 1 36 27 35 23 -1 27 -5 28 -31z
m162 13 c3 -14 -3 -18 -24 -18 -30 0 -23 -14 11 -23 12 -3 8 -5 -10 -4 -31 2
-43 23 -31 53 8 21 50 14 54 -8z m79 2 c4 -13 3 -13 -6 0 -13 18 -27 5 -34
-30 -3 -19 -5 -16 -6 11 -1 31 2 36 21 35 12 0 23 -8 25 -16z m133 -60 c-6
-11 -16 -20 -23 -20 -8 0 -8 3 2 9 13 8 12 26 -5 78 -3 10 3 3 15 -15 17 -26
19 -37 11 -52z m21 53 c-12 -20 -14 -14 -5 12 4 9 9 14 11 11 3 -2 0 -13 -6
-23z m84 -8 c0 -25 -4 -30 -25 -30 -16 0 -26 6 -28 18 -6 30 6 49 30 45 18 -2
23 -9 23 -33z m55 -20 c8 0 18 13 21 30 7 30 7 30 8 -6 1 -33 -1 -36 -26 -35
-25 1 -28 5 -30 36 -1 34 -1 34 5 5 4 -17 14 -30 22 -30z m107 35 c4 -13 3
-13 -6 0 -13 18 -27 5 -34 -30 -3 -19 -5 -16 -6 11 -1 31 2 36 21 35 12 0 23
-8 25 -16z m161 -2 c-2 -14 -13 -25 -28 -29 -25 -7 -25 -7 3 -8 37 -1 34 -36
-3 -36 -21 0 -25 5 -27 35 -4 48 2 60 32 60 22 0 26 -4 23 -22z m52 -33 c8 0
18 13 21 30 7 30 7 30 8 -6 1 -33 -1 -36 -26 -35 -25 1 -28 5 -30 36 -1 34 -1
34 5 5 4 -17 14 -30 22 -30z m108 33 c3 -14 -3 -18 -24 -18 -30 0 -23 -14 11
-23 12 -3 8 -5 -10 -4 -31 2 -43 23 -31 53 8 21 50 14 54 -8z m60 15 c-24 -6
-23 -19 3 -26 30 -8 18 -32 -17 -34 l-29 -2 30 8 c30 7 30 7 8 19 -13 7 -23
19 -23 27 0 9 9 15 23 14 16 -1 18 -2 5 -6z m80 0 c-24 -6 -23 -19 3 -26 30
-8 18 -32 -17 -34 l-29 -2 30 8 c30 7 30 7 8 19 -13 7 -23 19 -23 27 0 9 9 15
23 14 16 -1 18 -2 5 -6z m82 -3 c0 -5 -4 -10 -10 -10 -5 0 -10 5 -10 10 0 6 5
10 10 10 6 0 10 -4 10 -10z m0 -50 c0 -5 -4 -10 -10 -10 -5 0 -10 5 -10 10 0
6 5 10 10 10 6 0 10 -4 10 -10z m-640 -114 c0 -26 5 -46 13 -49 6 -3 -4 -5
-23 -5 -19 0 -27 2 -17 5 20 5 25 78 5 86 -8 3 -6 6 5 6 14 1 17 -7 17 -43z
m240 34 c0 -5 -4 -10 -10 -10 -5 0 -10 5 -10 10 0 6 5 10 10 10 6 0 10 -4 10
-10z m318 -26 c0 -25 -3 -33 -9 -23 -11 18 -12 59 0 59 5 0 9 -16 9 -36z m982
-13 c0 -46 -1 -48 -27 -47 -23 1 -28 6 -28 26 0 16 8 28 23 35 12 5 22 15 22
22 0 7 2 13 5 13 3 0 5 -22 5 -49z m215 14 c16 0 20 -7 21 -35 l2 -35 -5 33
c-6 42 -35 40 -44 -3 -5 -22 -7 -16 -7 25 0 31 3 46 6 35 4 -11 16 -20 27 -20z
m480 0 c16 0 20 -7 20 -30 0 -25 -4 -30 -27 -33 -28 -3 -28 -2 -27 50 1 31 4
45 7 33 4 -11 16 -20 27 -20z m325 25 c0 -5 -4 -10 -10 -10 -5 0 -10 5 -10 10
0 6 5 10 10 10 6 0 10 -4 10 -10z m958 -26 c0 -25 -3 -33 -9 -23 -11 18 -12
59 0 59 5 0 9 -16 9 -36z m-4158 17 c-19 -5 -25 -13 -25 -36 0 -23 6 -31 25
-36 14 -4 18 -7 8 -8 -32 -2 -48 11 -48 38 0 33 17 51 45 50 17 -1 16 -2 -5
-8z m465 -1 c-3 -5 4 -11 17 -11 l23 -2 -22 -4 c-15 -3 -23 -12 -23 -24 0 -11
10 -24 23 -29 l22 -9 -22 0 c-17 -1 -25 7 -31 32 -9 34 -6 57 10 57 5 0 6 -4
3 -10z m320 0 c-3 -5 4 -11 17 -11 l23 -2 -22 -4 c-15 -3 -23 -12 -23 -24 0
-11 10 -24 23 -29 l22 -9 -22 0 c-17 -1 -25 7 -31 32 -9 34 -6 57 10 57 5 0 6
-4 3 -10z m550 -10 c3 -11 10 -20 15 -20 5 0 12 9 15 20 3 11 10 20 15 20 5 0
-1 -20 -13 -45 l-22 -45 -6 30 c-4 16 -12 37 -19 45 -8 9 -8 15 -2 15 6 0 14
-9 17 -20z m990 -3 c18 -4 18 -5 -2 -6 -16 -1 -23 -7 -23 -21 0 -12 10 -24 23
-30 l22 -9 -22 0 c-17 -1 -25 7 -31 32 -9 33 -4 67 7 49 3 -5 15 -12 26 -15z
m1108 13 c-13 -5 -23 -13 -23 -18 0 -5 10 -8 23 -8 17 1 22 -5 22 -24 0 -20
-5 -25 -25 -25 -20 0 -26 6 -28 28 -4 32 13 57 37 56 11 0 9 -3 -6 -9z m-3338
-45 c0 -25 -4 -30 -25 -30 -16 0 -26 6 -28 18 -6 30 6 49 30 45 18 -2 23 -9
23 -33z m81 0 c1 -30 1 -30 -3 -2 -6 38 -36 32 -44 -8 -7 -30 -7 -30 -8 6 -1
33 1 36 27 35 23 -1 27 -5 28 -31z m80 13 c-1 -15 -10 -24 -26 -29 -25 -7 -25
-7 3 -8 37 -1 34 -36 -3 -36 -22 0 -25 5 -26 40 -2 49 1 55 30 55 18 0 23 -5
22 -22z m82 1 c3 -11 2 -11 -7 1 -13 18 -27 5 -34 -30 -4 -21 -4 -21 -6 7 -1
40 37 59 47 22z m80 -15 c3 -28 1 -31 -25 -30 -35 1 -38 28 -3 37 l25 6 -25
12 -25 11 25 -3 c20 -2 26 -8 28 -33z m132 -19 c8 0 18 13 21 30 7 30 7 30 8
-6 1 -33 -1 -36 -26 -35 -25 1 -28 5 -30 36 -1 34 -1 34 5 5 4 -17 14 -30 22
-30z m188 19 c3 -28 1 -31 -25 -30 -35 1 -38 28 -3 37 l25 6 -25 12 -25 11 25
-3 c20 -2 26 -8 28 -33z m142 7 c0 -16 6 -32 13 -34 6 -3 -4 -5 -23 -5 -19 0
-27 2 -17 5 20 5 24 49 5 56 -8 3 -6 6 5 6 12 1 17 -7 17 -28z m95 -6 c0 -25
-4 -30 -25 -30 -16 0 -26 6 -28 18 -6 30 6 49 30 45 18 -2 23 -9 23 -33z m81
0 c1 -30 1 -30 -3 -2 -6 38 -36 32 -44 -8 -7 -30 -7 -30 -8 6 -1 33 1 36 27
35 23 -1 27 -5 28 -31z m62 28 c-24 -6 -23 -19 3 -26 30 -8 18 -32 -17 -34
l-29 -2 30 8 c30 7 30 7 8 19 -13 7 -23 19 -23 27 0 9 9 15 23 14 16 -1 18 -2
5 -6z m337 -28 c0 -25 -4 -30 -25 -30 -16 0 -26 6 -28 18 -6 30 6 49 30 45 18
-2 23 -9 23 -33z m55 -20 c8 0 18 13 21 30 7 30 7 30 8 -6 1 -33 -1 -36 -26
-35 -25 1 -28 5 -30 36 -1 34 -1 34 5 5 4 -17 14 -30 22 -30z m188 33 c-2 -14
-13 -25 -28 -29 -25 -7 -25 -7 3 -8 37 -1 34 -36 -3 -36 -21 0 -25 5 -27 35
-4 48 2 60 32 60 22 0 26 -4 23 -22z m52 -33 c8 0 18 13 21 30 7 30 7 30 8 -6
1 -33 -1 -36 -26 -35 -25 1 -28 5 -30 36 -1 34 -1 34 5 5 4 -17 14 -30 22 -30z
m108 33 c3 -14 -3 -18 -24 -18 -30 0 -23 -14 11 -23 12 -3 8 -5 -10 -4 -31 2
-43 23 -31 53 8 21 50 14 54 -8z m60 15 c-24 -6 -23 -19 3 -26 30 -8 18 -32
-17 -34 l-29 -2 30 8 c30 7 30 7 8 19 -13 7 -23 19 -23 27 0 9 9 15 23 14 16
-1 18 -2 5 -6z m80 0 c-24 -6 -23 -19 3 -26 30 -8 18 -32 -17 -34 l-29 -2 30
8 c30 7 30 7 8 19 -13 7 -23 19 -23 27 0 9 9 15 23 14 16 -1 18 -2 5 -6z m100
-15 c3 -14 -3 -18 -24 -18 -30 0 -23 -14 11 -23 12 -3 8 -5 -10 -4 -31 2 -43
23 -31 53 8 21 50 14 54 -8z m400 0 c3 -14 -3 -18 -24 -18 -30 0 -23 -14 11
-23 12 -3 8 -5 -10 -4 -31 2 -43 23 -31 53 8 21 50 14 54 -8z m158 -13 c1 -30
1 -30 -3 -2 -6 38 -36 32 -44 -8 -7 -30 -7 -30 -8 6 -1 33 1 36 27 35 23 -1
27 -5 28 -31z m54 -20 c8 0 18 13 21 30 7 30 7 30 8 -6 1 -33 -1 -36 -26 -35
-25 1 -28 5 -30 36 -1 34 -1 34 5 5 4 -17 14 -30 22 -30z m112 19 c2 -19 0
-34 -4 -34 -4 0 -9 15 -9 33 l-2 32 -7 -35 c-6 -31 -8 -32 -9 -8 -2 39 -19 44
-24 6 l-4 -33 -1 37 c-2 34 0 37 27 36 25 -1 30 -5 33 -34z m156 14 c3 -14 -3
-18 -24 -18 -30 0 -23 -14 11 -23 12 -3 8 -5 -10 -4 -31 2 -43 23 -31 53 8 21
50 14 54 -8z m79 2 c4 -13 3 -13 -6 0 -13 18 -27 5 -34 -30 -3 -19 -5 -16 -6
11 -1 31 2 36 21 35 12 0 23 -8 25 -16z m143 -9 c0 -16 6 -32 13 -34 6 -3 -4
-5 -23 -5 -19 0 -27 2 -17 5 20 5 24 49 5 56 -8 3 -6 6 5 6 12 1 17 -7 17 -28z
m96 -6 c1 -30 1 -30 -3 -2 -6 38 -36 32 -44 -8 -7 -30 -7 -30 -8 6 -1 33 1 36
27 35 23 -1 27 -5 28 -31z m322 13 c-2 -14 -13 -25 -28 -29 -25 -7 -25 -7 3
-8 37 -1 34 -36 -3 -36 -21 0 -25 5 -27 35 -4 48 2 60 32 60 22 0 26 -4 23
-22z m52 -33 c8 0 18 13 21 30 7 30 7 30 8 -6 1 -33 -1 -36 -26 -35 -25 1 -28
5 -30 36 -1 34 -1 34 5 5 4 -17 14 -30 22 -30z m108 33 c3 -14 -3 -18 -24 -18
-30 0 -23 -14 11 -23 12 -3 8 -5 -10 -4 -31 2 -43 23 -31 53 8 21 50 14 54 -8z
m60 15 c-24 -6 -23 -19 3 -26 30 -8 18 -32 -17 -34 l-29 -2 30 8 c30 7 30 7 8
19 -13 7 -23 19 -23 27 0 9 9 15 23 14 16 -1 18 -2 5 -6z m80 0 c-24 -6 -23
-19 3 -26 30 -8 18 -32 -17 -34 l-29 -2 30 8 c30 7 30 7 8 19 -13 7 -23 19
-23 27 0 9 9 15 23 14 16 -1 18 -2 5 -6z m100 -15 c3 -14 -3 -18 -24 -18 -30
0 -23 -14 11 -23 12 -3 8 -5 -10 -4 -31 2 -43 23 -31 53 8 21 50 14 54 -8z
m60 15 c-24 -6 -23 -19 3 -26 30 -8 18 -32 -17 -34 l-29 -2 30 8 c30 7 30 7 8
19 -13 7 -23 19 -23 27 0 9 9 15 23 14 16 -1 18 -2 5 -6z m-2878 -53 c0 -5 -4
-10 -10 -10 -5 0 -10 5 -10 10 0 6 5 10 10 10 6 0 10 -4 10 -10z m2960 0 c0
-5 -4 -10 -10 -10 -5 0 -10 5 -10 10 0 6 5 10 10 10 6 0 10 -4 10 -10z m-3920
-114 c0 -26 5 -46 13 -49 6 -3 -4 -5 -23 -5 -19 0 -27 2 -17 5 20 5 25 78 5
86 -8 3 -6 6 5 6 14 1 17 -7 17 -43z m100 -5 c0 -46 -1 -48 -27 -47 -24 1 -28
5 -28 31 0 23 5 31 23 33 12 2 22 10 22 18 0 8 2 14 5 14 3 0 5 -22 5 -49z
m460 5 c0 -26 5 -46 13 -49 6 -3 -4 -5 -23 -5 -19 0 -27 2 -17 5 20 5 25 78 5
86 -8 3 -6 6 5 6 14 1 17 -7 17 -43z m80 34 c0 -5 -4 -10 -10 -10 -5 0 -10 5
-10 10 0 6 5 10 10 10 6 0 10 -4 10 -10z m59 -2 c-4 -32 1 -42 13 -30 22 22
32 12 10 -11 -12 -13 -22 -29 -22 -35 0 -7 -4 -12 -10 -12 -5 0 -10 23 -10 50
0 28 5 50 10 50 6 0 10 -6 9 -12z m581 -32 c0 -26 5 -46 13 -49 6 -3 -4 -5
-23 -5 -19 0 -27 2 -17 5 20 5 25 78 5 86 -8 3 -6 6 5 6 14 1 17 -7 17 -43z
m560 34 c0 -5 -4 -10 -10 -10 -5 0 -10 5 -10 10 0 6 5 10 10 10 6 0 10 -4 10
-10z m170 -9 c7 -15 6 -24 -6 -36 -9 -9 -19 -13 -23 -9 -3 4 0 9 7 11 18 7 15
30 -5 42 -17 10 -17 10 -1 11 10 0 22 -9 28 -19z m150 4 c-6 -8 -12 -31 -12
-52 0 -29 -2 -33 -10 -20 -12 23 9 87 29 87 3 0 0 -7 -7 -15z m151 -48 c-11
-26 -23 -47 -26 -47 -3 0 2 17 11 38 9 20 19 46 22 57 3 11 7 15 9 9 2 -6 -5
-32 -16 -57z m175 7 c4 -22 0 -36 -15 -54 l-21 -25 15 30 c19 37 19 43 -1 80
-13 27 -13 28 0 15 9 -8 18 -29 22 -46z m-2753 -6 c3 -21 2 -38 -3 -38 -4 0
-10 20 -12 45 -4 52 7 47 15 -7z m51 3 c-4 -22 -10 -41 -15 -41 -12 0 -11 5 3
51 14 49 21 44 12 -10z m1179 28 c15 0 17 -2 7 -6 -34 -13 -38 -40 -7 -53 l22
-9 -22 0 c-17 -1 -25 7 -31 32 -8 31 -3 76 6 49 2 -7 13 -12 25 -13z m1741 5
c4 -9 4 -19 1 -22 -3 -3 -6 1 -6 9 -1 8 -5 -4 -9 -26 l-7 -40 -2 48 c-1 46 11
63 23 31z m31 -72 c-7 -7 -25 17 -25 33 0 6 5 3 10 -5 7 -11 10 -5 12 25 l1
40 4 -44 c3 -23 1 -46 -2 -49z m-2880 33 c0 -25 -4 -30 -25 -30 -16 0 -26 6
-28 18 -6 30 6 49 30 45 18 -2 23 -9 23 -33z m55 -20 c8 0 18 13 21 30 7 30 7
30 8 -6 1 -33 -1 -36 -26 -35 -25 1 -28 5 -30 36 -1 34 -1 34 5 5 4 -17 14
-30 22 -30z m336 31 c12 24 13 25 8 4 -10 -40 -33 -80 -47 -80 -8 0 -8 3 2 9
13 8 12 23 -5 78 -3 10 2 5 12 -11 l17 -30 13 30z m89 -11 c0 -25 -4 -30 -25
-30 -16 0 -26 6 -28 18 -6 30 6 49 30 45 18 -2 23 -9 23 -33z m55 -20 c8 0 18
13 21 30 7 30 7 30 8 -6 1 -33 -1 -36 -26 -35 -25 1 -28 5 -30 36 -1 34 -1 34
5 5 4 -17 14 -30 22 -30z m250 26 c0 -16 6 -32 13 -34 6 -3 -4 -5 -23 -5 -19
0 -27 2 -17 5 20 5 24 49 5 56 -8 3 -6 6 5 6 12 1 17 -7 17 -28z m178 7 c3
-14 -3 -18 -24 -18 -30 0 -23 -14 11 -23 12 -3 8 -5 -10 -4 -31 2 -43 23 -31
53 8 21 50 14 54 -8z m237 -13 c0 -25 -4 -30 -25 -30 -16 0 -26 6 -28 18 -6
30 6 49 30 45 18 -2 23 -9 23 -33z m160 0 c0 -23 -5 -31 -22 -33 -12 -2 -24
-11 -26 -20 -3 -9 -5 6 -6 34 -1 49 0 51 27 50 23 -1 27 -5 27 -31z m163 -1
c3 -28 1 -31 -25 -30 -35 1 -38 28 -3 37 l25 6 -25 12 -25 11 25 -3 c20 -2 26
-8 28 -33z m42 5 c0 -28 17 -23 24 7 4 15 9 24 12 21 10 -9 -34 -97 -48 -97
-10 0 -10 2 1 9 13 9 12 32 -6 77 -4 12 -3 15 5 10 7 -4 12 -16 12 -27z m198
-5 c3 -28 1 -31 -25 -30 -35 1 -38 28 -3 37 l25 6 -25 12 -25 11 25 -3 c20 -2
26 -8 28 -33z m77 19 c-2 -10 -4 -21 -4 -25 -1 -4 -11 -9 -23 -11 -19 -4 -18
-5 5 -6 37 -1 34 -36 -3 -36 -21 0 -25 5 -27 35 -4 48 2 60 31 60 18 0 23 -5
21 -17z m83 -19 c3 -28 1 -31 -25 -30 -35 1 -38 28 -3 37 l25 6 -25 12 -25 11
25 -3 c20 -2 26 -8 28 -33z m62 7 c0 -16 6 -32 13 -34 6 -3 -4 -5 -23 -5 -19
0 -27 2 -17 5 20 5 24 49 5 56 -8 3 -6 6 5 6 12 1 17 -7 17 -28z m96 -6 c1
-30 1 -30 -3 -2 -6 38 -36 32 -44 -8 -7 -30 -7 -30 -8 6 -1 33 1 36 27 35 23
-1 27 -5 28 -31z m310 11 c12 24 13 25 8 4 -10 -40 -33 -80 -47 -80 -8 0 -8 3
2 9 13 8 12 23 -5 78 -3 10 2 5 12 -11 l17 -30 13 30z m170 -11 c1 -30 1 -30
-3 -2 -6 38 -36 32 -44 -8 -7 -30 -7 -30 -8 6 -1 33 1 36 27 35 23 -1 27 -5
28 -31z m144 25 c0 -5 -4 -10 -10 -10 -5 0 -10 5 -10 10 0 6 5 10 10 10 6 0
10 -4 10 -10z m-2804 -27 c-10 -10 -19 5 -10 18 6 11 8 11 12 0 2 -7 1 -15 -2
-18z m975 -20 c13 -16 12 -17 -3 -4 -10 7 -18 15 -18 17 0 8 8 3 21 -13z
m1829 -3 c0 -5 -4 -10 -10 -10 -5 0 -10 5 -10 10 0 6 5 10 10 10 6 0 10 -4 10
-10z m-2320 -240 c0 -5 -4 -10 -10 -10 -5 0 -10 5 -10 10 0 6 5 10 10 10 6 0
10 -4 10 -10z m180 6 c0 -3 -4 -8 -10 -11 -5 -3 -10 -1 -10 4 0 6 5 11 10 11
6 0 10 -2 10 -4z m60 -40 c0 -26 5 -46 13 -49 6 -3 -4 -5 -23 -5 -19 0 -27 2
-17 5 20 5 25 78 5 86 -8 3 -6 6 5 6 14 1 17 -7 17 -43z m820 -5 c0 -46 -1
-48 -27 -47 -24 1 -28 5 -28 31 0 23 5 31 23 33 12 2 22 10 22 18 0 8 2 14 5
14 3 0 5 -22 5 -49z m140 39 c0 -5 -4 -10 -10 -10 -5 0 -10 5 -10 10 0 6 5 10
10 10 6 0 10 -4 10 -10z m560 0 c0 -5 -4 -10 -10 -10 -5 0 -10 5 -10 10 0 6 5
10 10 10 6 0 10 -4 10 -10z m560 -34 c0 -26 5 -46 13 -49 6 -3 -4 -5 -23 -5
-19 0 -27 2 -17 5 20 5 25 78 5 86 -8 3 -6 6 5 6 14 1 17 -7 17 -43z m-2825
14 c3 -11 10 -20 15 -20 5 0 12 9 15 20 3 11 11 20 16 20 5 0 0 -16 -11 -37
-10 -20 -17 -40 -14 -45 3 -4 0 -8 -6 -8 -7 0 -10 6 -7 14 3 7 -3 27 -14 45
-10 17 -15 31 -10 31 6 0 13 -9 16 -20z m2025 -19 c0 -22 5 -42 13 -44 6 -3
-4 -5 -23 -5 -19 0 -27 2 -17 5 12 3 17 15 17 40 0 32 -2 34 -17 22 -16 -13
-17 -12 -4 4 21 27 31 20 31 -22z m655 -6 c0 -36 -2 -40 -25 -40 -20 0 -26 6
-28 28 -5 42 5 59 30 55 20 -3 23 -9 23 -43z m-2560 -10 c0 -25 -4 -30 -25
-30 -16 0 -26 6 -28 18 -6 30 6 49 30 45 18 -2 23 -9 23 -33z m55 -20 c8 0 18
13 21 30 7 30 7 30 8 -6 1 -33 -1 -36 -26 -35 -25 1 -28 5 -30 36 -1 34 -1 34
5 5 4 -17 14 -30 22 -30z m110 37 c0 -14 -2 -15 -10 -2 -11 18 -27 5 -33 -30
-3 -19 -5 -17 -6 10 -1 31 2 36 24 38 18 1 25 -3 25 -16z m113 -19 c4 -19 2
-33 -3 -33 -6 0 -10 17 -10 37 0 43 5 41 13 -4z m43 -31 c-11 -10 -14 3 -7 38
l6 35 3 -33 c2 -19 1 -36 -2 -40z m64 39 c0 -16 6 -32 13 -34 6 -3 -4 -5 -23
-5 -19 0 -27 2 -17 5 20 5 24 49 5 56 -8 3 -6 6 5 6 12 1 17 -7 17 -28z m96
-6 c1 -30 1 -30 -3 -2 -6 38 -36 32 -44 -8 -7 -30 -7 -30 -8 6 -1 33 1 36 27
35 23 -1 27 -5 28 -31z m49 -8 c-8 -21 -18 -37 -20 -37 -3 0 2 16 10 36 8 20
15 39 15 42 0 3 2 3 5 0 3 -3 -2 -21 -10 -41z m190 8 c0 -25 -4 -30 -25 -30
-16 0 -26 6 -28 18 -6 30 6 49 30 45 18 -2 23 -9 23 -33z m63 28 c-24 -6 -23
-19 3 -26 30 -8 18 -32 -17 -34 l-29 -2 30 8 c30 7 30 7 8 19 -13 7 -23 19
-23 27 0 9 9 15 23 14 16 -1 18 -2 5 -6z m80 0 c-24 -6 -23 -19 3 -26 30 -8
18 -32 -17 -34 l-29 -2 30 8 c30 7 30 7 8 19 -13 7 -23 19 -23 27 0 9 9 15 23
14 16 -1 18 -2 5 -6z m179 -13 c4 -13 3 -13 -6 0 -13 18 -27 5 -34 -30 -3 -19
-5 -16 -6 11 -1 31 2 36 21 35 12 0 23 -8 25 -16z m81 -2 c3 -14 -3 -18 -24
-18 -30 0 -23 -14 11 -23 12 -3 8 -5 -10 -4 -31 2 -43 23 -31 53 8 21 50 14
54 -8z m62 13 c-14 -4 -25 -12 -24 -19 2 -26 4 -31 17 -35 8 -3 7 -4 -2 -3 -8
1 -19 8 -24 18 -14 21 7 48 37 47 19 -1 18 -2 -4 -8z m95 -26 c0 -25 -4 -30
-25 -30 -16 0 -26 6 -28 18 -6 30 6 49 30 45 18 -2 23 -9 23 -33z m82 15 c4
-13 3 -13 -6 0 -13 18 -27 5 -34 -30 -3 -19 -5 -16 -6 11 -1 31 2 36 21 35 12
0 23 -8 25 -16z m223 -9 c0 -16 6 -32 13 -34 6 -3 -4 -5 -23 -5 -19 0 -27 2
-17 5 20 5 24 49 5 56 -8 3 -6 6 5 6 12 1 17 -7 17 -28z m78 22 c-24 -6 -23
-19 3 -26 30 -8 18 -32 -17 -34 l-29 -2 30 8 c30 7 30 7 8 19 -13 7 -23 19
-23 27 0 9 9 15 23 14 16 -1 18 -2 5 -6z m82 -3 c0 -5 -4 -10 -10 -10 -5 0
-10 5 -10 10 0 6 5 10 10 10 6 0 10 -4 10 -10z m293 -27 c4 -19 2 -33 -3 -33
-6 0 -10 17 -10 37 0 43 5 41 13 -4z m43 -31 c-11 -10 -14 3 -7 38 l6 35 3
-33 c2 -19 1 -36 -2 -40z m64 39 c0 -16 6 -32 13 -34 6 -3 -4 -5 -23 -5 -19 0
-27 2 -17 5 20 5 24 49 5 56 -8 3 -6 6 5 6 12 1 17 -7 17 -28z m96 -6 c1 -30
1 -30 -3 -2 -6 38 -36 32 -44 -8 -7 -30 -7 -30 -8 6 -1 33 1 36 27 35 23 -1
27 -5 28 -31z m62 28 c-24 -6 -23 -19 3 -26 30 -8 18 -32 -17 -34 l-29 -2 30
8 c30 7 30 7 8 19 -13 7 -23 19 -23 27 0 9 9 15 23 14 16 -1 18 -2 5 -6z m497
-28 c0 -25 -4 -30 -25 -30 -16 0 -26 6 -28 18 -6 30 6 49 30 45 18 -2 23 -9
23 -33z m63 28 c-24 -6 -23 -19 3 -26 30 -8 18 -32 -17 -34 l-29 -2 30 8 c30
7 30 7 8 19 -13 7 -23 19 -23 27 0 9 9 15 23 14 16 -1 18 -2 5 -6z m80 0 c-24
-6 -23 -19 3 -26 30 -8 18 -32 -17 -34 l-29 -2 30 8 c30 7 30 7 8 19 -13 7
-23 19 -23 27 0 9 9 15 23 14 16 -1 18 -2 5 -6z m100 -15 c3 -14 -3 -18 -24
-18 -30 0 -23 -14 11 -23 12 -3 8 -5 -10 -4 -31 2 -43 23 -31 53 8 21 50 14
54 -8z m60 15 c-24 -6 -23 -19 3 -26 30 -8 18 -32 -17 -34 l-29 -2 30 8 c30 7
30 7 8 19 -13 7 -23 19 -23 27 0 9 9 15 23 14 16 -1 18 -2 5 -6z m-2798 -33
c0 -5 -2 -10 -4 -10 -3 0 -8 5 -11 10 -3 6 -1 10 4 10 6 0 11 -4 11 -10z
m1760 0 c0 -5 -2 -10 -4 -10 -3 0 -8 5 -11 10 -3 6 -1 10 4 10 6 0 11 -4 11
-10z m-320 -20 c0 -5 -4 -10 -10 -10 -5 0 -10 5 -10 10 0 6 5 10 10 10 6 0 10
-4 10 -10z m638 -7 c-2 -9 -9 -18 -16 -19 -7 -1 -8 0 -3 2 6 3 7 12 4 20 -3 8
0 14 7 14 6 0 10 -8 8 -17z m802 7 c0 -5 -4 -10 -10 -10 -5 0 -10 5 -10 10 0
6 5 10 10 10 6 0 10 -4 10 -10z m-3205 -105 c16 0 20 -7 21 -35 l2 -35 -5 33
c-6 42 -35 40 -44 -3 -5 -22 -7 -16 -7 25 0 31 3 46 6 35 4 -11 16 -20 27 -20z
m225 2 c0 -16 3 -18 12 -9 22 22 32 12 10 -11 -12 -13 -22 -29 -22 -35 0 -7
-4 -12 -10 -12 -5 0 -10 23 -10 51 0 31 4 48 10 44 6 -3 10 -16 10 -28z m273
26 c-27 -5 -31 -32 -5 -34 16 -1 16 -2 0 -6 -11 -3 -19 -15 -19 -31 l-2 -27
-4 25 c-3 14 -10 28 -17 32 -8 6 -8 8 0 8 7 0 14 9 17 20 3 13 13 20 29 19 23
-2 23 -2 1 -6z m387 -37 c0 -26 5 -46 13 -49 6 -3 -4 -5 -23 -5 -19 0 -27 2
-17 5 20 5 25 78 5 86 -8 3 -6 6 5 6 14 1 17 -7 17 -43z m240 34 c0 -5 -4 -10
-10 -10 -5 0 -10 5 -10 10 0 6 5 10 10 10 6 0 10 -4 10 -10z m238 -26 c0 -25
-3 -33 -9 -23 -11 18 -12 59 0 59 5 0 9 -16 9 -36z m-1428 16 c-9 -6 -14 -21
-12 -45 2 -20 -1 -35 -7 -35 -6 0 -11 18 -11 39 0 22 -5 42 -12 44 -7 3 3 6
22 6 25 1 31 -2 20 -9z m168 -46 c3 -28 1 -31 -25 -30 -35 1 -38 28 -3 37 l25
6 -25 12 -25 11 25 -3 c20 -2 26 -8 28 -33z m78 1 c1 -30 1 -30 -3 -2 -6 38
-36 32 -44 -8 -7 -30 -7 -30 -8 6 -1 33 1 36 27 35 23 -1 27 -5 28 -31z m142
28 c-24 -6 -23 -19 3 -26 30 -8 18 -32 -17 -34 l-29 -2 30 8 c30 7 30 7 8 19
-13 7 -23 19 -23 27 0 9 9 15 23 14 16 -1 18 -2 5 -6z m257 -28 c0 -25 -4 -30
-25 -30 -16 0 -26 6 -28 18 -6 30 6 49 30 45 18 -2 23 -9 23 -33z m83 14 c3
-11 2 -11 -7 1 -13 18 -27 5 -34 -30 -4 -21 -4 -21 -6 7 -1 40 37 59 47 22z
m157 -14 c0 -23 -5 -31 -22 -33 -12 -2 -24 -11 -26 -20 -3 -9 -5 6 -6 34 -1
49 0 51 27 50 23 -1 27 -5 27 -31z m163 -1 c3 -28 1 -31 -25 -30 -35 1 -38 28
-3 37 l25 6 -25 12 -25 11 25 -3 c20 -2 26 -8 28 -33z m42 6 c0 -10 5 -20 11
-22 15 -5 -6 -48 -24 -48 -8 0 -8 3 2 9 13 9 12 32 -6 77 -4 12 -3 15 5 10 7
-4 12 -16 12 -26z m31 3 c-12 -20 -14 -14 -5 12 4 9 9 14 11 11 3 -2 0 -13 -6
-23z m69 -2 c0 -16 6 -32 13 -34 6 -3 -4 -5 -23 -5 -19 0 -27 2 -17 5 20 5 24
49 5 56 -8 3 -6 6 5 6 12 1 17 -7 17 -28z m96 -6 c1 -30 1 -30 -3 -2 -6 38
-36 32 -44 -8 -7 -30 -7 -30 -8 6 -1 33 1 36 27 35 23 -1 27 -5 28 -31z m80
13 c-1 -15 -10 -24 -26 -29 -25 -7 -25 -7 3 -8 37 -1 34 -36 -3 -36 -22 0 -25
5 -26 40 -2 49 1 55 30 55 18 0 23 -5 22 -22z m-1045 -35 c13 -16 12 -17 -3
-4 -10 7 -18 15 -18 17 0 8 8 3 21 -13z m1109 -3 c0 -5 -4 -10 -10 -10 -5 0
-10 5 -10 10 0 6 5 10 10 10 6 0 10 -4 10 -10z m-1283 -287 c13 -31 19 -52 14
-47 -14 15 -51 104 -43 104 4 0 17 -26 29 -57z m653 47 c0 -5 -4 -10 -10 -10
-5 0 -10 5 -10 10 0 6 5 10 10 10 6 0 10 -4 10 -10z m693 -7 c3 -10 12 -36 22
-58 9 -22 12 -35 7 -30 -16 16 -52 105 -43 105 5 0 11 -8 14 -17z m332 -18
c16 0 20 -7 20 -30 0 -25 -4 -30 -27 -33 -28 -3 -28 -2 -27 50 1 31 4 45 7 33
4 -11 16 -20 27 -20z m725 25 c0 -5 -4 -10 -10 -10 -5 0 -10 5 -10 10 0 6 5
10 10 10 6 0 10 -4 10 -10z m720 0 c0 -5 -4 -10 -10 -10 -5 0 -10 5 -10 10 0
6 5 10 10 10 6 0 10 -4 10 -10z m463 -7 c3 -10 12 -36 22 -58 9 -22 12 -35 7
-30 -16 16 -52 105 -43 105 5 0 11 -8 14 -17z m334 -40 c13 -31 19 -52 14 -47
-14 15 -51 104 -43 104 4 0 17 -26 29 -57z m238 22 c16 0 20 -7 20 -30 0 -25
-4 -30 -27 -33 -28 -3 -28 -2 -27 50 1 31 4 45 7 33 4 -11 16 -20 27 -20z
m242 -22 c13 -31 19 -52 14 -47 -14 15 -51 104 -43 104 4 0 17 -26 29 -57z
m318 22 c16 0 20 -7 20 -30 0 -25 -4 -30 -27 -33 -28 -3 -28 -2 -27 50 1 31 4
45 7 33 4 -11 16 -20 27 -20z m725 25 c0 -5 -4 -10 -10 -10 -5 0 -10 5 -10 10
0 6 5 10 10 10 6 0 10 -4 10 -10z m720 0 c0 -5 -4 -10 -10 -10 -5 0 -10 5 -10
10 0 6 5 10 10 10 6 0 10 -4 10 -10z m874 -24 c-15 -31 -15 -36 0 -67 16 -32
16 -33 -1 -17 -20 21 -23 79 -4 102 21 25 22 19 5 -18z m1132 -22 c4 -22 0
-36 -15 -54 l-21 -25 15 30 c19 37 19 43 -1 80 -13 27 -13 28 0 15 9 -8 18
-29 22 -46z m314 46 c0 -5 -4 -10 -10 -10 -5 0 -10 5 -10 10 0 6 5 10 10 10 6
0 10 -4 10 -10z m260 -39 c0 -46 -1 -48 -27 -47 -23 1 -28 6 -28 26 0 16 8 28
23 35 12 5 22 15 22 22 0 7 2 13 5 13 3 0 5 -22 5 -49z m220 39 c0 -5 -4 -10
-10 -10 -5 0 -10 5 -10 10 0 6 5 10 10 10 6 0 10 -4 10 -10z m155 -25 c16 0
20 -7 21 -35 l2 -35 -5 33 c-6 42 -35 40 -44 -3 -5 -22 -7 -16 -7 25 0 31 3
46 6 35 4 -11 16 -20 27 -20z m-9272 18 c-27 -5 -31 -32 -5 -34 16 -1 16 -2 0
-6 -10 -2 -18 -11 -18 -18 0 -7 8 -16 18 -18 13 -4 11 -5 -5 -6 -21 -1 -23 4
-23 44 0 43 1 45 28 44 23 -2 24 -2 5 -6z m257 -12 c5 -11 10 -24 10 -30 0
-16 -30 -41 -51 -41 -16 0 -19 7 -19 45 0 41 2 45 25 45 14 0 29 -8 35 -19z
m53 9 c-30 -12 -29 -18 3 -30 36 -14 29 -45 -11 -46 -29 -2 -29 -2 -2 3 34 5
35 20 2 35 -38 17 -32 49 9 47 20 0 20 -1 -1 -9z m97 -31 c6 -23 9 -44 6 -47
-3 -3 -6 0 -6 6 0 7 -9 12 -20 12 -11 0 -20 -4 -20 -10 0 -5 -4 -10 -9 -10 -6
0 -3 20 6 45 8 25 19 45 24 45 4 0 13 -18 19 -41z m165 11 c0 -18 -6 -26 -22
-28 -12 -2 -24 -11 -26 -20 -3 -9 -5 5 -6 31 -1 47 0 48 27 45 21 -2 27 -8 27
-28z m470 7 c18 -4 18 -5 -2 -6 -16 -1 -23 -7 -23 -21 0 -12 10 -24 23 -30
l22 -9 -22 0 c-17 -1 -25 7 -31 32 -9 33 -4 67 7 49 3 -5 15 -12 26 -15z m235
14 c-35 -10 -41 -57 -8 -70 13 -6 18 -10 11 -10 -27 -2 -43 13 -43 38 0 33 17
51 45 50 17 -1 16 -2 -5 -8z m304 -7 c4 -9 4 -19 1 -22 -3 -3 -6 1 -6 9 -1 8
-5 -4 -9 -26 l-7 -40 -2 48 c-1 46 11 63 23 31z m31 -72 c-7 -7 -25 17 -25 33
0 6 5 3 10 -5 7 -11 10 -5 12 25 l1 40 4 -44 c3 -23 1 -46 -2 -49z m565 80 c0
-5 -10 -8 -22 -8 -19 1 -23 -4 -23 -29 0 -20 5 -31 18 -33 20 -4 24 24 5 31
-8 3 -6 6 5 6 12 1 17 -7 17 -25 0 -22 -4 -25 -27 -22 -22 2 -29 9 -31 31 -2
16 2 35 9 43 12 15 49 20 49 6z m720 0 c0 -5 -10 -8 -22 -8 -19 1 -23 -4 -23
-29 0 -20 5 -31 18 -33 20 -4 24 24 5 31 -8 3 -6 6 5 6 12 1 17 -7 17 -25 0
-22 -4 -25 -27 -22 -22 2 -29 9 -31 31 -2 16 2 35 9 43 12 15 49 20 49 6z
m620 -1 c-35 -10 -41 -57 -8 -70 13 -6 18 -10 11 -10 -27 -2 -43 13 -43 38 0
33 17 51 45 50 17 -1 16 -2 -5 -8z m398 2 c-24 -6 -23 -19 3 -26 31 -8 22 -52
-11 -52 -20 0 -26 6 -28 28 -4 32 13 58 37 56 13 -1 13 -2 -1 -6z m94 -28 c2
-19 0 -41 -4 -48 -6 -9 -8 -9 -8 0 0 6 -11 13 -25 15 l-24 3 20 33 c27 41 36
40 41 -3z m166 -4 c4 -35 -9 -51 -40 -51 -15 0 -18 9 -18 46 0 44 1 45 28 42
23 -3 28 -8 30 -37z m446 23 c4 -9 4 -19 1 -22 -3 -3 -6 1 -6 9 -1 8 -5 -4 -9
-26 l-7 -40 -2 48 c-1 46 11 63 23 31z m31 -72 c-7 -7 -25 17 -25 33 0 6 5 3
10 -5 7 -11 10 -5 12 25 l1 40 4 -44 c3 -23 1 -46 -2 -49z m565 80 c0 -5 -10
-8 -22 -8 -19 1 -23 -4 -23 -29 0 -20 5 -31 18 -33 20 -4 24 24 5 31 -8 3 -6
6 5 6 12 1 17 -7 17 -25 0 -22 -4 -25 -27 -22 -22 2 -29 9 -31 31 -2 16 2 35
9 43 12 15 49 20 49 6z m720 0 c0 -5 -10 -8 -22 -8 -19 1 -23 -4 -23 -29 0
-20 5 -31 18 -33 20 -4 24 24 5 31 -8 3 -6 6 5 6 12 1 17 -7 17 -25 0 -22 -4
-25 -27 -22 -22 2 -29 9 -31 31 -2 16 2 35 9 43 12 15 49 20 49 6z m620 -1
c-35 -10 -41 -57 -8 -70 13 -6 18 -10 11 -10 -27 -2 -43 13 -43 38 0 33 17 51
45 50 17 -1 16 -2 -5 -8z m1364 -18 c0 -13 3 -23 8 -23 4 0 8 -7 8 -15 0 -15
-46 -32 -57 -21 -4 3 3 6 15 6 28 0 37 16 15 29 -10 6 -12 11 -5 11 21 0 13
28 -10 33 -20 5 -20 5 2 4 19 -2 25 -7 24 -24z m96 22 c0 -10 -40 -85 -45 -85
-3 0 1 13 10 30 20 39 19 48 -7 53 -17 3 -14 5 10 6 17 0 32 -1 32 -4z m68
-18 c2 -10 -4 -27 -13 -37 -16 -17 -15 -19 7 -23 17 -3 15 -5 -10 -6 l-33 -1
20 26 c27 35 28 58 1 51 -11 -3 -17 -1 -14 4 9 16 38 6 42 -14z m78 11 c5 -7
9 -26 9 -43 0 -26 -4 -30 -30 -32 -25 -2 -26 -1 -7 5 28 8 30 24 5 33 -17 7
-17 8 0 8 25 1 21 29 -5 34 -22 4 -22 4 -2 6 12 0 26 -5 30 -11z m72 5 c-24
-6 -23 -19 3 -26 31 -8 22 -52 -11 -52 -20 0 -26 6 -28 28 -4 32 13 58 37 56
13 -1 13 -2 -1 -6z m487 -16 c18 -4 18 -5 -2 -6 -16 -1 -23 -7 -23 -21 0 -12
10 -24 23 -30 l22 -9 -22 0 c-17 -1 -25 7 -31 32 -9 33 -4 67 7 49 3 -5 15
-12 26 -15z m480 0 c18 -4 18 -5 -2 -6 -16 -1 -23 -7 -23 -21 0 -12 10 -24 23
-30 l22 -9 -22 0 c-17 -1 -25 7 -31 32 -9 33 -4 67 7 49 3 -5 15 -12 26 -15z
m-9125 -7 c0 -5 -4 -10 -10 -10 -5 0 -10 5 -10 10 0 6 5 10 10 10 6 0 10 -4
10 -10z m577 -10 c4 -13 3 -13 -6 0 -13 18 -27 5 -34 -30 -3 -19 -5 -16 -6 11
-1 31 2 36 21 35 12 0 23 -8 25 -16z m78 -15 c0 -25 -4 -30 -25 -30 -16 0 -26
6 -28 18 -6 30 6 49 30 45 18 -2 23 -9 23 -33z m73 -12 c-3 -43 -6 -48 -28
-50 -25 -3 -25 -3 -2 7 17 7 22 18 22 44 0 28 -4 35 -22 39 -19 4 -19 4 5 6
27 1 28 0 25 -46z m90 25 c3 -14 -3 -18 -24 -18 -30 0 -23 -14 11 -23 12 -3 8
-5 -10 -4 -31 2 -43 23 -31 53 8 21 50 14 54 -8z m62 13 c-14 -4 -25 -12 -24
-19 2 -26 4 -31 17 -35 8 -3 7 -4 -2 -3 -8 1 -19 8 -24 18 -14 21 7 48 37 47
19 -1 18 -2 -4 -8z m158 2 c-24 -6 -23 -19 3 -26 30 -8 18 -32 -17 -34 l-29
-2 30 8 c30 7 30 7 8 19 -13 7 -23 19 -23 27 0 9 9 15 23 14 16 -1 18 -2 5 -6z
m242 -8 c0 -8 6 -15 13 -15 6 0 4 -5 -6 -11 -9 -6 -15 -14 -12 -20 4 -5 1 -9
-4 -9 -6 0 -11 7 -11 15 0 8 -6 15 -12 16 -10 0 -10 2 0 6 6 2 12 11 12 19 0
8 5 14 10 14 6 0 10 -7 10 -15z m88 -15 c15 -1 15 -2 -1 -11 -9 -6 -15 -14
-12 -20 4 -5 1 -9 -4 -9 -6 0 -11 7 -11 15 0 8 -6 15 -12 16 -10 0 -10 2 0 6
6 2 13 12 13 21 1 15 2 15 6 0 2 -10 12 -18 21 -18z m222 -25 c8 0 18 13 21
30 7 30 7 30 8 -6 1 -33 -1 -36 -26 -35 -25 1 -28 5 -30 36 -1 34 -1 34 5 5 4
-17 14 -30 22 -30z m112 19 c2 -19 0 -34 -4 -34 -4 0 -9 15 -9 33 l-2 32 -7
-35 c-6 -31 -8 -32 -9 -8 -2 39 -19 44 -24 6 l-4 -33 -1 37 c-2 34 0 37 27 36
25 -1 30 -5 33 -34z m156 14 c3 -14 -3 -18 -24 -18 -30 0 -23 -14 11 -23 12
-3 8 -5 -10 -4 -31 2 -43 23 -31 53 8 21 50 14 54 -8z m79 2 c4 -13 3 -13 -6
0 -13 18 -27 5 -34 -30 -3 -19 -5 -16 -6 11 -1 31 2 36 21 35 12 0 23 -8 25
-16z m213 -35 c8 0 18 13 21 30 7 30 7 30 8 -6 1 -33 -1 -36 -26 -35 -25 1
-28 5 -30 36 -1 34 -1 34 5 5 4 -17 14 -30 22 -30z m108 33 c3 -14 -3 -18 -24
-18 -30 0 -23 -14 11 -23 12 -3 8 -5 -10 -4 -31 2 -43 23 -31 53 8 21 50 14
54 -8z m60 15 c-24 -6 -23 -19 3 -26 30 -8 18 -32 -17 -34 l-29 -2 30 8 c30 7
30 7 8 19 -13 7 -23 19 -23 27 0 9 9 15 23 14 16 -1 18 -2 5 -6z m80 0 c-24
-6 -23 -19 3 -26 30 -8 18 -32 -17 -34 l-29 -2 30 8 c30 7 30 7 8 19 -13 7
-23 19 -23 27 0 9 9 15 23 14 16 -1 18 -2 5 -6z m82 -22 c0 -16 6 -32 13 -34
6 -3 -4 -5 -23 -5 -19 0 -27 2 -17 5 20 5 24 49 5 56 -8 3 -6 6 5 6 12 1 17
-7 17 -28z m96 -6 c1 -30 1 -30 -3 -2 -6 38 -36 32 -44 -8 -7 -30 -7 -30 -8 6
-1 33 1 36 27 35 23 -1 27 -5 28 -31z m84 23 c0 -20 -13 -35 -35 -41 -15 -3
-13 -5 8 -6 37 -1 34 -36 -3 -36 -21 0 -25 5 -27 35 -4 48 2 60 32 60 14 0 25
-6 25 -12z m238 -24 c3 -28 1 -31 -25 -30 -35 1 -38 28 -3 37 l25 6 -25 12
-25 11 25 -3 c20 -2 26 -8 28 -33z m84 0 c2 -19 0 -34 -4 -34 -4 0 -9 15 -9
33 l-2 32 -7 -35 c-6 -31 -8 -32 -9 -8 -2 39 -19 44 -24 6 l-4 -33 -1 37 c-2
34 0 37 27 36 25 -1 30 -5 33 -34z m76 14 c3 -14 -3 -18 -24 -18 -30 0 -23
-14 11 -23 12 -3 8 -5 -10 -4 -31 2 -43 23 -31 53 8 21 50 14 54 -8z m142 -7
c0 -16 6 -32 13 -34 6 -3 -4 -5 -23 -5 -19 0 -27 2 -17 5 20 5 24 49 5 56 -8
3 -6 6 5 6 12 1 17 -7 17 -28z m96 -6 c1 -30 1 -30 -3 -2 -6 38 -36 32 -44 -8
-7 -30 -7 -30 -8 6 -1 33 1 36 27 35 23 -1 27 -5 28 -31z m224 20 c0 -8 6 -15
13 -15 6 0 4 -5 -6 -11 -9 -6 -15 -14 -12 -20 4 -5 1 -9 -4 -9 -6 0 -11 7 -11
15 0 8 -6 15 -12 16 -10 0 -10 2 0 6 6 2 12 11 12 19 0 8 5 14 10 14 6 0 10
-7 10 -15z m88 -15 c15 -1 15 -2 -1 -11 -9 -6 -15 -14 -12 -20 4 -5 1 -9 -4
-9 -6 0 -11 7 -11 15 0 8 -6 15 -12 16 -10 0 -10 2 0 6 6 2 13 12 13 21 1 15
2 15 6 0 2 -10 12 -18 21 -18z m136 18 c5 -10 7 -10 12 0 3 6 10 12 16 12 7 0
6 -5 -1 -14 -9 -11 -10 -20 -1 -38 10 -20 9 -21 -3 -6 -13 16 -15 16 -32 0
-18 -16 -18 -16 -5 1 11 15 11 23 2 38 -7 10 -8 19 -3 19 5 0 12 -6 15 -12z
m434 -10 c3 -14 -3 -18 -24 -18 -30 0 -23 -14 11 -23 12 -3 8 -5 -10 -4 -31 2
-43 23 -31 53 8 21 50 14 54 -8z m132 -33 c8 0 18 13 21 30 7 30 7 30 8 -6 1
-33 -1 -36 -26 -35 -25 1 -28 5 -30 36 -1 34 -1 34 5 5 4 -17 14 -30 22 -30z
m105 38 c-2 -10 -4 -21 -4 -25 -1 -4 -11 -9 -23 -11 -19 -4 -18 -5 5 -6 37 -1
34 -36 -3 -36 -21 0 -25 5 -27 35 -4 48 2 60 31 60 18 0 23 -5 21 -17z m215
-38 c8 0 18 13 21 30 7 30 7 30 8 -6 1 -33 -1 -36 -26 -35 -25 1 -28 5 -30 36
-1 34 -1 34 5 5 4 -17 14 -30 22 -30z m112 19 c2 -19 0 -34 -4 -34 -4 0 -9 15
-9 33 l-2 32 -7 -35 c-6 -31 -8 -32 -9 -8 -2 39 -19 44 -24 6 l-4 -33 -1 37
c-2 34 0 37 27 36 25 -1 30 -5 33 -34z m156 14 c3 -14 -3 -18 -24 -18 -30 0
-23 -14 11 -23 12 -3 8 -5 -10 -4 -31 2 -43 23 -31 53 8 21 50 14 54 -8z m79
2 c4 -13 3 -13 -6 0 -13 18 -27 5 -34 -30 -3 -19 -5 -16 -6 11 -1 31 2 36 21
35 12 0 23 -8 25 -16z m213 -35 c8 0 18 13 21 30 7 30 7 30 8 -6 1 -33 -1 -36
-26 -35 -25 1 -28 5 -30 36 -1 34 -1 34 5 5 4 -17 14 -30 22 -30z m108 33 c3
-14 -3 -18 -24 -18 -30 0 -23 -14 11 -23 12 -3 8 -5 -10 -4 -31 2 -43 23 -31
53 8 21 50 14 54 -8z m60 15 c-24 -6 -23 -19 3 -26 30 -8 18 -32 -17 -34 l-29
-2 30 8 c30 7 30 7 8 19 -13 7 -23 19 -23 27 0 9 9 15 23 14 16 -1 18 -2 5 -6z
m80 0 c-24 -6 -23 -19 3 -26 30 -8 18 -32 -17 -34 l-29 -2 30 8 c30 7 30 7 8
19 -13 7 -23 19 -23 27 0 9 9 15 23 14 16 -1 18 -2 5 -6z m82 -22 c0 -16 6
-32 13 -34 6 -3 -4 -5 -23 -5 -19 0 -27 2 -17 5 20 5 24 49 5 56 -8 3 -6 6 5
6 12 1 17 -7 17 -28z m96 -6 c1 -30 1 -30 -3 -2 -6 38 -36 32 -44 -8 -7 -30
-7 -30 -8 6 -1 33 1 36 27 35 23 -1 27 -5 28 -31z m84 23 c0 -20 -13 -35 -35
-41 -15 -3 -13 -5 8 -6 37 -1 34 -36 -3 -36 -21 0 -25 5 -27 35 -4 48 2 60 32
60 14 0 25 -6 25 -12z m238 -24 c3 -28 1 -31 -25 -30 -35 1 -38 28 -3 37 l25
6 -25 12 -25 11 25 -3 c20 -2 26 -8 28 -33z m84 0 c2 -19 0 -34 -4 -34 -4 0
-9 15 -9 33 l-2 32 -7 -35 c-6 -31 -8 -32 -9 -8 -2 39 -19 44 -24 6 l-4 -33
-1 37 c-2 34 0 37 27 36 25 -1 30 -5 33 -34z m76 14 c3 -14 -3 -18 -24 -18
-30 0 -23 -14 11 -23 12 -3 8 -5 -10 -4 -31 2 -43 23 -31 53 8 21 50 14 54 -8z
m142 -7 c0 -16 6 -32 13 -34 6 -3 -4 -5 -23 -5 -19 0 -27 2 -17 5 20 5 24 49
5 56 -8 3 -6 6 5 6 12 1 17 -7 17 -28z m96 -6 c1 -30 1 -30 -3 -2 -6 38 -36
32 -44 -8 -7 -30 -7 -30 -8 6 -1 33 1 36 27 35 23 -1 27 -5 28 -31z m224 20
c0 -8 6 -15 13 -15 6 0 4 -5 -6 -11 -9 -6 -15 -14 -12 -20 4 -5 1 -9 -4 -9 -6
0 -11 7 -11 15 0 8 -6 15 -12 16 -10 0 -10 2 0 6 6 2 12 11 12 19 0 8 5 14 10
14 6 0 10 -7 10 -15z m88 -15 c15 -1 15 -2 -1 -11 -9 -6 -15 -14 -12 -20 4 -5
1 -9 -4 -9 -6 0 -11 7 -11 15 0 8 -6 15 -12 16 -10 0 -10 2 0 6 6 2 13 12 13
21 1 15 2 15 6 0 2 -10 12 -18 21 -18z m170 8 c3 -14 -3 -18 -24 -18 -30 0
-23 -14 11 -23 12 -3 8 -5 -10 -4 -31 2 -43 23 -31 53 8 21 50 14 54 -8z m46
10 c5 -10 7 -10 12 0 3 6 10 12 16 12 7 0 6 -5 -1 -14 -10 -11 -10 -20 0 -38
11 -21 11 -22 -4 -9 -14 11 -20 11 -34 0 -17 -13 -17 -12 -4 4 12 15 12 23 3
38 -7 10 -8 19 -3 19 5 0 12 -6 15 -12z m114 -10 c3 -14 -3 -18 -24 -18 -30 0
-23 -14 11 -23 12 -3 8 -5 -10 -4 -31 2 -43 23 -31 53 8 21 50 14 54 -8z m237
-13 c0 -23 -5 -31 -22 -33 -12 -2 -24 -11 -26 -20 -3 -9 -5 6 -6 34 -1 49 0
51 27 50 23 -1 27 -5 27 -31z m83 14 c3 -11 2 -11 -7 1 -13 18 -27 5 -34 -30
-4 -21 -4 -21 -6 7 -1 40 37 59 47 22z m77 -14 c0 -25 -4 -30 -25 -30 -16 0
-26 6 -28 18 -6 30 6 49 30 45 18 -2 23 -9 23 -33z m70 28 c-34 -9 -42 -46
-12 -56 7 -2 6 -3 -2 -3 -8 1 -19 8 -24 18 -14 21 7 48 37 47 20 -1 20 -2 1
-6z m93 -15 c3 -14 -3 -18 -24 -18 -30 0 -23 -14 11 -23 12 -3 8 -5 -10 -4
-31 2 -43 23 -31 53 8 21 50 14 54 -8z m60 15 c-24 -6 -23 -19 3 -26 30 -8 18
-32 -17 -34 l-29 -2 30 8 c30 7 30 7 8 19 -13 7 -23 19 -23 27 0 9 9 15 23 14
16 -1 18 -2 5 -6z m80 0 c-24 -6 -23 -19 3 -26 30 -8 18 -32 -17 -34 l-29 -2
30 8 c30 7 30 7 8 19 -13 7 -23 19 -23 27 0 9 9 15 23 14 16 -1 18 -2 5 -6z
m740 -15 c3 -14 -3 -18 -24 -18 -30 0 -23 -14 11 -23 12 -3 8 -5 -10 -4 -31 2
-43 23 -31 53 8 21 50 14 54 -8z m46 10 c5 -10 7 -10 12 0 3 6 10 12 16 12 7
0 6 -5 -1 -14 -10 -11 -10 -20 0 -38 11 -21 11 -22 -4 -9 -14 11 -20 11 -34 0
-17 -13 -17 -12 -4 4 12 15 12 23 3 38 -7 10 -8 19 -3 19 5 0 12 -6 15 -12z
m96 -17 c0 -16 6 -32 13 -34 6 -3 -4 -5 -23 -5 -19 0 -27 2 -17 5 20 5 24 49
5 56 -8 3 -6 6 5 6 12 1 17 -7 17 -28z m178 7 c3 -14 -3 -18 -24 -18 -30 0
-23 -14 11 -23 12 -3 8 -5 -10 -4 -31 2 -43 23 -31 53 8 21 50 14 54 -8z m195
-15 c4 -19 2 -33 -3 -33 -6 0 -10 17 -10 37 0 43 5 41 13 -4z m43 -31 c-11
-10 -14 3 -7 38 l6 35 3 -33 c2 -19 1 -36 -2 -40z m64 39 c0 -16 6 -32 13 -34
6 -3 -4 -5 -23 -5 -19 0 -27 2 -17 5 20 5 24 49 5 56 -8 3 -6 6 5 6 12 1 17
-7 17 -28z m325 22 c-38 -10 -45 -39 -12 -53 17 -8 18 -9 3 -7 -10 1 -24 9
-29 19 -14 21 7 48 37 47 20 -1 20 -2 1 -6z m90 -28 c0 -25 -4 -30 -25 -30
-16 0 -26 6 -28 18 -6 30 6 49 30 45 18 -2 23 -9 23 -33z m-495 -5 c0 -5 -2
-10 -4 -10 -3 0 -8 5 -11 10 -3 6 -1 10 4 10 6 0 11 -4 11 -10z m-8960 -20 c0
-5 -4 -10 -10 -10 -5 0 -10 5 -10 10 0 6 5 10 10 10 6 0 10 -4 10 -10z m6720
0 c0 -5 -4 -10 -10 -10 -5 0 -10 5 -10 10 0 6 5 10 10 10 6 0 10 -4 10 -10z
m-6780 -119 c0 -46 -1 -48 -27 -47 -24 1 -28 5 -28 31 0 23 5 31 23 33 12 2
22 10 22 18 0 8 2 14 5 14 3 0 5 -22 5 -49z m235 -6 c0 -36 -2 -40 -25 -40
-20 0 -26 6 -28 28 -5 42 5 59 30 55 20 -3 23 -9 23 -43z m-157 3 c3 -14 -3
-18 -24 -18 -30 0 -23 -14 11 -23 12 -3 8 -5 -10 -4 -31 2 -43 23 -31 53 8 21
50 14 54 -8z m222 -38 c0 -5 -4 -10 -10 -10 -5 0 -10 5 -10 10 0 6 5 10 10 10
6 0 10 -4 10 -10z m460 -96 c0 -23 2 -25 15 -14 9 7 18 11 20 8 3 -3 -1 -11
-10 -18 -14 -12 -14 -15 2 -34 18 -21 18 -21 -3 -3 -25 21 -38 22 -30 2 3 -8
1 -15 -4 -15 -6 0 -10 23 -10 50 0 28 5 50 10 50 6 0 10 -12 10 -26z m660 -18
c0 -26 5 -46 13 -49 6 -3 -4 -5 -23 -5 -19 0 -27 2 -17 5 20 5 25 78 5 86 -8
3 -6 6 5 6 14 1 17 -7 17 -43z m475 9 c16 0 20 -7 21 -35 l2 -35 -5 33 c-6 42
-35 40 -44 -3 -5 -22 -7 -16 -7 25 0 31 3 46 6 35 4 -11 16 -20 27 -20z m85
25 c0 -5 -4 -10 -10 -10 -5 0 -10 5 -10 10 0 6 5 10 10 10 6 0 10 -4 10 -10z
m320 0 c0 -5 -4 -10 -10 -10 -5 0 -10 5 -10 10 0 6 5 10 10 10 6 0 10 -4 10
-10z m180 -39 c0 -46 -1 -48 -27 -47 -23 1 -28 6 -28 26 0 16 8 28 23 35 12 5
22 15 22 22 0 7 2 13 5 13 3 0 5 -22 5 -49z m-2485 9 c0 -18 -6 -26 -22 -28
-12 -2 -24 -11 -26 -20 -3 -9 -5 5 -6 31 -1 47 0 48 27 45 21 -2 27 -8 27 -28z
m1110 7 c18 -4 18 -5 -2 -6 -16 -1 -23 -7 -23 -21 0 -12 10 -24 23 -30 l22 -9
-22 0 c-17 -1 -25 7 -31 32 -9 33 -4 67 7 49 3 -5 15 -12 26 -15z m718 2 c15
0 17 -2 7 -6 -34 -13 -38 -40 -7 -53 l22 -9 -22 0 c-17 -1 -25 7 -31 32 -8 31
-3 76 6 49 2 -7 13 -12 25 -13z m-1745 -20 c3 -11 2 -11 -7 1 -13 18 -27 5
-34 -30 -4 -21 -4 -21 -6 7 -1 40 37 59 47 22z m80 -1 c3 -14 -3 -18 -24 -18
-30 0 -23 -14 11 -23 12 -3 8 -5 -10 -4 -31 2 -43 23 -31 53 8 21 50 14 54 -8z
m60 15 c-24 -6 -23 -19 3 -26 30 -8 18 -32 -17 -34 l-29 -2 30 8 c30 7 30 7 8
19 -13 7 -23 19 -23 27 0 9 9 15 23 14 16 -1 18 -2 5 -6z m80 0 c-24 -6 -23
-19 3 -26 30 -8 18 -32 -17 -34 l-29 -2 30 8 c30 7 30 7 8 19 -13 7 -23 19
-23 27 0 9 9 15 23 14 16 -1 18 -2 5 -6z m180 -29 c3 -28 1 -31 -25 -30 -35 1
-38 28 -3 37 l25 6 -25 12 -25 11 25 -3 c20 -2 26 -8 28 -33z m78 1 c1 -30 1
-30 -3 -2 -6 38 -36 32 -44 -8 -7 -30 -7 -30 -8 6 -1 33 1 36 27 35 23 -1 27
-5 28 -31z m48 4 c16 -33 8 -69 -17 -69 -8 0 -8 3 2 9 13 8 12 32 -5 75 -11
28 4 17 20 -15z m27 4 c-12 -20 -14 -14 -5 12 4 9 9 14 11 11 3 -2 0 -13 -6
-23z m247 5 c3 -14 -3 -18 -24 -18 -30 0 -23 -14 11 -23 12 -3 8 -5 -10 -4
-31 2 -43 23 -31 53 8 21 50 14 54 -8z m46 -9 c16 -33 8 -69 -17 -69 -8 0 -8
3 2 9 13 8 12 32 -5 75 -11 28 4 17 20 -15z m27 4 c-12 -20 -14 -14 -5 12 4 9
9 14 11 11 3 -2 0 -13 -6 -23z m244 -8 c0 -25 -4 -30 -25 -30 -16 0 -26 6 -28
18 -6 30 6 49 30 45 18 -2 23 -9 23 -33z m145 28 c-34 -13 -38 -40 -7 -53 17
-8 18 -9 3 -7 -28 3 -43 32 -27 51 8 9 21 16 30 15 13 0 14 -2 1 -6z m175 -28
c0 -25 -4 -30 -25 -30 -16 0 -26 6 -28 18 -6 30 6 49 30 45 18 -2 23 -9 23
-33z m63 28 c-24 -6 -23 -19 3 -26 30 -8 18 -32 -17 -34 l-29 -2 30 8 c30 7
30 7 8 19 -13 7 -23 19 -23 27 0 9 9 15 23 14 16 -1 18 -2 5 -6z m100 -15 c3
-14 -3 -18 -24 -18 -30 0 -23 -14 11 -23 12 -3 8 -5 -10 -4 -31 2 -43 23 -31
53 8 21 50 14 54 -8z m302 -7 c0 -16 6 -32 13 -34 6 -3 -4 -5 -23 -5 -19 0
-27 2 -17 5 20 5 24 49 5 56 -8 3 -6 6 5 6 12 1 17 -7 17 -28z m78 22 c-24 -6
-23 -19 3 -26 30 -8 18 -32 -17 -34 l-29 -2 30 8 c30 7 30 7 8 19 -13 7 -23
19 -23 27 0 9 9 15 23 14 16 -1 18 -2 5 -6z m135 -30 c4 -19 2 -33 -3 -33 -6
0 -10 17 -10 37 0 43 5 41 13 -4z m43 -31 c-11 -10 -14 3 -7 38 l6 35 3 -33
c2 -19 1 -36 -2 -40z m64 39 c0 -16 6 -32 13 -34 6 -3 -4 -5 -23 -5 -19 0 -27
2 -17 5 20 5 24 49 5 56 -8 3 -6 6 5 6 12 1 17 -7 17 -28z m96 -6 c1 -30 1
-30 -3 -2 -6 38 -36 32 -44 -8 -7 -30 -7 -30 -8 6 -1 33 1 36 27 35 23 -1 27
-5 28 -31z m159 0 c0 -25 -4 -30 -25 -30 -16 0 -26 6 -28 18 -6 30 6 49 30 45
18 -2 23 -9 23 -33z m38 -2 c4 -19 2 -33 -3 -33 -6 0 -10 17 -10 37 0 43 5 41
13 -4z m43 -31 c-11 -10 -14 3 -7 38 l6 35 3 -33 c2 -19 1 -36 -2 -40z m-416
32 c0 -8 -5 -12 -10 -9 -6 4 -8 11 -5 16 9 14 15 11 15 -7z m400 0 c0 -8 -5
-12 -10 -9 -6 4 -8 11 -5 16 9 14 15 11 15 -7z m160 -24 c0 -5 -4 -10 -10 -10
-5 0 -10 5 -10 10 0 6 5 10 10 10 6 0 10 -4 10 -10z m160 0 c0 -5 -4 -10 -10
-10 -5 0 -10 5 -10 10 0 6 5 10 10 10 6 0 10 -4 10 -10z m160 0 c0 -5 -4 -10
-10 -10 -5 0 -10 5 -10 10 0 6 5 10 10 10 6 0 10 -4 10 -10z"/>
<path d="M100 4675 l0 -45 70 0 70 0 0 45 0 45 -70 0 -70 0 0 -45z m43 18 c-7
-2 -13 -11 -13 -18 0 -7 6 -16 13 -18 9 -4 9 -6 0 -6 -6 -1 -15 4 -18 9 -9 15
2 40 17 39 10 0 10 -2 1 -6z m77 -37 c0 -6 -7 -1 -15 10 -8 10 -15 23 -15 28
0 6 7 1 15 -10 8 -10 15 -23 15 -28z"/>
<path d="M9050 4680 l0 -40 40 0 40 0 0 40 0 40 -40 0 -40 0 0 -40z"/>
<path d="M1370 4660 c0 -13 5 -20 13 -17 6 2 12 10 12 17 0 7 -6 15 -12 18 -8
2 -13 -5 -13 -18z"/>
<path d="M1570 4675 c0 -29 3 -36 18 -33 11 2 17 13 17 33 0 20 -6 31 -17 33
-15 3 -18 -4 -18 -33z"/>
<path d="M1715 4670 c-7 -12 2 -30 16 -30 5 0 9 9 9 20 0 21 -15 27 -25 10z"/>
<path d="M560 4660 c0 -11 7 -20 15 -20 8 0 15 9 15 20 0 11 -7 20 -15 20 -8
0 -15 -9 -15 -20z"/>
<path d="M680 4660 c0 -11 7 -20 15 -20 8 0 15 9 15 20 0 11 -7 20 -15 20 -8
0 -15 -9 -15 -20z"/>
<path d="M1080 4650 c0 -5 5 -10 10 -10 6 0 10 5 10 10 0 6 -4 10 -10 10 -5 0
-10 -4 -10 -10z"/>
<path d="M1470 4660 c0 -11 7 -20 15 -20 8 0 15 9 15 20 0 11 -7 20 -15 20 -8
0 -15 -9 -15 -20z"/>
<path d="M1658 4673 c7 -3 16 -2 19 1 4 3 -2 6 -13 5 -11 0 -14 -3 -6 -6z"/>
<path d="M1850 4660 c0 -13 5 -20 13 -17 6 2 12 10 12 17 0 7 -6 15 -12 18 -8
2 -13 -5 -13 -18z"/>
<path d="M2030 4660 c0 -11 7 -20 15 -20 8 0 15 9 15 20 0 11 -7 20 -15 20 -8
0 -15 -9 -15 -20z"/>
<path d="M2220 4660 c0 -11 7 -20 15 -20 8 0 15 9 15 20 0 11 -7 20 -15 20 -8
0 -15 -9 -15 -20z"/>
<path d="M2328 4673 c7 -3 16 -2 19 1 4 3 -2 6 -13 5 -11 0 -14 -3 -6 -6z"/>
<path d="M1477 4443 c-4 -3 -7 -15 -7 -25 0 -28 34 -19 38 10 3 21 -16 31 -31
15z"/>
<path d="M115 4440 c-3 -5 3 -10 15 -10 12 0 18 5 15 10 -3 6 -10 10 -15 10
-5 0 -12 -4 -15 -10z"/>
<path d="M352 4428 c2 -13 10 -23 18 -23 8 0 16 10 18 23 3 17 -2 22 -18 22
-16 0 -21 -5 -18 -22z"/>
<path d="M515 4440 c-3 -5 3 -10 15 -10 12 0 18 5 15 10 -3 6 -10 10 -15 10
-5 0 -12 -4 -15 -10z"/>
<path d="M757 4443 c-4 -3 -7 -15 -7 -25 0 -28 34 -19 38 10 3 21 -16 31 -31
15z"/>
<path d="M1075 4440 c-3 -5 3 -10 15 -10 12 0 18 5 15 10 -3 6 -10 10 -15 10
-5 0 -12 -4 -15 -10z"/>
<path d="M1555 4440 c-3 -5 3 -10 15 -10 12 0 18 5 15 10 -3 6 -10 10 -15 10
-5 0 -12 -4 -15 -10z"/>
<path d="M1955 4440 c-3 -5 3 -10 15 -10 12 0 18 5 15 10 -3 6 -10 10 -15 10
-5 0 -12 -4 -15 -10z"/>
<path d="M2355 4441 c-7 -12 12 -24 25 -16 11 7 4 25 -10 25 -5 0 -11 -4 -15
-9z"/>
<path d="M2350 4380 c0 -5 9 -10 20 -10 11 0 20 5 20 10 0 6 -9 10 -20 10 -11
0 -20 -4 -20 -10z"/>
<path d="M2595 4410 c-3 -5 1 -10 9 -10 8 0 18 5 21 10 3 6 -1 10 -9 10 -8 0
-18 -4 -21 -10z"/>
<path d="M2755 4440 c-3 -5 3 -10 15 -10 12 0 18 5 15 10 -3 6 -10 10 -15 10
-5 0 -12 -4 -15 -10z"/>
<path d="M1797 4283 c-4 -3 -7 -15 -7 -25 0 -28 34 -19 38 10 3 21 -16 31 -31
15z"/>
<path d="M2197 4283 c-4 -3 -7 -15 -7 -25 0 -28 34 -19 38 10 3 21 -16 31 -31
15z"/>
<path d="M3873 4274 c-7 -18 11 -39 26 -30 17 11 13 46 -4 46 -9 0 -18 -7 -22
-16z"/>
<path d="M5157 4283 c-4 -3 -7 -15 -7 -25 0 -28 34 -19 38 10 3 21 -16 31 -31
15z"/>
<path d="M110 4264 c0 -33 33 -30 38 4 3 17 -2 22 -17 22 -16 0 -21 -6 -21
-26z"/>
<path d="M835 4250 c-3 -5 1 -10 9 -10 8 0 18 5 21 10 3 6 -1 10 -9 10 -8 0
-18 -4 -21 -10z"/>
<path d="M995 4280 c-3 -5 3 -10 15 -10 12 0 18 5 15 10 -3 6 -10 10 -15 10
-5 0 -12 -4 -15 -10z"/>
<path d="M1155 4250 c-3 -5 1 -10 9 -10 8 0 18 5 21 10 3 6 -1 10 -9 10 -8 0
-18 -4 -21 -10z"/>
<path d="M1715 4280 c-3 -5 3 -10 15 -10 12 0 18 5 15 10 -3 6 -10 10 -15 10
-5 0 -12 -4 -15 -10z"/>
<path d="M2275 4280 c-3 -5 3 -10 15 -10 12 0 18 5 15 10 -3 6 -10 10 -15 10
-5 0 -12 -4 -15 -10z"/>
<path d="M2510 4265 c0 -18 5 -25 20 -25 15 0 20 7 20 25 0 18 -5 25 -20 25
-15 0 -20 -7 -20 -25z"/>
<path d="M2755 4281 c-7 -12 12 -24 25 -16 11 7 4 25 -10 25 -5 0 -11 -4 -15
-9z"/>
<path d="M2750 4220 c0 -5 9 -10 20 -10 11 0 20 5 20 10 0 6 -9 10 -20 10 -11
0 -20 -4 -20 -10z"/>
<path d="M2915 4280 c-3 -5 3 -10 15 -10 12 0 18 5 15 10 -3 6 -10 10 -15 10
-5 0 -12 -4 -15 -10z"/>
<path d="M3155 4280 c-3 -5 3 -10 15 -10 12 0 18 5 15 10 -3 6 -10 10 -15 10
-5 0 -12 -4 -15 -10z"/>
<path d="M3477 4283 c-4 -3 -7 -15 -7 -25 0 -28 34 -19 38 10 3 21 -16 31 -31
15z"/>
<path d="M4195 4280 c-3 -5 3 -10 15 -10 12 0 18 5 15 10 -3 6 -10 10 -15 10
-5 0 -12 -4 -15 -10z"/>
<path d="M4435 4280 c-3 -5 3 -10 15 -10 12 0 18 5 15 10 -3 6 -10 10 -15 10
-5 0 -12 -4 -15 -10z"/>
<path d="M4675 4280 c-3 -5 3 -10 15 -10 12 0 18 5 15 10 -3 6 -10 10 -15 10
-5 0 -12 -4 -15 -10z"/>
<path d="M5235 4280 c-3 -5 3 -10 15 -10 12 0 18 5 15 10 -3 6 -10 10 -15 10
-5 0 -12 -4 -15 -10z"/>
<path d="M1717 3963 c-4 -3 -7 -15 -7 -25 0 -28 34 -19 38 10 3 21 -16 31 -31
15z"/>
<path d="M2037 3963 c-4 -3 -7 -15 -7 -25 0 -28 34 -19 38 10 3 21 -16 31 -31
15z"/>
<path d="M2993 3954 c-7 -18 11 -39 26 -30 17 11 13 46 -4 46 -9 0 -18 -7 -22
-16z"/>
<path d="M3237 3983 c-4 -3 -7 -12 -7 -20 0 -11 4 -11 20 -3 11 6 18 15 15 21
-7 11 -19 12 -28 2z"/>
<path d="M3246 3947 c-14 -10 -16 -16 -7 -22 15 -9 35 8 30 24 -3 8 -10 7 -23
-2z"/>
<path d="M3317 3983 c-4 -3 -7 -12 -7 -20 0 -11 4 -11 20 -3 11 6 18 15 15 21
-7 11 -19 12 -28 2z"/>
<path d="M3326 3947 c-14 -10 -16 -16 -7 -22 15 -9 35 8 30 24 -3 8 -10 7 -23
-2z"/>
<path d="M915 3961 c-7 -12 12 -24 25 -16 11 7 4 25 -10 25 -5 0 -11 -4 -15
-9z"/>
<path d="M910 3900 c0 -5 9 -10 20 -10 11 0 20 5 20 10 0 6 -9 10 -20 10 -11
0 -20 -4 -20 -10z"/>
<path d="M1070 3944 c0 -33 33 -30 38 4 3 17 -2 22 -17 22 -16 0 -21 -6 -21
-26z"/>
<path d="M1315 3930 c-3 -5 1 -10 9 -10 8 0 18 5 21 10 3 6 -1 10 -9 10 -8 0
-18 -4 -21 -10z"/>
<path d="M1795 3960 c-3 -5 3 -10 15 -10 12 0 18 5 15 10 -3 6 -10 10 -15 10
-5 0 -12 -4 -15 -10z"/>
<path d="M2115 3960 c-3 -5 3 -10 15 -10 12 0 18 5 15 10 -3 6 -10 10 -15 10
-5 0 -12 -4 -15 -10z"/>
<path d="M2355 3960 c-3 -5 3 -10 15 -10 12 0 18 5 15 10 -3 6 -10 10 -15 10
-5 0 -12 -4 -15 -10z"/>
<path d="M2435 3960 c-3 -5 3 -10 15 -10 12 0 18 5 15 10 -3 6 -10 10 -15 10
-5 0 -12 -4 -15 -10z"/>
<path d="M2835 3930 c-3 -5 1 -10 9 -10 8 0 18 5 21 10 3 6 -1 10 -9 10 -8 0
-18 -4 -21 -10z"/>
<path d="M3630 3944 c0 -33 33 -30 38 4 3 17 -2 22 -17 22 -16 0 -21 -6 -21
-26z"/>
<path d="M3950 3930 c0 -5 6 -10 14 -10 8 0 18 5 21 10 3 6 -3 10 -14 10 -12
0 -21 -4 -21 -10z"/>
<path d="M4115 3960 c-3 -5 3 -10 15 -10 12 0 18 5 15 10 -3 6 -10 10 -15 10
-5 0 -12 -4 -15 -10z"/>
<path d="M4435 3961 c-7 -12 12 -24 25 -16 11 7 4 25 -10 25 -5 0 -11 -4 -15
-9z"/>
<path d="M4430 3900 c0 -5 9 -10 20 -10 11 0 20 5 20 10 0 6 -9 10 -20 10 -11
0 -20 -4 -20 -10z"/>
<path d="M4595 3960 c-3 -5 3 -10 15 -10 12 0 18 5 15 10 -3 6 -10 10 -15 10
-5 0 -12 -4 -15 -10z"/>
<path d="M4835 3960 c-3 -5 3 -10 15 -10 12 0 18 5 15 10 -3 6 -10 10 -15 10
-5 0 -12 -4 -15 -10z"/>
<path d="M1477 3824 c-14 -14 -7 -35 11 -32 9 2 17 10 17 17 0 16 -18 25 -28
15z"/>
<path d="M1557 3823 c-4 -3 -7 -12 -7 -20 0 -11 4 -11 20 -3 11 6 18 15 15 21
-7 11 -19 12 -28 2z"/>
<path d="M1566 3787 c-14 -10 -16 -16 -7 -22 15 -9 35 8 30 24 -3 8 -10 7 -23
-2z"/>
<path d="M275 3800 c-3 -5 3 -10 15 -10 12 0 18 5 15 10 -3 6 -10 10 -15 10
-5 0 -12 -4 -15 -10z"/>
<path d="M597 3803 c-4 -3 -7 -15 -7 -25 0 -28 34 -19 38 10 3 21 -16 31 -31
15z"/>
<path d="M915 3801 c-7 -12 12 -24 25 -16 11 7 4 25 -10 25 -5 0 -11 -4 -15
-9z"/>
<path d="M910 3740 c0 -5 9 -10 20 -10 11 0 20 5 20 10 0 6 -9 10 -20 10 -11
0 -20 -4 -20 -10z"/>
<path d="M1075 3800 c-3 -5 3 -10 15 -10 12 0 18 5 15 10 -3 6 -10 10 -15 10
-5 0 -12 -4 -15 -10z"/>
<path d="M113 3634 c-7 -18 11 -39 26 -30 17 11 13 46 -4 46 -9 0 -18 -7 -22
-16z"/>
<path d="M192 3628 c2 -13 10 -23 18 -23 8 0 16 10 18 23 3 17 -2 22 -18 22
-16 0 -21 -5 -18 -22z"/>
<path d="M515 3641 c-7 -12 12 -24 25 -16 11 7 4 25 -10 25 -5 0 -11 -4 -15
-9z"/>
<path d="M510 3580 c0 -5 9 -10 20 -10 11 0 20 5 20 10 0 6 -9 10 -20 10 -11
0 -20 -4 -20 -10z"/>
<path d="M1150 3610 c0 -5 6 -10 14 -10 8 0 18 5 21 10 3 6 -3 10 -14 10 -12
0 -21 -4 -21 -10z"/>
<path d="M1235 3641 c-7 -12 12 -24 25 -16 11 7 4 25 -10 25 -5 0 -11 -4 -15
-9z"/>
<path d="M1230 3580 c0 -5 9 -10 20 -10 11 0 20 5 20 10 0 6 -9 10 -20 10 -11
0 -20 -4 -20 -10z"/>
<path d="M1315 3610 c-3 -5 1 -10 9 -10 8 0 18 5 21 10 3 6 -1 10 -9 10 -8 0
-18 -4 -21 -10z"/>
<path d="M1557 3503 c-4 -3 -7 -12 -7 -20 0 -11 4 -11 20 -3 11 6 18 15 15 21
-7 11 -19 12 -28 2z"/>
<path d="M1566 3467 c-14 -10 -16 -16 -7 -22 15 -9 35 8 30 24 -3 8 -10 7 -23
-2z"/>
<path d="M275 3480 c-3 -5 3 -10 15 -10 12 0 18 5 15 10 -3 6 -10 10 -15 10
-5 0 -12 -4 -15 -10z"/>
<path d="M597 3483 c-15 -15 -7 -43 13 -43 15 0 20 7 20 25 0 24 -18 34 -33
18z"/>
<path d="M915 3481 c-7 -12 12 -24 25 -16 11 7 4 25 -10 25 -5 0 -11 -4 -15
-9z"/>
<path d="M910 3420 c0 -5 9 -10 20 -10 11 0 20 5 20 10 0 6 -9 10 -20 10 -11
0 -20 -4 -20 -10z"/>
<path d="M1075 3480 c-3 -5 3 -10 15 -10 12 0 18 5 15 10 -3 6 -10 10 -15 10
-5 0 -12 -4 -15 -10z"/>
<path d="M113 3314 c-7 -18 11 -39 26 -30 17 11 13 46 -4 46 -9 0 -18 -7 -22
-16z"/>
<path d="M192 3308 c2 -13 10 -23 18 -23 8 0 16 10 18 23 3 17 -2 22 -18 22
-16 0 -21 -5 -18 -22z"/>
<path d="M515 3321 c-7 -12 12 -24 25 -16 11 7 4 25 -10 25 -5 0 -11 -4 -15
-9z"/>
<path d="M510 3260 c0 -5 9 -10 20 -10 11 0 20 5 20 10 0 6 -9 10 -20 10 -11
0 -20 -4 -20 -10z"/>
<path d="M1150 3290 c0 -5 6 -10 14 -10 8 0 18 5 21 10 3 6 -3 10 -14 10 -12
0 -21 -4 -21 -10z"/>
<path d="M1235 3321 c-7 -12 12 -24 25 -16 11 7 4 25 -10 25 -5 0 -11 -4 -15
-9z"/>
<path d="M1230 3260 c0 -5 9 -10 20 -10 11 0 20 5 20 10 0 6 -9 10 -20 10 -11
0 -20 -4 -20 -10z"/>
<path d="M1315 3290 c-3 -5 1 -10 9 -10 8 0 18 5 21 10 3 6 -1 10 -9 10 -8 0
-18 -4 -21 -10z"/>
<path d="M1557 3183 c-4 -3 -7 -12 -7 -20 0 -11 4 -11 20 -3 11 6 18 15 15 21
-7 11 -19 12 -28 2z"/>
<path d="M1566 3147 c-14 -10 -16 -16 -7 -22 15 -9 35 8 30 24 -3 8 -10 7 -23
-2z"/>
<path d="M275 3160 c-3 -5 3 -10 15 -10 12 0 18 5 15 10 -3 6 -10 10 -15 10
-5 0 -12 -4 -15 -10z"/>
<path d="M597 3163 c-15 -15 -7 -43 13 -43 15 0 20 7 20 25 0 24 -18 34 -33
18z"/>
<path d="M915 3161 c-7 -12 12 -24 25 -16 11 7 4 25 -10 25 -5 0 -11 -4 -15
-9z"/>
<path d="M910 3100 c0 -5 9 -10 20 -10 11 0 20 5 20 10 0 6 -9 10 -20 10 -11
0 -20 -4 -20 -10z"/>
<path d="M1075 3160 c-3 -5 3 -10 15 -10 12 0 18 5 15 10 -3 6 -10 10 -15 10
-5 0 -12 -4 -15 -10z"/>
<path d="M113 2994 c-7 -18 11 -39 26 -30 17 11 13 46 -4 46 -9 0 -18 -7 -22
-16z"/>
<path d="M192 2988 c2 -13 10 -23 18 -23 8 0 16 10 18 23 3 17 -2 22 -18 22
-16 0 -21 -5 -18 -22z"/>
<path d="M515 3001 c-7 -12 12 -24 25 -16 11 7 4 25 -10 25 -5 0 -11 -4 -15
-9z"/>
<path d="M510 2940 c0 -5 9 -10 20 -10 11 0 20 5 20 10 0 6 -9 10 -20 10 -11
0 -20 -4 -20 -10z"/>
<path d="M1150 2970 c0 -5 6 -10 14 -10 8 0 18 5 21 10 3 6 -3 10 -14 10 -12
0 -21 -4 -21 -10z"/>
<path d="M1235 3001 c-7 -12 12 -24 25 -16 11 7 4 25 -10 25 -5 0 -11 -4 -15
-9z"/>
<path d="M1230 2940 c0 -5 9 -10 20 -10 11 0 20 5 20 10 0 6 -9 10 -20 10 -11
0 -20 -4 -20 -10z"/>
<path d="M1315 2970 c-3 -5 1 -10 9 -10 8 0 18 5 21 10 3 6 -1 10 -9 10 -8 0
-18 -4 -21 -10z"/>
<path d="M1557 2863 c-4 -3 -7 -12 -7 -20 0 -11 4 -11 20 -3 11 6 18 15 15 21
-7 11 -19 12 -28 2z"/>
<path d="M1566 2827 c-14 -10 -16 -16 -7 -22 15 -9 35 8 30 24 -3 8 -10 7 -23
-2z"/>
<path d="M275 2840 c-3 -5 3 -10 15 -10 12 0 18 5 15 10 -3 6 -10 10 -15 10
-5 0 -12 -4 -15 -10z"/>
<path d="M597 2843 c-15 -15 -7 -43 13 -43 15 0 20 7 20 25 0 24 -18 34 -33
18z"/>
<path d="M915 2841 c-7 -12 12 -24 25 -16 11 7 4 25 -10 25 -5 0 -11 -4 -15
-9z"/>
<path d="M910 2780 c0 -5 9 -10 20 -10 11 0 20 5 20 10 0 6 -9 10 -20 10 -11
0 -20 -4 -20 -10z"/>
<path d="M1075 2840 c-3 -5 3 -10 15 -10 12 0 18 5 15 10 -3 6 -10 10 -15 10
-5 0 -12 -4 -15 -10z"/>
<path d="M113 2674 c-7 -18 11 -39 26 -30 17 11 13 46 -4 46 -9 0 -18 -7 -22
-16z"/>
<path d="M192 2668 c2 -13 10 -23 18 -23 8 0 16 10 18 23 3 17 -2 22 -18 22
-16 0 -21 -5 -18 -22z"/>
<path d="M515 2681 c-7 -12 12 -24 25 -16 11 7 4 25 -10 25 -5 0 -11 -4 -15
-9z"/>
<path d="M510 2620 c0 -5 9 -10 20 -10 11 0 20 5 20 10 0 6 -9 10 -20 10 -11
0 -20 -4 -20 -10z"/>
<path d="M1150 2650 c0 -5 6 -10 14 -10 8 0 18 5 21 10 3 6 -3 10 -14 10 -12
0 -21 -4 -21 -10z"/>
<path d="M1235 2681 c-7 -12 12 -24 25 -16 11 7 4 25 -10 25 -5 0 -11 -4 -15
-9z"/>
<path d="M1230 2620 c0 -5 9 -10 20 -10 11 0 20 5 20 10 0 6 -9 10 -20 10 -11
0 -20 -4 -20 -10z"/>
<path d="M1315 2650 c-3 -5 1 -10 9 -10 8 0 18 5 21 10 3 6 -1 10 -9 10 -8 0
-18 -4 -21 -10z"/>
<path d="M275 2520 c-3 -5 3 -10 15 -10 12 0 18 5 15 10 -3 6 -10 10 -15 10
-5 0 -12 -4 -15 -10z"/>
<path d="M597 2523 c-15 -15 -7 -43 13 -43 15 0 20 7 20 25 0 24 -18 34 -33
18z"/>
<path d="M915 2521 c-7 -12 12 -24 25 -16 11 7 4 25 -10 25 -5 0 -11 -4 -15
-9z"/>
<path d="M910 2460 c0 -5 9 -10 20 -10 11 0 20 5 20 10 0 6 -9 10 -20 10 -11
0 -20 -4 -20 -10z"/>
<path d="M1075 2520 c-3 -5 3 -10 15 -10 12 0 18 5 15 10 -3 6 -10 10 -15 10
-5 0 -12 -4 -15 -10z"/>
<path d="M113 2354 c-7 -18 11 -39 26 -30 17 11 13 46 -4 46 -9 0 -18 -7 -22
-16z"/>
<path d="M192 2348 c2 -13 10 -23 18 -23 8 0 16 10 18 23 3 17 -2 22 -18 22
-16 0 -21 -5 -18 -22z"/>
<path d="M433 2354 c-7 -18 11 -39 26 -30 17 11 13 46 -4 46 -9 0 -18 -7 -22
-16z"/>
<path d="M1075 2330 c-3 -5 1 -10 9 -10 8 0 18 5 21 10 3 6 -1 10 -9 10 -8 0
-18 -4 -21 -10z"/>
<path d="M1155 2361 c-7 -12 12 -24 25 -16 11 7 4 25 -10 25 -5 0 -11 -4 -15
-9z"/>
<path d="M1150 2300 c0 -5 9 -10 20 -10 11 0 20 5 20 10 0 6 -9 10 -20 10 -11
0 -20 -4 -20 -10z"/>
<path d="M1230 2330 c0 -5 6 -10 14 -10 8 0 18 5 21 10 3 6 -3 10 -14 10 -12
0 -21 -4 -21 -10z"/>
<path d="M1475 2221 c-3 -5 -1 -12 5 -16 12 -7 30 2 30 16 0 12 -27 12 -35 0z"/>
<path d="M1475 2180 c-3 -6 1 -13 10 -16 19 -8 30 0 20 15 -8 14 -22 14 -30 1z"/>
<path d="M275 2200 c-3 -5 3 -10 15 -10 12 0 18 5 15 10 -3 6 -10 10 -15 10
-5 0 -12 -4 -15 -10z"/>
<path d="M597 2203 c-15 -15 -7 -43 13 -43 15 0 20 7 20 25 0 24 -18 34 -33
18z"/>
<path d="M915 2201 c-7 -12 12 -24 25 -16 11 7 4 25 -10 25 -5 0 -11 -4 -15
-9z"/>
<path d="M910 2140 c0 -5 9 -10 20 -10 11 0 20 5 20 10 0 6 -9 10 -20 10 -11
0 -20 -4 -20 -10z"/>
<path d="M1075 2200 c-3 -5 3 -10 15 -10 12 0 18 5 15 10 -3 6 -10 10 -15 10
-5 0 -12 -4 -15 -10z"/>
<path d="M2197 2043 c-4 -3 -7 -15 -7 -25 0 -28 34 -19 38 10 3 21 -16 31 -31
15z"/>
<path d="M2917 2043 c-4 -3 -7 -15 -7 -25 0 -28 34 -19 38 10 3 21 -16 31 -31
15z"/>
<path d="M3475 2030 c-8 -14 3 -30 21 -30 8 0 14 9 14 20 0 21 -24 28 -35 10z"/>
<path d="M112 2028 c2 -13 10 -23 18 -23 8 0 16 10 18 23 3 17 -2 22 -18 22
-16 0 -21 -5 -18 -22z"/>
<path d="M275 2041 c-7 -12 12 -24 25 -16 11 7 4 25 -10 25 -5 0 -11 -4 -15
-9z"/>
<path d="M270 1980 c0 -5 9 -10 20 -10 11 0 20 5 20 10 0 6 -9 10 -20 10 -11
0 -20 -4 -20 -10z"/>
<path d="M435 2010 c-3 -5 1 -10 9 -10 8 0 18 5 21 10 3 6 -1 10 -9 10 -8 0
-18 -4 -21 -10z"/>
<path d="M750 2010 c0 -5 6 -10 14 -10 8 0 18 5 21 10 3 6 -3 10 -14 10 -12 0
-21 -4 -21 -10z"/>
<path d="M993 2034 c-7 -18 11 -39 26 -30 17 11 13 46 -4 46 -9 0 -18 -7 -22
-16z"/>
<path d="M1470 2024 c0 -33 33 -30 38 4 3 17 -2 22 -17 22 -16 0 -21 -6 -21
-26z"/>
<path d="M1715 2041 c-7 -12 12 -24 25 -16 11 7 4 25 -10 25 -5 0 -11 -4 -15
-9z"/>
<path d="M1710 1980 c0 -5 9 -10 20 -10 11 0 20 5 20 10 0 6 -9 10 -20 10 -11
0 -20 -4 -20 -10z"/>
<path d="M1875 2040 c-3 -5 3 -10 15 -10 12 0 18 5 15 10 -3 6 -10 10 -15 10
-5 0 -12 -4 -15 -10z"/>
<path d="M2115 2040 c-3 -5 3 -10 15 -10 12 0 18 5 15 10 -3 6 -10 10 -15 10
-5 0 -12 -4 -15 -10z"/>
<path d="M2515 2040 c-3 -5 3 -10 15 -10 12 0 18 5 15 10 -3 6 -10 10 -15 10
-5 0 -12 -4 -15 -10z"/>
<path d="M2995 2040 c-3 -5 3 -10 15 -10 12 0 18 5 15 10 -3 6 -10 10 -15 10
-5 0 -12 -4 -15 -10z"/>
<path d="M3635 2041 c-7 -12 12 -24 25 -16 11 7 4 25 -10 25 -5 0 -11 -4 -15
-9z"/>
<path d="M3630 1980 c0 -5 9 -10 20 -10 11 0 20 5 20 10 0 6 -9 10 -20 10 -11
0 -20 -4 -20 -10z"/>
<path d="M3795 2040 c-3 -5 3 -10 15 -10 12 0 18 5 15 10 -3 6 -10 10 -15 10
-5 0 -12 -4 -15 -10z"/>
<path d="M4035 2040 c-3 -5 3 -10 15 -10 12 0 18 5 15 10 -3 6 -10 10 -15 10
-5 0 -12 -4 -15 -10z"/>
<path d="M353 1874 c-7 -18 11 -39 26 -30 17 11 13 46 -4 46 -9 0 -18 -7 -22
-16z"/>
<path d="M117 1883 c-4 -3 -7 -15 -7 -25 0 -28 34 -19 38 10 3 21 -16 31 -31
15z"/>
<path d="M597 1883 c-4 -3 -7 -15 -7 -25 0 -28 34 -19 38 10 3 21 -16 31 -31
15z"/>
<path d="M1075 1880 c-3 -5 3 -10 15 -10 12 0 18 5 15 10 -3 6 -10 10 -15 10
-5 0 -12 -4 -15 -10z"/>
<path d="M1312 1868 c2 -13 10 -23 18 -23 8 0 16 10 18 23 3 17 -2 22 -18 22
-16 0 -21 -5 -18 -22z"/>
<path d="M1477 1883 c-4 -3 -7 -15 -7 -25 0 -28 34 -19 38 10 3 21 -16 31 -31
15z"/>
<path d="M1635 1850 c-3 -5 1 -10 9 -10 8 0 18 5 21 10 3 6 -1 10 -9 10 -8 0
-18 -4 -21 -10z"/>
<path d="M1875 1850 c-3 -5 1 -10 9 -10 8 0 18 5 21 10 3 6 -1 10 -9 10 -8 0
-18 -4 -21 -10z"/>
<path d="M1955 1881 c-7 -12 12 -24 25 -16 11 7 4 25 -10 25 -5 0 -11 -4 -15
-9z"/>
<path d="M1950 1820 c0 -5 9 -10 20 -10 11 0 20 5 20 10 0 6 -9 10 -20 10 -11
0 -20 -4 -20 -10z"/>
<path d="M2030 1850 c0 -5 6 -10 14 -10 8 0 18 5 21 10 3 6 -3 10 -14 10 -12
0 -21 -4 -21 -10z"/>
<path d="M1553 1554 c-7 -18 11 -39 26 -30 17 11 13 46 -4 46 -9 0 -18 -7 -22
-16z"/>
<path d="M2677 1583 c-4 -3 -7 -12 -7 -20 0 -11 4 -11 20 -3 11 6 18 15 15 21
-7 11 -19 12 -28 2z"/>
<path d="M2686 1547 c-14 -10 -16 -16 -7 -22 15 -9 35 8 30 24 -3 8 -10 7 -23
-2z"/>
<path d="M110 1544 c0 -33 33 -30 38 4 3 17 -2 22 -17 22 -16 0 -21 -6 -21
-26z"/>
<path d="M833 1554 c-7 -18 11 -39 26 -30 17 11 13 46 -4 46 -9 0 -18 -7 -22
-16z"/>
<path d="M1235 1560 c-3 -5 3 -10 15 -10 12 0 18 5 15 10 -3 6 -10 10 -15 10
-5 0 -12 -4 -15 -10z"/>
<path d="M1390 1544 c0 -33 33 -30 38 4 3 17 -2 22 -17 22 -16 0 -21 -6 -21
-26z"/>
<path d="M2917 1563 c-4 -3 -7 -15 -7 -25 0 -28 34 -19 38 10 3 21 -16 31 -31
15z"/>
<path d="M3155 1560 c-3 -5 3 -10 15 -10 12 0 18 5 15 10 -3 6 -10 10 -15 10
-5 0 -12 -4 -15 -10z"/>
<path d="M195 1370 c-3 -5 1 -10 9 -10 8 0 18 5 21 10 3 6 -1 10 -9 10 -8 0
-18 -4 -21 -10z"/>
<path d="M673 1394 c-7 -18 11 -39 26 -30 17 11 13 46 -4 46 -9 0 -18 -7 -22
-16z"/>
<path d="M917 1403 c-4 -3 -7 -15 -7 -25 0 -28 34 -19 38 10 3 21 -16 31 -31
15z"/>
<path d="M1070 1370 c0 -5 6 -10 14 -10 8 0 18 5 21 10 3 6 -3 10 -14 10 -12
0 -21 -4 -21 -10z"/>
<path d="M1395 1401 c-7 -12 12 -24 25 -16 11 7 4 25 -10 25 -5 0 -11 -4 -15
-9z"/>
<path d="M1390 1340 c0 -5 9 -10 20 -10 11 0 20 5 20 10 0 6 -9 10 -20 10 -11
0 -20 -4 -20 -10z"/>
<path d="M1877 1083 c-4 -3 -7 -15 -7 -25 0 -28 34 -19 38 10 3 21 -16 31 -31
15z"/>
<path d="M4357 1083 c-4 -3 -7 -15 -7 -25 0 -28 34 -19 38 10 3 21 -16 31 -31
15z"/>
<path d="M4917 1083 c-4 -3 -7 -15 -7 -25 0 -28 34 -19 38 10 3 21 -16 31 -31
15z"/>
<path d="M8913 1074 c-7 -18 11 -39 26 -30 17 11 13 46 -4 46 -9 0 -18 -7 -22
-16z"/>
<path d="M270 1075 c0 -29 3 -36 18 -33 11 2 17 13 17 33 0 20 -6 31 -17 33
-15 3 -18 -4 -18 -33z"/>
<path d="M437 1080 c-3 -13 0 -20 9 -20 8 0 14 9 14 20 0 11 -4 20 -9 20 -5 0
-11 -9 -14 -20z"/>
<path d="M590 1090 c0 -15 5 -20 18 -18 9 2 17 10 17 18 0 8 -8 16 -17 18 -13
2 -18 -3 -18 -18z"/>
<path d="M3954 1066 c1 -27 36 -35 36 -8 0 11 -8 22 -19 25 -14 3 -18 -1 -17
-17z"/>
<path d="M4040 1080 c-9 -16 -8 -20 5 -20 8 0 15 9 15 20 0 11 -2 20 -5 20 -2
0 -9 -9 -15 -20z"/>
<path d="M4190 1075 c0 -29 3 -36 18 -33 11 2 17 13 17 33 0 20 -6 31 -17 33
-15 3 -18 -4 -18 -33z"/>
<path d="M8274 1066 c1 -27 36 -35 36 -8 0 11 -8 22 -19 25 -14 3 -18 -1 -17
-17z"/>
<path d="M757 1083 c-4 -3 -7 -15 -7 -25 0 -28 34 -19 38 10 3 21 -16 31 -31
15z"/>
<path d="M915 1080 c-3 -5 3 -10 15 -10 12 0 18 5 15 10 -3 6 -10 10 -15 10
-5 0 -12 -4 -15 -10z"/>
<path d="M1955 1080 c-3 -5 3 -10 15 -10 12 0 18 5 15 10 -3 6 -10 10 -15 10
-5 0 -12 -4 -15 -10z"/>
<path d="M2355 1080 c-3 -5 3 -10 15 -10 12 0 18 5 15 10 -3 6 -10 10 -15 10
-5 0 -12 -4 -15 -10z"/>
<path d="M2755 1081 c-7 -12 12 -24 25 -16 11 7 4 25 -10 25 -5 0 -11 -4 -15
-9z"/>
<path d="M2750 1020 c0 -5 9 -10 20 -10 11 0 20 5 20 10 0 6 -9 10 -20 10 -11
0 -20 -4 -20 -10z"/>
<path d="M2995 1050 c-3 -5 1 -10 9 -10 8 0 18 5 21 10 3 6 -1 10 -9 10 -8 0
-18 -4 -21 -10z"/>
<path d="M3155 1080 c-3 -5 3 -10 15 -10 12 0 18 5 15 10 -3 6 -10 10 -15 10
-5 0 -12 -4 -15 -10z"/>
<path d="M4275 1080 c-3 -5 3 -10 15 -10 12 0 18 5 15 10 -3 6 -10 10 -15 10
-5 0 -12 -4 -15 -10z"/>
<path d="M4515 1081 c-7 -12 12 -24 25 -16 11 7 4 25 -10 25 -5 0 -11 -4 -15
-9z"/>
<path d="M4510 1020 c0 -5 9 -10 20 -10 11 0 20 5 20 10 0 6 -9 10 -20 10 -11
0 -20 -4 -20 -10z"/>
<path d="M4995 1080 c-3 -5 3 -10 15 -10 12 0 18 5 15 10 -3 6 -10 10 -15 10
-5 0 -12 -4 -15 -10z"/>
<path d="M5395 1080 c-3 -5 3 -10 15 -10 12 0 18 5 15 10 -3 6 -10 10 -15 10
-5 0 -12 -4 -15 -10z"/>
<path d="M5795 1081 c-7 -12 12 -24 25 -16 11 7 4 25 -10 25 -5 0 -11 -4 -15
-9z"/>
<path d="M5790 1020 c0 -5 9 -10 20 -10 11 0 20 5 20 10 0 6 -9 10 -20 10 -11
0 -20 -4 -20 -10z"/>
<path d="M6035 1050 c-3 -5 1 -10 9 -10 8 0 18 5 21 10 3 6 -1 10 -9 10 -8 0
-18 -4 -21 -10z"/>
<path d="M6195 1080 c-3 -5 3 -10 15 -10 12 0 18 5 15 10 -3 6 -10 10 -15 10
-5 0 -12 -4 -15 -10z"/>
<path d="M6915 1080 c-3 -5 3 -10 15 -10 12 0 18 5 15 10 -3 6 -10 10 -15 10
-5 0 -12 -4 -15 -10z"/>
<path d="M7075 1080 c-3 -5 3 -10 15 -10 12 0 18 5 15 10 -3 6 -10 10 -15 10
-5 0 -12 -4 -15 -10z"/>
<path d="M7317 1083 c-4 -3 -7 -15 -7 -25 0 -28 34 -19 38 10 3 21 -16 31 -31
15z"/>
<path d="M7477 1083 c-4 -3 -7 -15 -7 -25 0 -28 34 -19 38 10 3 21 -16 31 -31
15z"/>
<path d="M7635 1080 c-3 -5 3 -10 15 -10 12 0 18 5 15 10 -3 6 -10 10 -15 10
-5 0 -12 -4 -15 -10z"/>
<path d="M8515 1080 c-3 -5 3 -10 15 -10 12 0 18 5 15 10 -3 6 -10 10 -15 10
-5 0 -12 -4 -15 -10z"/>
<path d="M8835 1080 c-3 -5 3 -10 15 -10 12 0 18 5 15 10 -3 6 -10 10 -15 10
-5 0 -12 -4 -15 -10z"/>
<path d="M9550 1064 c0 -33 33 -30 38 4 3 17 -2 22 -17 22 -16 0 -21 -6 -21
-26z"/>
<path d="M33 914 c-7 -18 11 -39 26 -30 17 11 13 46 -4 46 -9 0 -18 -7 -22
-16z"/>
<path d="M277 943 c-4 -3 -7 -12 -7 -20 0 -11 4 -11 20 -3 11 6 18 15 15 21
-7 11 -19 12 -28 2z"/>
<path d="M286 907 c-14 -10 -16 -16 -7 -22 15 -9 35 8 30 24 -3 8 -10 7 -23
-2z"/>
<path d="M115 920 c-3 -5 3 -10 15 -10 12 0 18 5 15 10 -3 6 -10 10 -15 10 -5
0 -12 -4 -15 -10z"/>
<path d="M2513 754 c-7 -18 11 -39 26 -30 17 11 13 46 -4 46 -9 0 -18 -7 -22
-16z"/>
<path d="M30 770 c0 -15 5 -20 18 -18 9 2 17 10 17 18 0 8 -8 16 -17 18 -13 2
-18 -3 -18 -18z"/>
<path d="M195 760 c-3 -5 3 -10 15 -10 12 0 18 5 15 10 -3 6 -10 10 -15 10 -5
0 -12 -4 -15 -10z"/>
<path d="M510 730 c0 -5 6 -10 14 -10 8 0 18 5 21 10 3 6 -3 10 -14 10 -12 0
-21 -4 -21 -10z"/>
<path d="M915 760 c-3 -5 3 -10 15 -10 12 0 18 5 15 10 -3 6 -10 10 -15 10 -5
0 -12 -4 -15 -10z"/>
<path d="M1233 754 c-7 -18 11 -39 26 -30 17 11 13 46 -4 46 -9 0 -18 -7 -22
-16z"/>
<path d="M1553 754 c-7 -18 11 -39 26 -30 17 11 13 46 -4 46 -9 0 -18 -7 -22
-16z"/>
<path d="M1715 760 c-3 -5 3 -10 15 -10 12 0 18 5 15 10 -3 6 -10 10 -15 10
-5 0 -12 -4 -15 -10z"/>
<path d="M2590 744 c0 -33 33 -30 38 4 3 17 -2 22 -17 22 -16 0 -21 -6 -21
-26z"/>
</g>
</svg>
