<?xml version="1.0" standalone="no"?>
<!DOCTYPE svg PUBLIC "-//W3C//DTD SVG 20010904//EN"
 "http://www.w3.org/TR/2001/REC-SVG-20010904/DTD/svg10.dtd">
<svg version="1.0" xmlns="http://www.w3.org/2000/svg"
 width="1600.000000pt" height="900.000000pt" viewBox="0 0 1600.000000 900.000000"
 preserveAspectRatio="xMidYMid meet">

<g transform="translate(0.000000,900.000000) scale(0.100000,-0.100000)"
fill="#000000" stroke="none">
<path d="M0 4710 l0 -4290 7910 0 7910 0 0 800 0 800 -103 0 c-127 0 -184 17
-239 72 -51 51 -70 98 -70 169 0 72 27 133 80 181 52 47 93 58 225 58 l107 0
-1 603 c-1 331 -5 629 -9 662 -4 33 -8 49 -9 35 -3 -23 -4 -22 -12 8 -7 24
-14 32 -25 28 -9 -3 -18 -6 -20 -6 -2 0 -4 -9 -4 -20 0 -11 -4 -20 -10 -20 -5
0 -10 13 -10 28 0 24 -7 32 -40 47 -22 10 -40 22 -40 26 0 4 -10 10 -23 14
-42 12 -97 38 -97 47 0 4 -13 8 -29 8 -16 0 -34 6 -40 13 -6 8 -29 22 -51 32
-22 10 -40 22 -40 27 0 4 -13 8 -29 8 -25 0 -28 3 -24 21 5 19 3 21 -18 16
-15 -3 -40 3 -69 18 l-45 24 35 2 c22 1 9 5 -35 10 -87 11 -96 15 -89 33 4 10
-7 16 -45 21 -36 5 -48 10 -44 20 3 9 -5 17 -24 21 -36 9 -122 52 -141 70 -7
8 -20 14 -28 14 -18 0 -113 47 -132 66 -7 8 -20 14 -28 14 -16 0 -111 46 -130
64 -33 28 -44 36 -53 36 -5 0 -17 7 -25 16 -9 8 -46 21 -83 28 -52 10 -67 16
-65 28 2 12 -10 18 -47 23 -35 5 -48 11 -45 20 3 7 -4 16 -15 20 -12 3 -21 11
-21 17 0 7 -5 6 -15 -2 -18 -15 -35 -5 -35 20 0 14 -7 18 -29 18 -16 -1 -36 5
-45 13 -32 29 -43 37 -64 43 -12 4 -22 12 -22 18 0 6 -10 8 -24 4 -15 -4 -31
1 -47 14 -13 11 -29 24 -35 29 -6 5 -20 12 -32 15 -12 4 -22 11 -22 16 0 5
-21 10 -47 12 -39 2 -50 7 -58 26 -5 12 -15 22 -22 22 -6 0 -19 7 -27 16 -10
10 -24 13 -38 9 -16 -4 -19 -3 -10 3 10 7 2 11 -27 16 -32 5 -41 11 -41 26 0
16 -7 20 -34 20 -45 0 -72 10 -55 20 13 9 -41 42 -64 39 -36 -4 -49 2 -44 21
4 18 0 20 -35 20 -35 0 -39 2 -28 15 11 13 7 15 -24 15 -20 0 -36 5 -36 10 0
6 -6 10 -14 10 -8 0 -21 6 -28 13 -17 17 -118 67 -134 67 -7 0 -19 6 -26 13
-19 18 -87 53 -130 67 -21 6 -38 16 -38 20 0 5 -19 15 -42 21 -44 13 -72 29
-49 29 7 0 10 4 7 9 -3 5 -34 12 -67 16 -37 4 -56 10 -49 15 14 9 -19 29 -82
49 -21 7 -38 16 -38 20 0 8 -94 53 -137 66 -13 3 -23 10 -23 14 0 5 -27 20
-60 35 -39 18 -57 31 -54 40 4 10 -6 15 -33 19 -58 7 -175 59 -169 74 3 7 0
14 -7 15 -27 3 -33 5 -69 18 -21 8 -38 17 -38 21 0 4 -18 10 -40 14 -22 4 -38
10 -35 15 3 4 -4 6 -15 3 -13 -3 -20 0 -20 8 -1 8 -47 37 -103 64 -55 28 -109
56 -118 64 -17 13 -42 24 -136 58 -24 9 -43 22 -43 29 0 10 -13 14 -41 14 -35
0 -40 2 -34 19 5 17 -1 22 -33 31 -22 5 -45 16 -51 24 -6 7 -34 16 -61 20 -44
6 -80 26 -48 26 33 1 -30 30 -65 30 -21 0 -36 4 -33 8 2 4 2 13 -2 19 -11 17
-72 44 -83 37 -13 -8 -83 39 -121 80 -24 26 -30 28 -38 16 -7 -12 -12 -12 -22
-2 -6 6 -22 12 -35 12 -13 0 -23 6 -23 13 0 8 -19 22 -42 32 -24 9 -51 21 -60
26 -10 5 -24 9 -32 9 -8 0 -19 6 -23 14 -12 20 -69 47 -87 40 -8 -3 -19 3 -26
15 -6 12 -20 21 -30 21 -11 0 -20 4 -20 8 0 14 -90 52 -128 53 -23 1 -29 3
-14 6 26 5 29 18 6 27 -30 12 -44 6 -44 -18 0 -19 -4 -23 -20 -19 -10 3 -19 8
-18 12 0 3 0 18 -1 34 -1 28 -21 39 -21 12 0 -8 -4 -15 -9 -15 -15 0 -21 168
-28 818 l-6 642 2941 0 2942 0 0 455 0 455 -8000 0 -8000 0 0 -4290z m1134
4154 c19 -19 22 -124 4 -142 -7 -7 -39 -12 -75 -12 -73 0 -83 10 -83 89 0 40
4 53 22 65 30 21 112 21 132 0z m14196 -53 c0 -64 -6 -71 -61 -71 l-49 0 0 40
c0 53 16 69 68 70 l42 0 0 -39z m455 19 c14 13 25 19 25 13 0 -5 -9 -18 -20
-28 l-20 -18 22 -24 c12 -12 19 -25 16 -28 -2 -3 -13 4 -23 15 -23 25 -29 25
-55 -2 -11 -12 -20 -18 -20 -13 0 5 9 18 20 30 l20 22 -20 18 c-11 10 -20 23
-20 28 0 6 11 0 25 -13 l25 -23 25 23z m-2319 -30 c13 0 24 -4 24 -10 0 -5 -9
-10 -20 -10 -13 0 -20 -7 -20 -20 0 -11 -4 -20 -10 -20 -5 0 -10 9 -10 20 0
13 -7 20 -20 20 -11 0 -20 5 -20 10 0 6 9 10 20 10 14 0 20 7 21 23 l2 22 4
-22 c3 -16 11 -23 29 -23z m-12206 16 c-19 -24 -9 -61 18 -60 12 0 22 -3 22
-8 0 -10 -31 -10 -46 0 -21 13 -25 49 -9 66 20 20 32 21 15 2z m93 -9 c12 -4
17 -16 16 -39 l-1 -33 -7 29 c-9 42 -29 44 -34 4 -3 -24 -4 -20 -5 17 -1 28 2
45 6 39 4 -6 15 -13 25 -17z m157 8 c-18 -21 -4 -65 20 -65 22 0 27 25 8 33
-8 3 -5 6 5 6 25 1 19 -42 -6 -47 -38 -8 -64 47 -35 76 17 17 23 15 8 -3z m77
-52 c-2 -16 -4 -5 -4 22 0 28 2 40 4 28 2 -13 2 -35 0 -50z m43 42 c0 -14 -3
-25 -7 -25 -5 0 -8 11 -8 25 0 14 3 25 8 25 4 0 7 -11 7 -25z m52 -12 c-6 -59
-9 -62 -13 -10 -3 29 0 47 6 47 7 0 9 -15 7 -37z m1478 22 c7 9 15 13 18 10 3
-2 -1 -11 -8 -20 -10 -12 -10 -18 0 -30 8 -9 9 -15 2 -15 -6 0 -14 5 -17 11
-5 7 -14 4 -26 -7 -20 -18 -27 -6 -7 14 9 9 9 15 0 24 -20 20 -14 33 7 14 16
-15 19 -15 31 -1z m570 -4 c-13 -25 -3 -50 24 -61 17 -7 17 -9 4 -9 -27 -1
-52 43 -38 68 6 12 13 21 16 21 2 0 0 -9 -6 -19z m417 -12 l18 -31 6 34 c6 29
7 28 8 -16 1 -41 -1 -47 -14 -36 -8 6 -17 20 -20 31 -10 29 -23 23 -28 -13 -3
-25 -4 -22 -5 15 -2 54 9 60 35 16z m308 -5 c18 -43 19 -67 2 -39 -11 20 -13
25 -16 46 0 5 -6 7 -12 4 -6 -4 -8 -12 -6 -19 3 -6 -1 -20 -9 -31 -8 -10 -14
-13 -14 -7 0 17 28 82 34 82 3 0 13 -16 21 -36z m1189 25 c18 15 22 1 4 -17
-8 -8 -8 -15 2 -27 7 -8 11 -18 8 -20 -3 -3 -11 1 -18 10 -12 14 -15 14 -31
-1 -21 -19 -27 -6 -7 14 9 9 9 15 0 24 -19 19 -14 29 7 16 15 -9 23 -9 35 1z
m401 -19 c20 -39 20 -40 -20 -40 -19 0 -35 3 -35 6 0 7 33 64 37 64 1 0 9 -13
18 -30z m1143 5 c-9 -21 -9 -29 4 -42 9 -9 24 -13 32 -10 19 7 21 48 4 65 -9
9 -9 12 0 12 6 0 16 -9 22 -21 14 -26 -11 -69 -40 -69 -28 0 -46 41 -31 69 16
30 23 26 9 -4z m932 10 c7 9 15 13 18 10 3 -2 -1 -12 -8 -20 -10 -12 -10 -19
-2 -27 20 -20 13 -32 -7 -14 -12 11 -21 14 -26 7 -3 -6 -11 -11 -17 -11 -6 0
-6 6 2 15 10 12 10 19 2 27 -20 20 -13 32 7 14 16 -15 19 -15 31 -1z m410 -42
c0 -8 -12 -13 -30 -13 -34 0 -38 14 -14 49 l17 24 13 -24 c7 -13 13 -30 14
-36z m188 50 c-31 -5 -42 -27 -27 -55 7 -13 17 -18 30 -15 10 3 17 1 13 -4 -8
-13 -38 -11 -52 3 -7 7 -12 21 -12 33 0 29 19 45 50 44 l25 -2 -27 -4z m388
-20 l18 -28 7 30 c6 26 7 23 8 -17 0 -27 -3 -48 -7 -48 -4 0 -16 15 -27 33
l-20 32 -6 -35 c-6 -33 -6 -32 -8 13 -1 54 9 59 35 20z m203 -1 c-14 -5 -11
-50 4 -55 7 -3 5 -6 -6 -6 -12 -1 -19 9 -23 29 -4 16 -11 27 -16 24 -5 -4 -7
-18 -3 -32 5 -21 4 -23 -8 -14 -9 8 -17 8 -23 2 -7 -7 -10 1 -10 25 1 25 4 32
10 22 7 -11 13 -9 33 9 20 18 28 21 38 11 7 -7 9 -13 4 -15z m107 -7 c18 -44
18 -66 0 -42 -16 21 -35 22 -42 2 -4 -8 -10 -15 -14 -15 -5 0 -2 20 7 45 8 25
19 45 24 45 6 0 17 -16 25 -35z m1152 23 c8 -8 15 -8 27 2 20 17 32 5 15 -15
-10 -12 -10 -19 -2 -27 20 -20 13 -32 -7 -14 -16 15 -20 15 -31 1 -7 -8 -17
-12 -23 -8 -6 4 -3 11 8 19 18 13 18 14 0 34 -19 21 -8 29 13 8z m435 -43
c-13 -10 -22 -11 -33 -2 -8 6 -16 12 -18 13 -2 1 4 11 13 22 17 19 18 19 37 0
19 -19 19 -20 1 -33z m167 34 c-15 -26 -7 -47 22 -59 22 -8 22 -9 3 -9 -27 -1
-45 17 -45 44 0 12 5 26 12 33 18 18 20 15 8 -9z m498 -20 c16 -1 16 -2 0 -6
-9 -2 -19 -14 -21 -26 -2 -12 -4 1 -4 28 0 28 2 40 4 28 2 -13 12 -24 21 -24z
m117 21 c7 0 18 -6 24 -14 17 -20 -3 -56 -29 -56 -17 0 -20 7 -19 48 0 26 3
41 6 35 2 -7 10 -13 18 -13z m285 3 c0 -10 5 -25 10 -33 7 -12 12 -7 24 20 8
19 15 31 16 26 0 -16 -23 -86 -29 -86 -4 0 -14 20 -23 45 -10 25 -13 45 -8 45
6 0 10 -8 10 -17z m668 -8 c-12 -28 2 -55 30 -55 8 0 13 -3 9 -6 -10 -11 -46
7 -52 26 -3 11 -1 28 5 40 15 28 22 25 8 -5z m349 16 c17 13 17 13 4 -4 -12
-15 -13 -22 -2 -39 15 -24 9 -34 -9 -13 -10 12 -16 12 -34 3 -19 -10 -20 -10
-7 6 11 13 11 20 3 28 -19 19 -14 29 7 16 15 -9 23 -9 38 3z m-12887 -16 c12
-14 15 -14 31 1 23 21 25 7 3 -25 l-16 -22 -24 22 c-13 12 -24 26 -24 31 0 13
17 9 30 -7z m438 -26 l25 -34 -26 28 c-31 33 -34 33 -40 5 -3 -16 -5 -13 -6
10 -1 41 13 39 47 -9z m836 -2 c1 -20 -2 -37 -6 -37 -9 0 -27 62 -21 73 11 19
26 -2 27 -36z m2518 25 c-15 -5 -16 -48 -2 -55 6 -3 5 -4 -2 -3 -12 2 -30 61
-21 70 3 3 12 2 21 -2 10 -4 12 -7 4 -10z m360 0 c-16 -5 -15 -49 1 -55 7 -3
5 -6 -5 -6 -14 -1 -18 7 -18 30 0 20 -4 29 -12 26 -7 -2 -12 -16 -11 -31 2
-21 -1 -25 -11 -17 -9 7 -16 7 -26 -2 -12 -10 -12 -9 -1 5 9 13 10 22 1 40
-11 22 -10 22 4 4 9 -11 16 -14 16 -8 0 16 40 31 59 24 10 -4 11 -7 3 -10z
m2552 -27 c1 -19 -2 -35 -6 -35 -5 0 -8 14 -8 30 0 19 -5 30 -14 30 -19 0 -25
-21 -13 -45 9 -18 9 -19 -7 -6 -13 11 -19 12 -25 3 -4 -7 -7 3 -7 22 1 19 5
31 9 27 5 -5 21 -3 35 5 32 16 35 14 36 -31z m2048 27 c-16 -5 -15 -49 1 -55
7 -4 6 -6 -4 -6 -12 -1 -18 9 -21 34 -5 41 -2 46 20 37 10 -4 12 -7 4 -10z
m2472 -27 c1 -19 -2 -35 -5 -35 -8 0 -17 69 -10 75 9 9 14 -5 15 -40z m850 0
c1 -19 -2 -35 -6 -35 -5 0 -8 14 -8 31 0 27 -3 30 -27 27 -36 -4 -43 -35 -11
-47 15 -7 17 -10 7 -10 -26 -1 -45 27 -32 47 9 15 61 33 72 25 2 -1 4 -18 5
-38z m-10846 -3 c3 -26 0 -32 -17 -32 -25 0 -37 18 -21 33 9 9 11 9 8 -2 -2
-7 2 -15 8 -18 7 -2 12 7 12 21 0 14 -7 27 -17 30 -10 3 -9 4 4 3 15 -2 21
-11 23 -35z m2395 31 c-7 -2 -13 -18 -13 -34 0 -18 -4 -28 -10 -24 -11 7 -14
48 -3 58 3 4 13 7 22 6 10 0 12 -2 4 -6z m63 -11 c1 -7 0 -8 -3 -2 -10 20 -33
10 -33 -15 0 -17 6 -25 18 -26 12 0 13 -2 3 -6 -22 -9 -43 26 -30 49 11 21 41
21 45 0z m62 -20 c3 -29 1 -32 -22 -32 -26 0 -36 23 -16 35 6 4 7 -1 3 -11 -4
-12 -2 -15 8 -12 19 6 18 41 -1 50 -11 6 -10 7 5 5 15 -1 21 -11 23 -35z m108
20 c1 -7 0 -8 -3 -2 -10 21 -33 10 -33 -16 0 -22 4 -25 21 -21 16 4 19 3 11
-5 -16 -16 -42 -1 -42 25 0 13 3 27 7 31 11 10 36 3 39 -12z m194 3 c9 -10 9
-15 1 -15 -6 0 -11 5 -11 11 0 6 -6 9 -12 7 -20 -7 -15 -43 5 -42 9 1 17 -3
17 -8 0 -17 -45 -3 -48 15 -8 42 23 63 48 32z m285 4 c12 -19 -4 -59 -24 -59
-11 0 -22 -6 -24 -12 -3 -7 -6 7 -6 32 -1 41 1 46 24 48 13 1 27 -3 30 -9z
m75 -4 c15 -18 7 -43 -17 -52 -10 -4 -21 -11 -25 -17 -4 -6 -8 10 -8 37 0 39
3 47 19 47 10 0 24 -7 31 -15z m1639 -32 c-1 -27 -3 -41 -6 -32 -2 11 -11 15
-23 12 -12 -3 -20 2 -25 17 -8 25 10 50 36 50 16 0 19 -7 18 -47z m46 -13 c8
0 15 14 18 33 4 31 4 31 5 -6 2 -34 0 -38 -20 -35 -18 2 -24 10 -25 36 -3 32
-3 32 3 2 3 -16 11 -30 19 -30z m52 8 c-2 -13 -4 -5 -4 17 -1 22 1 32 4 23 2
-10 2 -28 0 -40z m63 44 c0 -4 -7 -17 -15 -29 -14 -20 -14 -22 7 -26 20 -4 19
-4 -4 -6 -32 -1 -34 6 -13 36 14 20 13 22 -2 26 -14 4 -13 5 5 6 12 0 22 -2
22 -7z m58 -30 c3 -27 0 -32 -17 -32 -15 0 -21 6 -20 23 1 16 2 18 6 5 2 -10
9 -18 14 -18 12 0 12 47 -1 53 -6 3 -5 4 2 3 7 -1 14 -17 16 -34z m77 9 c0
-13 -9 -29 -20 -35 -11 -6 -23 -15 -27 -21 -4 -5 -8 11 -8 36 0 44 1 46 28 45
22 -1 27 -6 27 -25z m73 -4 c2 -19 -2 -29 -15 -34 -10 -4 -21 -11 -25 -17 -4
-6 -8 11 -8 37 0 44 2 48 23 45 16 -2 23 -11 25 -31z m118 -7 l2 -35 -5 33
c-5 40 -25 38 -34 -4 -6 -28 -7 -28 -8 7 -1 32 2 36 22 35 18 -1 22 -7 23 -36z
m70 22 c1 -7 0 -8 -3 -2 -10 21 -33 10 -33 -16 0 -22 4 -25 21 -21 16 4 19 3
11 -5 -16 -16 -42 -1 -42 25 0 13 3 27 7 31 11 10 36 3 39 -12z m180 -48 c-4
-13 -12 -24 -18 -24 -9 0 -9 3 0 12 7 7 13 28 13 48 1 25 3 28 6 11 3 -12 2
-34 -1 -47z m41 59 c-17 -4 -17 -6 -2 -23 9 -10 14 -24 10 -29 -8 -14 -35 -14
-35 -1 0 5 7 7 15 4 20 -8 19 6 -2 21 -19 14 -9 36 15 34 15 -1 14 -2 -1 -6z
m253 -19 c0 -22 17 -17 23 8 4 12 9 20 12 17 7 -7 -15 -69 -24 -69 -4 0 -12
16 -18 35 -6 19 -7 33 -2 29 5 -3 9 -12 9 -20z m96 8 c1 -7 0 -8 -3 -2 -2 5
-11 10 -19 10 -20 0 -17 -37 4 -50 16 -10 15 -10 -3 -8 -21 3 -31 29 -21 54 7
18 38 15 42 -4z m71 -2 c6 -23 23 -27 23 -6 0 8 4 17 10 21 5 3 5 -7 -1 -25
-15 -42 -25 -45 -38 -10 -13 39 -31 39 -31 -1 0 -17 -4 -28 -10 -24 -11 7 -14
48 -3 58 14 14 45 6 50 -13z m60 -32 c-2 -13 -4 -5 -4 17 -1 22 1 32 4 23 2
-10 2 -28 0 -40z m69 34 c1 -7 0 -8 -3 -2 -2 5 -11 10 -19 10 -20 0 -17 -37 4
-50 16 -10 15 -10 -3 -8 -21 3 -31 29 -21 54 7 18 38 15 42 -4z m40 -50 c-9
-8 -13 0 -20 38 l-6 35 16 -34 c8 -18 13 -36 10 -39z m44 48 c5 14 8 18 9 10
1 -21 -10 -60 -18 -60 -11 0 -31 52 -24 63 3 6 11 0 16 -14 l10 -24 7 25z
m1123 13 c-7 -2 -13 -18 -13 -34 0 -16 -4 -29 -10 -29 -5 0 -10 16 -10 35 0
30 3 35 23 34 12 0 16 -3 10 -6z m65 -16 c2 -12 -3 -17 -17 -17 -12 0 -21 -5
-21 -11 0 -7 9 -9 21 -6 15 4 19 3 12 -4 -29 -29 -68 15 -42 47 16 19 43 14
47 -9z m60 -15 c3 -29 1 -32 -22 -32 -19 0 -26 5 -26 20 0 11 7 20 15 20 8 0
15 5 15 11 0 6 -7 8 -16 5 -9 -3 -12 -2 -9 5 14 21 40 4 43 -29z m110 15 c2
-12 -3 -17 -17 -17 -12 0 -21 -5 -21 -11 0 -6 9 -9 20 -6 11 3 18 1 14 -4 -3
-5 -14 -9 -24 -9 -23 0 -36 36 -19 56 16 19 43 14 47 -9z m195 9 c7 -18 -1
-26 -25 -26 -11 0 -16 -5 -13 -11 4 -6 13 -8 21 -5 8 3 14 1 14 -5 0 -6 -10
-9 -22 -7 -38 5 -37 68 1 68 10 0 21 -6 24 -14z m285 -19 c3 -22 -1 -30 -17
-34 -12 -3 -21 -9 -21 -14 0 -5 -4 -9 -10 -9 -5 0 -10 21 -10 46 0 44 1 45 28
42 21 -2 28 -9 30 -31z m76 17 c8 -20 -10 -54 -29 -54 -7 0 -16 -6 -18 -12 -3
-7 -6 8 -6 35 -1 43 1 47 23 47 13 0 27 -7 30 -16z m1684 4 c-9 -7 -19 -24
-21 -38 -3 -18 -5 -14 -6 13 -1 32 2 37 21 37 19 0 20 -1 6 -12z m66 -4 c5
-14 4 -15 -8 -5 -8 7 -19 10 -25 7 -15 -10 -6 -39 15 -48 18 -8 18 -8 0 -5
-28 3 -43 32 -27 51 17 21 37 20 45 0z m60 0 c13 -35 7 -54 -19 -54 -25 0 -35
23 -15 35 6 4 7 -1 3 -11 -4 -11 -2 -15 6 -13 7 3 12 8 12 12 -1 4 -1 14 -1
23 0 10 -5 14 -16 10 -8 -3 -12 -2 -9 4 9 15 32 12 39 -6z m73 -36 c-2 -13 -4
-5 -4 17 -1 22 1 32 4 23 2 -10 2 -28 0 -40z m45 12 c4 0 8 6 8 14 0 8 4 17 9
20 5 4 4 -10 -2 -29 -13 -43 -22 -44 -36 -4 -14 40 -13 51 1 22 6 -13 15 -23
20 -23z m84 22 c1 -7 0 -8 -3 -2 -2 5 -11 10 -19 10 -21 0 -18 -48 4 -53 16
-4 16 -5 0 -6 -25 -1 -43 36 -27 55 14 17 41 15 45 -4z m152 -20 c3 -26 0 -32
-17 -32 -25 0 -37 18 -22 33 9 9 10 8 5 -7 -5 -13 -3 -17 6 -14 21 7 22 46 2
52 -13 4 -12 4 3 3 15 -2 21 -11 23 -35z m114 26 c-5 -7 -12 -24 -15 -38 -3
-18 -5 -15 -6 13 -1 28 3 37 15 37 12 0 14 -3 6 -12z m81 2 c-13 -5 -23 -16
-23 -25 0 -9 10 -20 23 -25 17 -8 18 -9 3 -7 -28 3 -43 32 -27 51 8 9 21 16
30 15 11 0 9 -3 -6 -9z m75 -25 c3 -26 -1 -31 -23 -33 -25 -2 -36 20 -15 33 6
3 7 -1 4 -9 -3 -9 -1 -16 5 -16 15 0 14 47 -1 54 -7 3 -4 5 7 3 14 -1 21 -11
23 -32z m168 17 c1 -7 0 -8 -3 -2 -2 5 -11 10 -19 10 -20 0 -17 -37 4 -50 16
-10 15 -10 -3 -8 -21 3 -31 29 -21 54 7 18 38 15 42 -4z m169 -17 c0 -23 -5
-31 -22 -33 -26 -4 -41 31 -22 54 20 24 44 13 44 -21z m47 23 c-5 -7 -12 -24
-15 -38 -3 -18 -5 -15 -6 13 -1 28 3 37 15 37 12 0 14 -3 6 -12z m25 -40 c-2
-13 -4 -5 -4 17 -1 22 1 32 4 23 2 -10 2 -28 0 -40z m54 23 l-21 -30 22 -4
c20 -4 19 -4 -4 -6 -32 -1 -34 5 -12 34 13 18 13 20 -3 27 -14 5 -11 7 10 7
l28 1 -20 -29z m77 9 c4 -12 2 -13 -9 -2 -20 19 -29 15 -29 -14 0 -21 4 -25
20 -21 11 3 18 1 14 -4 -8 -14 -30 -11 -43 5 -9 11 -10 20 -1 36 13 23 41 23
48 0z m44 11 c-7 -4 -17 -21 -22 -37 l-8 -29 -1 31 c-1 34 5 44 28 44 12 0 13
-2 3 -9z m-705 -48 c-3 -10 -5 -2 -5 17 0 19 2 27 5 18 2 -10 2 -26 0 -35z
m2961 40 c-15 -2 -42 -2 -60 0 -18 2 -6 4 27 4 33 0 48 -2 33 -4z m-368 -373
c0 -5 11 -10 25 -10 20 0 25 -5 25 -25 0 -14 5 -25 10 -25 6 0 10 -9 10 -20 0
-11 -4 -20 -10 -20 -5 0 -10 -11 -10 -25 0 -24 -2 -25 -70 -25 -66 0 -70 1
-70 23 0 13 5 28 12 35 9 9 9 15 0 24 -7 7 -12 22 -12 35 0 18 6 23 25 23 14
0 25 5 25 10 0 6 9 10 20 10 11 0 20 -4 20 -10z m550 -31 c0 -35 2 -39 14 -30
10 9 16 9 21 1 4 -6 5 -12 4 -13 -2 -1 -14 -11 -27 -21 -22 -19 -22 -19 -47 4
-25 24 -24 50 1 29 12 -9 14 -5 14 30 0 22 5 41 10 41 6 0 10 -19 10 -41z
m-1626 16 c18 -13 22 -39 18 -111 -2 -31 -3 -32 -63 -38 -83 -10 -99 4 -99 89
0 34 3 65 7 68 12 13 118 7 137 -8z m764 -45 l3 -55 -86 0 -85 0 0 46 c0 62
11 70 95 67 l70 -3 3 -55z m-13166 39 c16 -9 23 -8 29 2 6 10 9 3 9 -18 0 -29
-3 -33 -25 -33 -14 0 -25 5 -25 10 0 6 5 10 12 10 9 0 9 3 1 11 -16 16 -60 3
-68 -21 -17 -53 56 -84 88 -37 9 12 16 16 16 10 1 -19 -36 -53 -57 -53 -31 0
-62 29 -62 59 0 36 20 61 58 70 2 1 13 -4 24 -10z m11866 -39 l27 -1 -23 -19
c-17 -14 -21 -25 -16 -45 6 -24 5 -25 -19 -14 -18 8 -30 8 -46 0 -19 -11 -21
-9 -21 15 0 15 -7 36 -17 46 -15 17 -15 18 9 18 17 0 29 8 37 27 l13 28 14
-28 c10 -19 23 -27 42 -27z m2912 40 c0 -5 -4 -10 -10 -10 -5 0 -10 5 -10 10
0 6 5 10 10 10 6 0 10 -4 10 -10z m-14373 -11 c16 -16 5 -39 -17 -39 -23 0
-32 13 -24 34 7 19 25 21 41 5z m1633 -50 c0 -37 -4 -58 -10 -54 -5 3 -10 31
-10 61 0 30 5 54 10 54 6 0 10 -27 10 -61z m10714 35 c29 -28 12 -84 -26 -84
-11 0 -27 -8 -34 -17 -12 -16 -13 -15 -14 10 0 15 -4 27 -10 27 -14 0 -12 54
2 68 17 17 64 15 82 -4z m-12281 -1 c-7 -2 -21 -2 -30 0 -10 3 -4 5 12 5 17 0
24 -2 18 -5z m998 0 c0 -5 1 -27 2 -51 2 -49 -16 -52 -21 -3 -4 43 -28 34 -25
-10 1 -30 0 -32 -12 -16 -11 15 -13 16 -19 2 -3 -8 -10 -15 -16 -15 -6 0 -5 7
2 20 10 16 10 24 0 40 -7 13 -8 20 -2 20 6 0 13 -7 17 -16 5 -15 7 -15 15 0 5
9 16 16 23 16 8 0 15 5 15 10 0 11 20 14 21 3z m-751 -68 c0 -30 -4 -55 -10
-55 -5 0 -10 9 -10 20 0 13 -5 18 -15 14 -19 -8 -45 13 -45 35 0 25 20 41 52
41 27 0 28 -1 28 -55z m30 14 c0 -41 24 -33 28 9 5 46 22 39 22 -9 0 -39 -1
-40 -32 -37 -30 3 -33 6 -36 42 -2 25 0 36 7 31 6 -3 11 -20 11 -36z m77 -21
c-2 -13 -4 -3 -4 22 0 25 2 35 4 23 2 -13 2 -33 0 -45z m64 33 c-26 -36 -26
-41 -2 -41 10 0 21 9 24 19 2 11 15 21 28 23 l24 5 -25 11 -25 12 25 -3 c21
-2 25 -8 28 -37 l3 -36 -66 -2 c-63 -2 -65 -1 -55 17 5 11 15 23 20 26 15 10
12 23 -7 28 -10 3 -3 5 15 6 l33 1 -20 -29z m167 -8 c3 -28 -1 -33 -22 -39
-14 -3 -26 -12 -26 -20 0 -8 -4 -14 -10 -14 -5 0 -10 25 -10 56 l0 55 33 -3
c28 -3 32 -7 35 -35z m86 15 c14 -23 -3 -52 -32 -56 -11 -2 -23 -11 -25 -20
-3 -9 -5 8 -6 39 -1 54 0 56 25 55 15 -1 32 -9 38 -18z m133 -23 c1 -40 1 -40
-5 -6 -9 44 -29 51 -38 14 -10 -48 -12 -49 -13 -7 -1 39 1 41 27 40 24 -1 27
-5 29 -41z m81 33 c19 -19 14 -28 -13 -28 -16 0 -25 -6 -25 -16 0 -11 6 -15
20 -11 11 3 20 1 20 -4 0 -13 -34 -11 -48 3 -22 22 -7 68 23 68 6 0 16 -5 23
-12z m212 -27 c0 -51 -8 -71 -29 -70 -10 0 -11 2 -3 6 7 3 12 24 12 54 0 27 5
49 10 49 6 0 10 -18 10 -39z m48 32 c-24 -6 -23 -15 3 -31 16 -11 18 -16 9
-28 -14 -16 -36 -19 -44 -5 -4 5 3 7 14 4 27 -7 26 11 -2 29 -25 17 -17 39 15
37 17 -1 18 -2 5 -6z m79 -20 l10 -28 12 29 c6 16 14 26 17 23 3 -2 -2 -22
-11 -43 -17 -41 -26 -38 -43 14 -13 39 0 43 15 5z m111 15 c19 -19 14 -28 -13
-28 -16 0 -25 -6 -25 -16 0 -11 6 -15 20 -11 11 3 20 1 20 -4 0 -13 -34 -11
-48 3 -22 22 -7 68 23 68 6 0 16 -5 23 -12z m49 -1 c-9 -7 -18 -25 -20 -42 -3
-25 -4 -23 -6 10 -1 35 2 41 20 42 19 2 19 0 6 -10z m56 3 c-14 -6 -23 -18
-23 -30 0 -12 10 -25 23 -30 22 -10 22 -10 -3 -7 -43 4 -41 78 2 76 l23 0 -22
-9z m95 -12 c2 -11 -3 -18 -12 -18 -10 0 -13 6 -9 16 4 12 2 15 -8 12 -8 -3
-14 -15 -14 -29 0 -18 5 -24 22 -23 12 0 20 -3 17 -8 -15 -23 -64 1 -64 32 0
39 61 54 68 18z m140 -19 c3 -34 1 -37 -25 -37 -15 0 -31 5 -35 11 -8 14 9 37
28 37 8 0 14 5 14 11 0 6 -9 9 -20 6 -11 -3 -17 -1 -14 5 3 5 16 8 27 6 17 -2
23 -11 25 -39z m77 1 c0 -29 -4 -36 -22 -38 -13 -2 -23 -10 -23 -18 0 -8 -4
-14 -10 -14 -5 0 -10 25 -10 56 l0 55 33 -3 c29 -3 32 -6 32 -38z m90 0 c0
-29 -4 -36 -22 -38 -13 -2 -23 -10 -23 -18 0 -8 -4 -14 -10 -14 -5 0 -10 25
-10 56 l0 55 33 -3 c29 -3 32 -6 32 -38z m12467 25 c0 -5 -5 -11 -11 -13 -6
-2 -11 4 -11 13 0 9 5 15 11 13 6 -2 11 -8 11 -13z m-14294 -38 c4 -20 -25
-34 -40 -19 -15 15 -1 44 19 40 10 -2 19 -11 21 -21z m709 17 c-3 -3 -12 -4
-19 -1 -8 3 -5 6 6 6 11 1 17 -2 13 -5z m330 0 c-3 -3 -12 -4 -19 -1 -8 3 -5
6 6 6 11 1 17 -2 13 -5z m-1109 -21 c-10 -2 -26 -2 -35 0 -10 3 -2 5 17 5 19
0 27 -2 18 -5z m13542 -8 c0 -12 13 -15 60 -15 47 0 60 3 60 15 0 8 5 15 11
15 6 0 9 -10 7 -22 -3 -22 -8 -23 -78 -23 -70 0 -75 1 -78 23 -2 12 1 22 7 22
6 0 11 -7 11 -15z m-12290 1 c0 -3 -4 -8 -10 -11 -5 -3 -10 -1 -10 4 0 6 5 11
10 11 6 0 10 -2 10 -4z m13110 -11 c0 -8 -4 -15 -10 -15 -5 0 -10 7 -10 15 0
8 5 15 10 15 6 0 10 -7 10 -15z m-6015 -1918 l27 -22 -1 -2065 -1 -2065 -26
-23 -25 -22 -1829 0 -1829 0 -26 27 -25 28 0 2056 0 2056 25 27 24 26 1830 0
1830 0 26 -23z m4635 -1857 c0 -5 -2 -10 -4 -10 -3 0 -8 5 -11 10 -3 6 -1 10
4 10 6 0 11 -4 11 -10z m-6093 -3407 c-218 -2 -576 -2 -795 0 -218 1 -39 2
398 2 437 0 616 -1 397 -2z m-1107 -148 c64 -33 47 -110 -29 -132 -24 -7 -52
-15 -62 -18 -15 -5 -19 -1 -19 19 0 13 -4 36 -9 49 -12 30 5 67 39 84 33 17
45 16 80 -2z m1553 -1 c9 -10 -4 -34 -18 -34 -17 0 -28 17 -20 30 7 11 28 13
38 4z m-1190 -39 c34 -71 14 -105 -61 -105 -78 0 -92 7 -92 47 0 19 7 47 15
63 14 28 20 30 68 30 51 0 54 -1 70 -35z m418 9 c25 -22 24 -59 -2 -85 -31
-31 -105 -24 -132 13 -38 50 9 103 82 93 18 -2 42 -12 52 -21z m281 14 c-9 -9
-15 -9 -24 0 -9 9 -7 12 12 12 19 0 21 -3 12 -12z m428 2 c0 -5 -21 -10 -46
-10 -27 0 -43 4 -39 10 3 6 24 10 46 10 21 0 39 -4 39 -10z m-478 -22 c-6 -6
-15 -8 -19 -4 -4 4 -1 11 7 16 19 12 27 3 12 -12z m98 2 c0 -5 -4 -10 -9 -10
-6 0 -13 5 -16 10 -3 6 1 10 9 10 9 0 16 -4 16 -10z m-30 -39 c0 -21 -22 -33
-45 -25 -18 7 -20 35 -3 52 15 15 48 -3 48 -27z m-103 -3 c-3 -8 -6 -5 -6 6
-1 11 2 17 5 13 3 -3 4 -12 1 -19z m150 0 c-3 -8 -6 -5 -6 6 -1 11 2 17 5 13
3 -3 4 -12 1 -19z m580 0 c-3 -8 -6 -5 -6 6 -1 11 2 17 5 13 3 -3 4 -12 1 -19z
m-189 5 c-21 -2 -57 -2 -80 0 -24 2 -7 4 37 4 44 0 63 -2 43 -4z m-504 -39 c4
-10 1 -14 -6 -12 -15 5 -23 28 -10 28 5 0 13 -7 16 -16z m94 4 c-2 -6 -10 -14
-16 -16 -7 -2 -10 2 -6 12 7 18 28 22 22 4z m437 -18 c-3 -5 -35 -10 -70 -10
-35 0 -67 5 -70 10 -4 6 22 10 70 10 48 0 74 -4 70 -10z m-482 -7 c-7 -2 -19
-2 -25 0 -7 3 -2 5 12 5 14 0 19 -2 13 -5z"/>
<path d="M1027 8832 c-18 -20 -23 -62 -8 -62 5 0 7 9 4 20 -8 29 20 51 56 44
17 -4 31 -11 31 -16 0 -5 -5 -6 -12 -2 -7 5 -8 3 -3 -6 6 -10 4 -12 -10 -6
-15 5 -16 4 -5 -8 10 -13 14 -13 26 -1 21 20 17 34 -12 45 -36 14 -49 13 -67
-8z"/>
<path d="M1051 8814 c0 -11 3 -14 6 -6 3 7 2 16 -1 19 -3 4 -6 -2 -5 -13z"/>
<path d="M1062 8770 c2 -10 -5 -15 -20 -14 -28 1 -16 -12 18 -21 19 -4 31 0
44 14 11 13 14 21 7 21 -6 0 -14 -7 -17 -15 -4 -8 -14 -15 -23 -15 -14 0 -14
2 -1 10 12 8 13 11 2 22 -11 11 -13 10 -10 -2z"/>
<path d="M15268 8833 c12 -2 30 -2 40 0 9 3 -1 5 -23 4 -22 0 -30 -2 -17 -4z"/>
<path d="M15230 8785 c0 -34 1 -35 40 -35 39 0 40 1 40 35 0 34 -1 35 -40 35
-39 0 -40 -1 -40 -35z"/>
<path d="M9380 8790 c0 -5 5 -10 10 -10 6 0 10 5 10 10 0 6 -4 10 -10 10 -5 0
-10 -4 -10 -10z"/>
<path d="M11777 8793 c-13 -12 -7 -43 8 -43 9 0 15 9 15 25 0 24 -10 32 -23
18z"/>
<path d="M4496 8791 c-9 -14 5 -42 18 -38 15 5 14 39 -1 44 -6 2 -14 0 -17 -6z"/>
<path d="M4577 8793 c-13 -12 -7 -43 8 -43 9 0 15 9 15 25 0 24 -10 32 -23 18z"/>
<path d="M6207 8787 c-3 -8 -1 -20 4 -28 11 -19 34 3 26 25 -8 20 -23 21 -30
3z"/>
<path d="M6503 8784 c-8 -21 13 -42 28 -27 13 13 5 43 -11 43 -6 0 -13 -7 -17
-16z"/>
<path d="M6580 8775 c0 -16 6 -25 15 -25 9 0 15 9 15 25 0 16 -6 25 -15 25 -9
0 -15 -9 -15 -25z"/>
<path d="M8810 8790 c0 -5 5 -10 10 -10 6 0 10 5 10 10 0 6 -4 10 -10 10 -5 0
-10 -4 -10 -10z"/>
<path d="M8870 8760 c0 -5 5 -10 10 -10 6 0 10 5 10 10 0 6 -4 10 -10 10 -5 0
-10 -4 -10 -10z"/>
<path d="M8980 8790 c0 -5 7 -10 16 -10 8 0 12 5 9 10 -3 6 -10 10 -16 10 -5
0 -9 -4 -9 -10z"/>
<path d="M9180 8790 c0 -5 5 -10 11 -10 5 0 7 5 4 10 -3 6 -8 10 -11 10 -2 0
-4 -4 -4 -10z"/>
<path d="M9460 8775 c0 -14 5 -25 10 -25 6 0 10 11 10 25 0 14 -4 25 -10 25
-5 0 -10 -11 -10 -25z"/>
<path d="M9537 8794 c-11 -11 -8 -44 3 -44 15 0 24 30 13 41 -5 5 -12 6 -16 3z"/>
<path d="M12304 8785 c-7 -18 3 -35 22 -35 8 0 14 10 14 25 0 27 -27 35 -36
10z"/>
<path d="M14405 8390 c-4 -7 -2 -17 4 -23 14 -14 15 -57 1 -57 -5 0 -10 -7
-10 -15 0 -12 13 -15 60 -15 l61 0 -3 58 -3 57 -52 3 c-30 2 -54 -2 -58 -8z"/>
<path d="M13277 8403 c-4 -3 -7 -30 -7 -58 0 -68 17 -83 88 -77 l52 4 0 59 c0
47 -4 60 -19 69 -22 11 -104 14 -114 3z m88 -13 c-28 -12 -75 -12 -75 0 0 6
21 10 48 9 35 0 42 -3 27 -9z m35 -59 l0 -49 -50 -4 -50 -3 0 47 c0 43 2 47
28 51 73 11 72 11 72 -42z"/>
<path d="M13320 8325 c0 -19 4 -35 9 -35 5 0 7 10 5 23 l-5 22 17 -22 c24 -33
34 -28 33 15 0 26 -3 32 -8 19 -6 -17 -8 -17 -20 -3 -21 25 -31 19 -31 -19z"/>
<path d="M12795 8356 c-17 -9 -19 -15 -10 -31 15 -30 52 -30 58 0 3 16 0 25
-9 25 -7 0 -14 4 -16 8 -1 4 -12 3 -23 -2z"/>
<path d="M13684 8356 c-3 -8 -4 -21 -1 -28 3 -7 6 -3 6 10 1 13 7 22 17 22 12
0 15 -6 10 -25 -5 -19 -2 -25 9 -25 12 0 15 8 13 28 -3 31 -44 45 -54 18z"/>
<path d="M1664 8336 c-8 -22 3 -49 19 -43 6 2 12 14 12 27 0 27 -22 39 -31 16z"/>
<path d="M1930 8305 c0 -8 4 -15 9 -15 5 0 11 7 15 15 3 9 0 15 -9 15 -8 0
-15 -7 -15 -15z"/>
<path d="M2014 8335 c-4 -8 -3 -23 0 -32 6 -15 8 -15 22 -2 8 9 12 23 8 32 -8
21 -23 22 -30 2z"/>
<path d="M2094 8336 c-8 -22 3 -49 19 -43 6 2 12 14 12 27 0 27 -22 39 -31 16z"/>
<path d="M2320 8340 c0 -5 7 -10 16 -10 8 0 12 5 9 10 -3 6 -10 10 -16 10 -5
0 -9 -4 -9 -10z"/>
<path d="M2770 8340 c0 -5 7 -10 16 -10 8 0 12 5 9 10 -3 6 -10 10 -16 10 -5
0 -9 -4 -9 -10z"/>
<path d="M3102 8309 c2 -6 8 -10 13 -10 5 0 11 4 13 10 2 6 -4 11 -13 11 -9 0
-15 -5 -13 -11z"/>
<path d="M3184 8336 c-8 -22 3 -49 19 -43 6 2 12 14 12 27 0 27 -22 39 -31 16z"/>
<path d="M3270 8320 c0 -35 25 -42 35 -10 8 24 -1 40 -21 40 -9 0 -14 -11 -14
-30z"/>
<path d="M1456 8311 c-4 -5 -2 -12 3 -15 5 -4 12 -2 15 3 4 5 2 12 -3 15 -5 4
-12 2 -15 -3z"/>
<path d="M7409 5961 c-19 -15 -24 -29 -24 -66 0 -39 5 -51 29 -72 22 -18 37
-24 60 -20 17 2 39 0 49 -5 23 -12 46 1 23 14 -12 7 -14 14 -6 28 5 10 10 35
10 55 0 72 -85 112 -141 66z m93 -28 c32 -28 20 -83 -17 -80 -11 1 -19 -3 -17
-10 3 -16 -3 -16 -29 -3 -22 12 -27 78 -7 98 17 17 48 15 70 -5z"/>
<path d="M7740 5970 c0 -5 7 -10 15 -10 8 0 15 5 15 10 0 6 -7 10 -15 10 -8 0
-15 -4 -15 -10z"/>
<path d="M8031 5958 c-60 -162 -59 -158 -37 -158 7 0 16 9 19 20 4 16 14 20
45 20 32 0 42 -4 47 -20 3 -11 15 -20 25 -20 16 0 15 8 -15 88 -25 69 -36 88
-53 90 -15 2 -25 -4 -31 -20z m43 -40 c10 -38 7 -48 -12 -48 -27 0 -31 8 -19
41 14 35 23 37 31 7z"/>
<path d="M7580 5883 c0 -66 9 -76 69 -79 l51 -2 0 64 c0 50 -3 64 -15 64 -11
0 -15 -11 -15 -38 0 -21 -6 -47 -14 -57 -22 -30 -46 -3 -46 51 0 32 -4 44 -15
44 -11 0 -15 -12 -15 -47z"/>
<path d="M7739 5926 c-2 -2 -2 -32 -1 -65 3 -44 8 -61 18 -61 11 0 14 16 14
65 0 48 -4 65 -13 65 -8 0 -16 -2 -18 -4z"/>
<path d="M7800 5920 c0 -5 11 -10 25 -10 32 0 31 -4 -5 -50 -16 -21 -30 -43
-30 -49 0 -7 21 -11 55 -11 30 0 55 5 55 10 0 6 -13 10 -30 10 -16 0 -30 3
-30 6 0 3 14 23 30 44 17 21 30 43 30 49 0 7 -20 11 -50 11 -27 0 -50 -4 -50
-10z"/>
<path d="M8170 5839 c0 -72 3 -89 15 -89 11 0 15 11 15 37 0 29 3 34 12 25 31
-31 78 3 78 56 0 43 -22 61 -75 60 l-45 -1 0 -88z m86 44 c8 -29 -6 -58 -26
-58 -20 0 -34 29 -26 58 4 18 13 27 26 27 13 0 22 -9 26 -27z"/>
<path d="M8320 5839 c0 -72 3 -89 15 -89 10 0 15 10 15 31 0 28 2 31 24 25 34
-8 52 1 66 34 9 23 9 34 -2 57 -12 25 -19 28 -66 29 l-52 2 0 -89z m91 47 c13
-28 -3 -66 -27 -66 -23 0 -38 43 -25 69 15 28 39 27 52 -3z"/>
<path d="M8258 5393 c7 -3 16 -2 19 1 4 3 -2 6 -13 5 -11 0 -14 -3 -6 -6z"/>
<path d="M8358 5353 c6 -2 18 -2 25 0 6 3 1 5 -13 5 -14 0 -19 -2 -12 -5z"/>
<path d="M6443 5008 c2 -7 10 -39 17 -70 17 -76 39 -78 61 -5 l15 52 15 -50
c21 -70 43 -71 59 -3 6 29 14 61 17 71 3 10 -1 17 -10 17 -10 0 -18 -14 -22
-40 -4 -22 -10 -40 -15 -40 -5 0 -11 18 -15 40 -5 30 -11 40 -25 40 -14 0 -23
-12 -31 -40 -7 -22 -16 -40 -20 -40 -4 0 -10 18 -14 40 -4 26 -12 40 -22 40
-8 0 -13 -6 -10 -12z"/>
<path d="M6650 4950 c0 -54 3 -70 14 -70 10 0 16 14 18 43 2 29 8 42 18 42 10
0 16 -13 18 -42 2 -24 8 -43 13 -43 6 0 9 22 7 53 -3 49 -4 52 -30 52 -20 -1
-28 4 -28 17 0 10 -7 18 -15 18 -12 0 -15 -14 -15 -70z"/>
<path d="M6895 5001 c-14 -17 -16 -24 -7 -33 7 -7 12 -29 12 -50 0 -31 4 -38
20 -38 11 0 20 5 20 10 0 6 -4 10 -10 10 -15 0 -12 67 3 73 8 4 9 8 1 14 -6 4
-13 14 -15 21 -3 10 -10 8 -24 -7z"/>
<path d="M7028 5013 c7 -3 16 -2 19 1 4 3 -2 6 -13 5 -11 0 -14 -3 -6 -6z"/>
<path d="M7257 5005 c-10 -9 -16 -25 -13 -34 2 -9 7 -33 11 -53 4 -29 11 -38
25 -38 11 0 20 5 20 10 0 6 -4 10 -10 10 -15 0 -12 67 3 73 8 4 9 8 1 14 -6 4
-13 14 -15 22 -4 11 -8 10 -22 -4z"/>
<path d="M7320 4950 c0 -54 3 -70 14 -70 10 0 16 14 18 43 2 29 8 42 18 42 10
0 16 -13 18 -42 4 -57 32 -61 32 -5 0 49 -20 77 -49 69 -16 -4 -21 -1 -21 14
0 10 -7 19 -15 19 -12 0 -15 -14 -15 -70z"/>
<path d="M7988 5013 c7 -3 16 -2 19 1 4 3 -2 6 -13 5 -11 0 -14 -3 -6 -6z"/>
<path d="M8042 5003 c-5 -10 -6 -40 -3 -68 5 -42 10 -51 29 -53 12 -2 22 1 22
7 0 6 -4 11 -10 11 -15 0 -12 67 3 74 10 5 10 7 0 12 -7 3 -13 12 -13 20 0 20
-17 18 -28 -3z"/>
<path d="M8230 4950 c0 -40 4 -70 10 -70 6 0 10 30 10 70 0 40 -4 70 -10 70
-6 0 -10 -30 -10 -70z"/>
<path d="M8472 5001 c-12 -33 -2 -121 14 -121 10 0 14 13 14 44 0 26 5 46 13
49 10 4 10 6 0 6 -7 1 -13 7 -13 15 0 8 6 17 13 19 6 3 2 6 -11 6 -14 1 -25
-7 -30 -18z"/>
<path d="M8600 4950 c0 -40 4 -70 10 -70 6 0 10 14 10 30 0 27 3 30 30 30 20
0 30 5 30 15 0 10 -10 15 -30 15 -20 0 -30 5 -30 15 0 10 11 15 35 15 19 0 35
5 35 10 0 6 -20 10 -45 10 l-45 0 0 -70z"/>
<path d="M9283 5005 c-8 -23 2 -28 26 -13 29 18 51 -3 29 -29 -25 -30 -30 -43
-16 -42 7 0 23 13 36 29 19 24 21 33 12 50 -13 25 -77 29 -87 5z"/>
<path d="M6785 4979 c-10 -16 3 -23 18 -11 8 7 17 9 20 5 14 -13 6 -24 -24
-35 -23 -8 -29 -16 -27 -32 2 -17 11 -22 46 -24 l42 -3 0 49 c0 36 -4 52 -16
56 -24 9 -52 7 -59 -5z m45 -63 c0 -16 -18 -31 -27 -22 -8 8 5 36 17 36 5 0
10 -6 10 -14z"/>
<path d="M7020 4935 c0 -42 3 -55 15 -55 12 0 15 13 15 55 0 42 -3 55 -15 55
-12 0 -15 -13 -15 -55z"/>
<path d="M7082 4978 c-21 -21 -13 -39 24 -54 28 -12 34 -18 25 -27 -9 -9 -16
-9 -31 1 -10 6 -21 8 -24 3 -9 -14 5 -21 39 -21 62 0 69 49 10 64 -14 4 -25
13 -25 21 0 18 12 19 27 4 6 -6 17 -8 23 -4 9 6 9 10 -1 16 -20 12 -53 11 -67
-3z"/>
<path d="M7456 4974 c-20 -19 -21 -68 -2 -83 17 -14 72 -11 68 4 -1 5 -12 10
-24 10 -12 0 -23 6 -25 13 -3 8 7 12 31 12 40 0 43 5 20 38 -18 26 -46 28 -68
6z m52 -22 c2 -7 -6 -12 -17 -12 -21 0 -27 11 -14 24 9 9 26 2 31 -12z"/>
<path d="M7632 4978 c-17 -17 -15 -73 2 -87 19 -16 68 -10 74 8 3 10 -3 12
-26 6 -25 -5 -31 -3 -37 16 -10 29 18 58 39 40 11 -9 16 -9 21 0 16 24 -50 40
-73 17z"/>
<path d="M7740 4975 c-10 -12 -10 -15 3 -15 9 0 19 5 22 10 4 6 11 8 16 5 17
-11 9 -26 -22 -37 -23 -8 -29 -16 -27 -32 2 -17 11 -22 46 -24 l42 -3 0 49 c0
36 -4 52 -16 56 -26 10 -51 7 -64 -9z m50 -59 c0 -16 -18 -31 -27 -22 -8 8 5
36 17 36 5 0 10 -6 10 -14z"/>
<path d="M7852 4912 c2 -45 7 -76 13 -75 6 1 11 11 13 23 3 15 11 20 32 20 30
0 40 15 40 60 0 36 -16 48 -63 48 l-38 0 3 -76z m74 32 c8 -29 -7 -49 -30 -41
-16 6 -22 48 -9 60 14 15 33 6 39 -19z"/>
<path d="M7980 4935 c0 -42 3 -55 15 -55 12 0 15 13 15 55 0 42 -3 55 -15 55
-12 0 -15 -13 -15 -55z"/>
<path d="M8115 4979 c-10 -16 3 -23 18 -11 8 7 17 9 20 5 14 -13 6 -24 -24
-35 -23 -8 -29 -16 -27 -32 2 -17 11 -22 46 -24 l42 -3 0 49 c0 36 -4 52 -16
56 -24 9 -52 7 -59 -5z m45 -63 c0 -16 -18 -31 -27 -22 -8 8 5 36 17 36 5 0
10 -6 10 -14z"/>
<path d="M8344 4965 c-10 -15 -13 -32 -8 -47 9 -29 22 -38 56 -38 45 0 65 62
30 93 -27 24 -59 21 -78 -8z m61 -31 c0 -22 -5 -29 -20 -29 -23 0 -32 30 -14
51 18 22 34 11 34 -22z"/>
<path d="M8720 4933 c0 -40 4 -53 15 -53 11 0 15 11 15 40 0 27 5 43 15 46 25
10 17 23 -15 22 -29 -1 -30 -2 -30 -55z"/>
<path d="M8810 4975 c-15 -18 1 -20 18 -3 9 9 15 9 23 1 15 -15 3 -33 -20 -33
-24 0 -43 -23 -35 -44 4 -11 19 -16 49 -16 l42 0 -1 43 c-1 23 -5 48 -10 55
-10 17 -51 15 -66 -3z m50 -59 c0 -8 -5 -18 -11 -22 -14 -8 -33 11 -25 25 10
16 36 13 36 -3z"/>
<path d="M8920 4933 c0 -39 4 -53 14 -53 10 0 16 14 18 43 2 29 8 42 18 42 10
0 16 -13 18 -42 2 -24 8 -43 13 -43 6 0 9 22 7 53 l-3 52 -42 1 -43 1 0 -54z"/>
<path d="M9058 4979 c-21 -12 -24 -69 -6 -87 17 -17 63 -15 79 4 11 14 9 15
-24 9 -36 -7 -37 -6 -37 23 0 35 15 49 35 32 10 -8 15 -8 20 1 15 23 -35 37
-67 18z"/>
<path d="M9164 4965 c-25 -38 -7 -79 36 -83 18 -2 37 1 43 7 8 8 7 11 -3 12
-8 1 -23 2 -32 3 -31 2 -24 21 10 24 37 4 45 34 13 52 -31 16 -49 12 -67 -15z
m60 -10 c4 -11 -1 -15 -19 -15 -24 0 -32 10 -18 23 11 12 31 8 37 -8z"/>
<path d="M9310 4890 c0 -5 7 -10 15 -10 8 0 15 5 15 10 0 6 -7 10 -15 10 -8 0
-15 -4 -15 -10z"/>
<path d="M7742 4343 c0 -38 3 -53 5 -35 4 28 8 32 33 32 38 0 57 31 34 54 -8
9 -29 16 -45 16 l-29 0 2 -67z m57 48 c21 -13 5 -41 -24 -41 -18 0 -25 5 -25
18 0 31 21 41 49 23z"/>
<path d="M7850 4359 c0 -5 5 -7 10 -4 6 3 10 8 10 11 0 2 -4 4 -10 4 -5 0 -10
-5 -10 -11z"/>
<path d="M7896 4359 c3 -6 0 -15 -7 -20 -10 -6 -11 -9 -1 -9 18 0 15 -27 -4
-34 -23 -9 -37 3 -23 20 7 9 8 14 1 14 -19 0 -25 -21 -11 -36 8 -8 24 -11 37
-8 18 5 22 13 22 45 0 22 -5 39 -11 39 -5 0 -7 -5 -3 -11z"/>
<path d="M7941 4328 c2 -35 3 -37 6 -13 3 17 9 36 15 43 8 9 6 12 -6 12 -12 0
-16 -9 -15 -42z"/>
<path d="M7990 4330 c0 -22 5 -40 10 -40 6 0 10 18 10 40 0 22 -4 40 -10 40
-5 0 -10 -18 -10 -40z"/>
<path d="M8037 4363 c-13 -12 -7 -24 18 -33 14 -5 25 -14 25 -19 0 -18 -21
-23 -38 -10 -16 12 -16 12 -1 -4 19 -21 49 -13 49 14 0 12 -10 21 -26 25 -16
4 -23 12 -20 20 6 15 3 18 -7 7z"/>
<path d="M7715 3860 c-4 -6 8 -10 29 -10 25 0 36 -4 36 -15 0 -10 -10 -15 -31
-15 -20 0 -28 4 -23 12 4 6 3 8 -4 4 -6 -3 -10 -15 -9 -26 1 -23 2 -23 26 -10
13 6 24 5 37 -4 15 -12 16 -16 5 -30 -17 -20 -51 -21 -51 0 0 8 -4 13 -10 9
-20 -13 3 -36 33 -33 35 4 54 27 42 54 -4 11 -7 27 -6 38 2 10 -3 23 -11 27
-18 12 -55 11 -63 -1z"/>
<path d="M7973 3800 c0 -36 2 -50 4 -32 2 17 2 47 0 65 -2 17 -4 3 -4 -33z"/>
<path d="M7831 3816 c-16 -20 -10 -56 11 -70 14 -8 21 -6 35 9 14 14 14 16 2
7 -9 -7 -24 -10 -33 -6 -26 10 -18 24 15 24 26 0 30 3 27 23 -4 26 -39 35 -57
13z m49 -11 c0 -9 -9 -15 -25 -15 -24 0 -32 10 -18 23 12 13 43 7 43 -8z"/>
<path d="M7922 3788 c1 -41 1 -41 5 -8 3 19 10 38 16 42 8 5 6 8 -5 8 -15 0
-18 -8 -16 -42z"/>
<path d="M8013 3785 c0 -27 2 -38 4 -22 2 15 2 37 0 50 -2 12 -4 0 -4 -28z"/>
<path d="M8053 3785 c0 -27 2 -38 4 -22 2 15 2 37 0 50 -2 12 -4 0 -4 -28z"/>
<path d="M8082 3824 c11 -4 18 -19 21 -45 l4 -39 -1 42 c-1 35 -5 43 -21 45
-15 1 -15 0 -3 -3z"/>
<path d="M7700 3260 c0 -33 4 -60 10 -60 6 0 10 14 10 30 0 40 22 39 54 -2 27
-34 37 -28 11 6 -13 17 -13 22 0 36 18 20 10 50 -14 49 -10 0 -11 -2 -3 -6 6
-2 12 -13 12 -24 0 -14 -7 -19 -30 -19 -25 0 -30 4 -30 25 0 14 -4 25 -10 25
-6 0 -10 -27 -10 -60z"/>
<path d="M7832 3278 c-16 -16 -15 -53 3 -68 19 -16 52 -4 58 22 12 44 -31 76
-61 46z m43 -33 c0 -23 -4 -30 -20 -30 -21 0 -31 25 -21 51 11 28 41 12 41
-21z"/>
<path d="M7921 3241 l2 -46 6 40 c4 26 11 40 21 40 10 0 17 -14 21 -40 l5 -40
5 40 c3 27 9 41 21 43 13 3 18 -6 21 -40 l4 -43 -1 45 -1 45 -52 1 -53 1 1
-46z"/>
<path d="M8062 3278 c-16 -16 -15 -53 3 -68 18 -15 47 -10 53 10 5 13 3 13
-12 1 -15 -12 -19 -12 -34 2 -15 16 -14 17 17 17 28 0 32 3 29 23 -3 25 -36
35 -56 15z m48 -13 c0 -16 -35 -21 -44 -6 -8 12 4 21 26 21 10 0 18 -7 18 -15z"/>
<path d="M7672 2718 l1 -63 6 50 c6 53 11 52 30 -8 11 -33 31 -43 31 -16 0 6
-4 8 -9 5 -5 -4 -15 16 -22 44 -19 73 -39 66 -37 -12z"/>
<path d="M7757 2758 c-4 -12 -4 -24 -2 -27 3 -2 6 2 7 10 0 8 4 -8 8 -36 l7
-50 1 63 c2 61 -10 83 -21 40z"/>
<path d="M7959 2758 c-3 -80 -4 -83 -24 -83 -27 0 -33 44 -9 62 10 7 13 13 8
13 -17 0 -34 -23 -34 -46 0 -27 19 -44 48 -41 20 1 22 7 22 59 0 32 -2 58 -5
58 -3 0 -5 -10 -6 -22z"/>
<path d="M8140 2761 c0 -14 -5 -18 -19 -14 -27 7 -47 -31 -32 -63 7 -17 18
-23 36 -22 24 2 25 6 25 60 0 32 -2 58 -5 58 -3 0 -5 -9 -5 -19z m-5 -57 c0
-19 -6 -30 -17 -32 -21 -4 -34 34 -17 54 18 22 34 11 34 -22z"/>
<path d="M7816 2742 c-3 -5 6 -7 19 -4 18 3 25 0 25 -12 0 -9 -8 -16 -19 -16
-23 0 -42 -22 -32 -38 4 -6 20 -11 37 -9 29 2 29 3 24 42 -4 31 -10 41 -27 43
-11 2 -24 -1 -27 -6z m42 -54 c-7 -19 -38 -22 -38 -4 0 10 9 16 21 16 12 0 19
-5 17 -12z"/>
<path d="M7990 2705 c0 -25 5 -45 10 -45 6 0 10 20 10 45 0 25 -4 45 -10 45
-5 0 -10 -20 -10 -45z"/>
<path d="M8053 2705 c0 -27 2 -38 4 -22 2 15 2 37 0 50 -2 12 -4 0 -4 -28z"/>
<path d="M7110 930 c-23 -23 -25 -36 -7 -73 11 -24 16 -26 47 -21 55 10 70 22
70 54 0 54 -71 79 -110 40z"/>
<path d="M7436 914 c-9 -23 -8 -24 18 -24 13 0 26 -6 29 -12 4 -10 7 -10 18 0
7 6 22 12 32 12 13 0 17 5 13 16 -3 9 -6 18 -6 20 0 2 -22 4 -49 4 -35 0 -51
-4 -55 -16z"/>
<path d="M7427 856 c-9 -22 2 -26 70 -26 56 0 63 2 63 20 0 22 -20 26 -52 9
-14 -8 -23 -8 -31 0 -15 15 -44 14 -50 -3z"/>
<path d="M7866 914 c-37 -36 -12 -74 49 -74 46 0 65 13 65 47 0 40 -82 60
-114 27z m59 -22 c7 -20 -19 -47 -39 -39 -19 7 -21 53 -3 60 18 6 35 -2 42
-21z"/>
<path d="M7886 893 c-11 -11 -6 -23 9 -23 8 0 15 4 15 9 0 13 -16 22 -24 14z"/>
<path d="M8240 885 c0 -8 5 -15 10 -15 6 0 10 7 10 15 0 8 -4 15 -10 15 -5 0
-10 -7 -10 -15z"/>
<path d="M15890 7995 c-11 -13 -8 -15 20 -15 28 0 31 2 20 15 -7 8 -16 15 -20
15 -4 0 -13 -7 -20 -15z"/>
<path d="M15605 2290 c-10 -17 22 -47 35 -34 7 7 4 16 -9 28 -14 12 -21 14
-26 6z"/>
<path d="M15682 2279 c-7 -12 -11 -23 -8 -26 8 -9 36 17 36 33 0 20 -13 17
-28 -7z"/>
<path d="M15625 2210 c-3 -5 -2 -10 4 -10 5 0 13 5 16 10 3 6 2 10 -4 10 -5 0
-13 -4 -16 -10z"/>
<path d="M15893 503 c16 -16 18 -16 34 0 16 16 15 17 -17 17 -32 0 -33 -1 -17
-17z"/>
<path d="M14897 344 c-15 -15 -6 -45 16 -53 l22 -9 -25 -11 -25 -11 25 3 c22
2 25 7 25 42 0 28 -5 41 -15 43 -9 1 -19 0 -23 -4z m33 -25 c0 -24 -23 -21
-28 4 -2 10 3 17 12 17 10 0 16 -9 16 -21z"/>
<path d="M14990 330 c0 -11 7 -20 15 -20 24 0 18 -38 -7 -43 -20 -5 -20 -5 2
-4 29 2 42 43 16 53 -21 8 -20 21 2 27 13 4 11 5 -5 6 -17 1 -23 -5 -23 -19z"/>
<path d="M15056 338 c-3 -7 -4 -26 -3 -43 2 -23 7 -31 24 -33 21 -3 23 0 20
40 -1 32 -7 44 -20 46 -9 2 -19 -2 -21 -10z m34 -13 c0 -8 -4 -15 -9 -15 -13
0 -22 16 -14 24 11 11 23 6 23 -9z m0 -40 c0 -8 -7 -15 -15 -15 -8 0 -15 7
-15 15 0 8 7 15 15 15 8 0 15 -7 15 -15z"/>
<path d="M15151 303 c1 -26 3 -41 6 -32 2 10 13 19 24 22 29 8 22 51 -8 55
-21 3 -23 0 -22 -45z m39 17 c0 -11 -7 -20 -15 -20 -8 0 -15 9 -15 20 0 11 7
20 15 20 8 0 15 -9 15 -20z"/>
<path d="M15221 303 c1 -40 2 -43 8 -19 l6 30 13 -28 c7 -16 15 -27 17 -24 7
6 -28 88 -37 88 -5 0 -7 -21 -7 -47z"/>
<path d="M15281 324 c-6 -15 -9 -29 -6 -32 3 -3 5 0 5 6 0 24 19 11 23 -15 2
-17 5 -10 6 20 1 52 -10 61 -28 21z"/>
<path d="M2981 314 c0 -11 3 -14 6 -6 3 7 2 16 -1 19 -3 4 -6 -2 -5 -13z"/>
<path d="M3247 312 c-9 -10 -17 -23 -17 -29 0 -5 -11 -20 -25 -33 -14 -13 -25
-31 -25 -41 0 -9 -10 -24 -22 -32 -22 -15 -22 -16 -3 -16 33 -1 102 36 120 62
10 16 15 37 11 58 -7 43 -19 53 -39 31z"/>
<path d="M5855 304 c-81 -73 -72 -68 -99 -51 -30 20 -46 4 -22 -22 15 -16 15
-20 -4 -41 -11 -12 -17 -27 -14 -31 8 -14 30 -11 44 6 17 21 19 20 74 -30 28
-25 53 -45 58 -45 4 0 8 11 8 25 0 23 -15 42 -65 79 l-20 15 20 15 c11 8 28
21 38 28 13 10 18 24 15 46 l-3 32 -30 -26z"/>
<path d="M6266 290 c-38 -38 -38 -40 -31 -94 7 -61 22 -83 63 -92 15 -4 33
-11 39 -16 19 -16 54 -2 97 37 38 36 38 36 31 93 -8 67 -21 85 -74 100 -63 19
-83 15 -125 -28z m89 20 c3 -5 -5 -15 -19 -22 -21 -9 -26 -18 -26 -50 0 -24
-4 -37 -10 -33 -5 3 -10 24 -10 45 0 29 6 43 22 54 26 19 35 20 43 6z m69 -26
c15 -15 21 -34 11 -34 -3 0 -14 6 -25 13 -17 10 -26 9 -50 -5 -16 -9 -32 -13
-35 -8 -3 5 11 18 32 29 47 25 48 25 67 5z m-123 -92 c16 -10 29 -20 29 -24 0
-11 -7 -10 -40 7 -41 21 -54 49 -38 78 13 21 13 21 16 -11 3 -25 11 -38 33
-50z m153 12 c3 -9 0 -25 -7 -37 -12 -21 -12 -21 -15 11 -2 24 -11 36 -33 47
-16 9 -27 20 -24 25 7 11 71 -26 79 -46z m-86 24 c7 -7 12 -17 12 -24 0 -19
-32 -26 -48 -10 -13 12 -13 18 -2 30 15 19 22 20 38 4z m42 -57 c0 -43 -20
-71 -51 -71 -27 0 -24 15 6 28 20 9 25 19 25 47 0 19 5 35 10 35 6 0 10 -18
10 -39z m-71 -15 c12 9 27 14 34 11 14 -5 -51 -47 -73 -47 -19 0 -40 19 -40
37 0 11 6 11 29 -1 25 -13 31 -13 50 0z"/>
<path d="M6815 317 c-41 -19 -51 -34 -59 -91 -7 -56 16 -104 59 -124 38 -17
50 -15 63 13 10 23 9 25 -11 25 -65 0 -92 79 -41 119 20 16 41 21 83 21 55 0
55 0 36 20 -26 25 -92 34 -130 17z m-35 -113 c0 -8 -5 -12 -10 -9 -6 4 -8 11
-5 16 9 14 15 11 15 -7z"/>
<path d="M7322 310 c-44 -27 -68 -83 -54 -128 6 -18 7 -45 2 -61 l-8 -28 89
-1 c72 -1 87 1 83 13 -4 10 -12 11 -29 5 -13 -5 -25 -6 -28 -4 -3 3 -23 5 -45
6 l-40 0 -7 55 c-8 67 7 108 46 128 35 19 72 19 108 1 28 -15 56 -61 46 -77
-4 -5 0 -9 8 -9 38 0 -19 93 -66 110 -44 15 -68 12 -105 -10z"/>
<path d="M258 283 c-12 -3 -18 -14 -18 -34 0 -28 2 -29 45 -29 45 0 45 0 45
35 0 32 -3 35 -27 34 -16 -1 -36 -3 -45 -6z"/>
<path d="M695 273 c-11 -11 -15 -26 -12 -47 4 -25 -2 -38 -27 -66 l-31 -35 35
31 c28 25 41 31 66 27 55 -9 87 53 46 90 -24 22 -56 22 -77 0z m73 -5 c28 -28
7 -78 -33 -78 -27 0 -45 18 -45 45 0 27 18 45 45 45 12 0 26 -5 33 -12z"/>
<path d="M3671 278 c-1 -15 8 -18 54 -18 46 0 55 3 54 18 0 10 -3 12 -6 5 -3
-8 -23 -13 -48 -13 -25 0 -45 5 -48 13 -3 7 -6 5 -6 -5z"/>
<path d="M3821 274 c0 -11 3 -14 6 -6 3 7 2 16 -1 19 -3 4 -6 -2 -5 -13z"/>
<path d="M5353 279 c-6 -6 -40 -12 -76 -14 -36 -1 -70 -6 -76 -9 -6 -4 -11
-30 -11 -57 0 -38 4 -51 18 -56 9 -4 23 -15 30 -25 14 -19 58 -26 47 -7 -4 6
2 13 13 16 11 3 23 11 25 18 3 6 30 26 61 44 65 36 73 62 26 86 -35 18 -43 18
-57 4z m-65 -41 c16 -16 15 -53 -2 -67 -8 -7 -27 -11 -43 -9 -24 3 -28 8 -31
37 -2 20 2 37 10 42 19 13 52 11 66 -3z"/>
<path d="M5240 206 c0 -17 5 -26 16 -26 10 0 14 7 12 22 -5 32 -28 35 -28 4z"/>
<path d="M15570 220 c0 -69 0 -70 27 -70 14 0 35 -7 45 -17 15 -14 18 -14 18
-1 0 24 39 68 61 68 16 0 19 7 19 45 l0 45 -85 0 -85 0 0 -70z m118 33 c-16
-2 -40 -2 -55 0 -16 2 -3 4 27 4 30 0 43 -2 28 -4z m-30 -70 c-10 -2 -26 -2
-35 0 -10 3 -2 5 17 5 19 0 27 -2 18 -5z"/>
<path d="M183 273 c-7 -2 -13 -16 -13 -29 0 -20 5 -24 30 -24 27 0 30 3 30 30
0 30 -14 37 -47 23z"/>
<path d="M13858 273 c12 -2 30 -2 40 0 9 3 -1 5 -23 4 -22 0 -30 -2 -17 -4z"/>
<path d="M14686 265 c4 -11 8 -36 8 -55 0 -19 -4 -44 -8 -55 -8 -17 -7 -18 5
-7 8 8 14 33 14 62 0 29 -6 54 -14 62 -12 11 -13 10 -5 -7z"/>
<path d="M1303 210 c0 -36 2 -50 4 -32 2 17 2 47 0 65 -2 17 -4 3 -4 -33z"/>
<path d="M4182 250 c-26 -24 -28 -47 -8 -95 16 -38 60 -65 109 -67 43 -1 96
27 97 52 0 3 -17 4 -38 2 -51 -5 -86 23 -87 70 -1 29 2 34 17 30 10 -2 18 0
18 6 0 11 -33 22 -66 22 -11 0 -30 -9 -42 -20z"/>
<path d="M7334 256 c-12 -30 9 -70 48 -91 31 -16 38 -17 52 -5 14 10 14 15 4
21 -7 5 -21 6 -31 3 -23 -7 -59 24 -52 45 2 9 0 23 -5 31 -8 12 -10 12 -16 -4z"/>
<path d="M13162 210 c0 -36 3 -57 7 -47 6 17 8 17 20 3 7 -9 18 -16 24 -16 5
0 2 9 -8 20 -14 16 -16 23 -7 32 20 20 13 32 -7 14 -19 -17 -20 -17 -24 21 -2
24 -4 14 -5 -27z"/>
<path d="M14046 251 c-5 -13 -4 -27 3 -34 6 -6 11 -22 11 -37 0 -20 2 -22 10
-10 6 10 10 11 10 3 0 -9 19 -13 59 -13 53 0 59 2 65 23 3 12 3 33 -1 45 -5
20 -11 22 -62 20 l-56 -2 53 -3 c52 -4 52 -4 52 -39 0 -22 -5 -34 -13 -34 -9
0 -12 10 -9 30 4 30 4 30 -42 30 -35 0 -46 4 -46 16 0 8 -4 13 -9 10 -5 -4
-11 0 -14 6 -2 7 -7 3 -11 -11z m24 -21 c0 -5 -2 -10 -4 -10 -3 0 -8 5 -11 10
-3 6 -1 10 4 10 6 0 11 -4 11 -10z"/>
<path d="M14580 255 c-7 -8 -19 -15 -26 -15 -9 0 -14 -12 -14 -35 0 -27 4 -35
18 -35 10 0 23 -5 30 -12 9 -9 12 2 12 50 0 34 -2 62 -4 62 -2 0 -9 -7 -16
-15z m10 -49 c0 -29 -3 -33 -20 -29 -25 7 -27 50 -2 56 9 3 18 5 20 6 1 0 2
-14 2 -33z"/>
<path d="M932 253 c13 -3 18 -18 21 -56 l3 -52 2 52 c2 40 6 53 20 56 9 3 -1
5 -23 5 -22 0 -32 -2 -23 -5z"/>
<path d="M1660 245 c-9 -32 4 -88 20 -92 10 -3 11 -2 3 4 -6 5 -13 31 -15 58
-2 28 -5 41 -8 30z"/>
<path d="M2213 205 c0 -33 2 -45 4 -27 2 18 2 45 0 60 -2 15 -4 0 -4 -33z"/>
<path d="M12466 252 c-3 -5 4 -8 16 -8 31 1 33 -20 4 -45 -36 -31 -33 -49 7
-48 31 2 31 2 3 6 l-28 5 27 28 c15 15 25 36 23 47 -3 19 -42 31 -52 15z"/>
<path d="M12555 244 c-21 -21 -16 -73 8 -88 14 -9 21 -7 32 8 16 22 4 56 -20
56 -23 0 -18 20 8 30 16 6 17 9 5 9 -9 1 -24 -6 -33 -15z m35 -65 c0 -33 -35
-20 -36 13 -1 23 2 26 17 17 11 -5 19 -19 19 -30z"/>
<path d="M12627 254 c-14 -15 -6 -34 14 -34 14 0 19 5 17 17 -3 18 -20 27 -31
17z m23 -14 c0 -5 -4 -10 -10 -10 -5 0 -10 5 -10 10 0 6 5 10 10 10 6 0 10 -4
10 -10z"/>
<path d="M12702 253 c-7 -3 -18 -16 -23 -30 -13 -36 12 -73 49 -72 21 1 22 2
7 6 -30 8 -45 23 -45 48 0 25 15 40 45 48 l20 5 -20 0 c-11 0 -26 -2 -33 -5z"/>
<path d="M12867 253 c-15 -14 -6 -40 18 -53 30 -16 28 -35 -4 -34 -11 0 -21
-3 -21 -8 0 -5 12 -8 28 -6 38 4 42 40 7 56 -31 14 -28 34 6 43 l24 7 -26 1
c-14 1 -29 -2 -32 -6z"/>
<path d="M14354 226 c-24 -24 -34 -43 -33 -62 l1 -29 7 31 c10 42 18 53 55 75
17 10 25 19 18 19 -8 0 -29 -15 -48 -34z"/>
<path d="M14650 257 c0 -3 5 -17 11 -30 8 -18 8 -31 -1 -48 -11 -23 -11 -23 5
-4 10 13 14 29 10 45 -6 23 -25 52 -25 37z"/>
<path d="M2879 236 c7 -9 29 -18 47 -22 19 -3 40 -12 47 -18 29 -28 71 -56 83
-56 21 0 -43 63 -68 67 -12 2 -33 11 -46 19 -13 9 -35 18 -50 20 -22 4 -23 3
-13 -10z"/>
<path d="M3671 193 c0 -32 3 -52 6 -45 6 15 90 16 95 1 2 -6 5 14 6 45 l2 56
-55 0 -55 0 1 -57z m97 20 c-3 -25 -7 -28 -45 -31 -42 -3 -43 -2 -43 27 0 30
1 31 46 31 44 0 45 -1 42 -27z"/>
<path d="M6830 230 c-24 -44 38 -83 70 -45 10 12 10 21 2 40 -14 31 -56 34
-72 5z"/>
<path d="M13590 215 c-19 -19 -29 -35 -24 -35 6 0 21 11 34 25 l24 25 28 -27
c15 -14 30 -24 33 -22 2 3 -10 20 -28 37 l-33 32 -34 -35z"/>
<path d="M13824 236 c-3 -8 -4 -25 -2 -38 3 -26 30 -34 84 -23 30 5 34 10 34
37 0 22 -4 29 -15 25 -8 -4 -17 -2 -20 3 -10 16 -75 12 -81 -4z m76 -26 c0
-28 -3 -30 -35 -30 -32 0 -35 2 -35 30 0 28 3 30 35 30 32 0 35 -2 35 -30z
m30 -6 c0 -8 -4 -12 -10 -9 -5 3 -10 10 -10 16 0 5 5 9 10 9 6 0 10 -7 10 -16z"/>
<path d="M3810 230 c0 -5 5 -10 10 -10 6 0 10 5 10 10 0 6 -4 10 -10 10 -5 0
-10 -4 -10 -10z"/>
<path d="M1000 220 c0 -8 5 -22 10 -30 9 -13 10 -13 10 0 0 8 -5 22 -10 30 -9
13 -10 13 -10 0z"/>
<path d="M1040 200 c-34 -88 -34 -111 0 -33 11 26 19 51 17 57 -2 6 -10 -5
-17 -24z"/>
<path d="M1081 174 c1 -32 4 -49 6 -37 3 14 9 20 19 16 30 -11 63 54 35 71 -5
3 -8 -9 -7 -27 1 -26 -3 -32 -19 -32 -15 0 -20 7 -20 27 -1 15 -4 30 -8 34 -4
4 -6 -19 -6 -52z"/>
<path d="M1216 216 c8 -20 -31 -23 -40 -3 -3 6 -4 -4 -3 -23 2 -29 6 -35 27
-37 25 -3 25 -3 3 7 -31 13 -29 30 2 30 25 0 35 23 15 35 -6 3 -7 -1 -4 -9z"/>
<path d="M1348 190 c2 -22 6 -40 8 -40 2 0 4 18 4 40 0 22 -3 40 -8 40 -4 0
-6 -18 -4 -40z"/>
<path d="M1390 215 c-19 -23 3 -65 32 -64 23 2 23 2 1 6 -12 2 -24 11 -27 19
-4 10 3 14 24 14 30 0 42 22 20 35 -6 3 -7 -1 -4 -9 5 -12 -1 -16 -21 -16 -23
0 -26 2 -15 15 7 8 10 15 7 15 -2 0 -10 -7 -17 -15z"/>
<path d="M1473 208 c-2 -18 0 -20 7 -8 12 18 13 30 2 30 -4 0 -9 -10 -9 -22z"/>
<path d="M1534 216 c-11 -30 0 -61 24 -62 18 -1 19 -1 2 3 -29 6 -25 33 5 33
25 0 35 23 15 35 -6 3 -7 -1 -4 -9 4 -12 0 -16 -16 -16 -16 0 -20 4 -16 15 3
8 3 15 0 15 -2 0 -7 -6 -10 -14z"/>
<path d="M1712 218 c-16 -16 -15 -43 3 -58 17 -14 47 -10 51 8 1 7 0 8 -3 2
-8 -16 -43 -12 -50 6 -3 9 -1 25 6 35 13 22 10 24 -7 7z"/>
<path d="M1841 214 c-1 -12 6 -24 14 -28 22 -8 18 -24 -7 -29 l-23 -4 23 -2
c28 -1 41 27 20 43 -8 6 -17 18 -21 26 -4 10 -6 9 -6 -6z"/>
<path d="M1912 218 c-26 -26 -6 -69 33 -67 17 1 17 2 -4 8 -37 10 -38 31 -2
31 33 0 37 6 20 30 -9 13 -10 12 -5 -2 4 -14 0 -18 -21 -18 -21 0 -24 2 -13
15 15 18 9 20 -8 3z"/>
<path d="M2026 215 c4 -9 0 -15 -7 -15 -10 0 -11 -3 -3 -8 7 -4 14 -16 17 -27
2 -11 5 -1 6 23 0 23 -3 42 -9 42 -5 0 -7 -7 -4 -15z"/>
<path d="M2070 198 c0 -36 4 -35 14 5 4 16 2 27 -4 27 -5 0 -10 -14 -10 -32z"/>
<path d="M2137 223 c-4 -3 -7 -19 -7 -34 0 -25 16 -40 43 -38 7 0 1 5 -12 10
-19 7 -22 15 -19 39 5 32 5 33 -5 23z"/>
<path d="M2260 187 c4 -41 5 -41 8 -8 2 18 0 37 -5 42 -5 5 -6 -11 -3 -34z"/>
<path d="M12940 189 c0 -23 3 -39 6 -36 11 10 13 67 3 73 -5 3 -9 -14 -9 -37z"/>
<path d="M12979 217 c6 -6 12 -25 12 -41 l2 -31 6 34 c8 48 31 53 31 7 0 -20
5 -36 10 -36 14 0 12 57 -2 67 -21 13 -72 13 -59 0z"/>
<path d="M13081 216 c-21 -25 -10 -61 18 -61 31 0 50 28 35 53 -15 23 -38 26
-53 8z m39 -11 c15 -18 6 -45 -15 -45 -18 0 -30 24 -21 45 7 19 20 19 36 0z"/>
<path d="M13240 216 c-20 -25 -8 -61 20 -63 l25 -3 -25 12 -25 12 28 4 c30 4
38 36 11 46 -21 8 -20 8 -34 -8z m38 -14 c2 -7 -6 -12 -17 -12 -21 0 -27 11
-14 24 9 9 26 2 31 -12z"/>
<path d="M14389 217 c-19 -14 -39 -51 -39 -69 1 -7 7 1 14 17 15 34 32 51 61
58 l20 5 -20 1 c-11 0 -27 -5 -36 -12z"/>
<path d="M14632 210 c0 -14 2 -19 5 -12 2 6 2 18 0 25 -3 6 -5 1 -5 -13z"/>
<path d="M170 175 c0 -32 2 -35 30 -35 28 0 30 3 30 35 0 32 -2 35 -30 35 -28
0 -30 -3 -30 -35z"/>
<path d="M240 170 c0 -38 2 -40 29 -40 16 0 36 -3 45 -6 13 -5 16 2 16 40 l0
46 -45 0 -45 0 0 -40z"/>
<path d="M3822 170 c0 -19 2 -27 5 -17 2 9 2 25 0 35 -3 9 -5 1 -5 -18z"/>
<path d="M14400 180 c-11 -11 -20 -26 -20 -32 0 -8 5 -6 11 4 5 10 19 24 32
33 12 8 16 15 9 15 -6 0 -21 -9 -32 -20z"/>
<path d="M1987 184 c-10 -11 5 -34 22 -34 14 1 14 2 -2 11 -9 6 -15 14 -12 20
7 10 2 12 -8 3z"/>
<path d="M15710 180 c0 -6 0 -13 0 -17 0 -5 5 -9 10 -9 22 -3 24 -4 12 -16 -9
-9 -7 -14 6 -24 16 -12 15 -13 -5 -14 -13 0 -23 -5 -23 -11 0 -6 10 -9 23 -7
18 2 22 10 24 44 1 35 -3 43 -23 53 -15 6 -24 7 -24 1z"/>
<path d="M7494 168 c-14 -23 -14 -66 1 -78 25 -21 45 -4 43 37 -1 47 -27 70
-44 41z m26 -18 c0 -5 -4 -10 -10 -10 -5 0 -10 5 -10 10 0 6 5 10 10 10 6 0
10 -4 10 -10z m2 -35 c0 -5 -5 -11 -11 -13 -6 -2 -11 4 -11 13 0 9 5 15 11 13
6 -2 11 -8 11 -13z"/>
<path d="M3083 149 c-1 -15 5 -19 30 -19 25 0 29 3 17 10 -40 28 -46 29 -47 9z"/>
<path d="M14420 155 c0 -8 5 -15 10 -15 6 0 10 7 10 15 0 8 -4 15 -10 15 -5 0
-10 -7 -10 -15z"/>
<path d="M14813 153 c-7 -2 -13 -9 -13 -14 0 -6 4 -8 9 -4 6 3 12 -12 14 -32
3 -35 4 -34 5 10 1 26 1 47 0 46 -2 0 -9 -3 -15 -6z"/>
<path d="M14878 153 c-2 -5 -1 -26 3 -48 l6 -40 2 48 c1 44 -3 57 -11 40z"/>
<path d="M14939 113 c-11 -25 -18 -50 -17 -54 2 -5 13 16 25 46 26 67 20 73
-8 8z"/>
<path d="M14993 153 c-7 -2 -13 -9 -13 -14 0 -6 4 -8 9 -4 6 3 12 -12 14 -32
3 -35 4 -34 5 10 1 26 1 47 0 46 -2 0 -9 -3 -15 -6z"/>
<path d="M15044 146 c-11 -30 0 -71 20 -71 23 0 36 32 25 63 -9 25 -37 30 -45
8z m36 -31 c0 -24 -5 -35 -15 -35 -15 0 -22 50 -8 63 15 15 23 5 23 -28z"/>
<path d="M15133 143 c-3 -10 -12 -33 -19 -52 -16 -39 -18 -53 -3 -29 14 25 39
98 33 98 -2 0 -7 -8 -11 -17z"/>
<path d="M15178 150 c27 -11 28 -22 2 -45 -27 -25 -25 -35 8 -34 24 2 25 2 4
6 l-24 5 22 23 c27 28 20 55 -12 54 l-23 0 23 -9z"/>
<path d="M15232 148 c-24 -24 -11 -78 18 -78 22 0 34 32 26 66 -7 26 -25 31
-44 12z m36 -27 c5 -29 -13 -50 -29 -34 -15 15 -3 66 14 60 7 -2 14 -14 15
-26z"/>
<path d="M15315 147 c20 -15 20 -16 -2 -39 -30 -32 -29 -38 5 -37 16 1 20 3
10 6 -22 6 -22 10 -3 30 21 20 15 47 -10 51 -20 4 -20 4 0 -11z"/>
<path d="M15373 130 c-20 -32 -21 -35 -5 -39 9 -2 20 -8 23 -13 10 -16 15 14
9 52 l-5 35 -22 -35z m13 -27 c-10 -10 -19 5 -10 18 6 11 8 11 12 0 2 -7 1
-15 -2 -18z"/>
<path d="M4730 136 c0 -9 5 -16 10 -16 6 0 10 4 10 9 0 6 -4 13 -10 16 -5 3
-10 -1 -10 -9z"/>
<path d="M13843 138 c7 -4 21 -8 32 -8 11 0 25 4 32 8 6 4 -8 7 -32 7 -24 0
-38 -3 -32 -7z"/>
<path d="M4840 130 c0 -5 7 -10 15 -10 8 0 15 5 15 10 0 6 -7 10 -15 10 -8 0
-15 -4 -15 -10z"/>
<path d="M2825 80 c3 -5 11 -10 16 -10 6 0 7 5 4 10 -3 6 -11 10 -16 10 -6 0
-7 -4 -4 -10z"/>
<path d="M2765 38 c-27 -10 -28 -12 -10 -19 28 -11 134 -11 117 0 -8 4 -12 12
-10 17 5 13 -63 15 -97 2z"/>
<path d="M3100 46 c0 -2 18 -6 39 -8 22 -2 37 0 35 4 -5 8 -74 11 -74 4z"/>
<path d="M4590 10 c0 -6 77 -10 210 -10 133 0 210 4 210 10 0 6 -77 10 -210
10 -133 0 -210 -4 -210 -10z"/>
<path d="M5630 10 c0 -6 77 -10 210 -10 133 0 210 4 210 10 0 6 -77 10 -210
10 -133 0 -210 -4 -210 -10z"/>
<path d="M6620 10 c0 -6 90 -10 250 -10 160 0 250 4 250 10 0 6 -90 10 -250
10 -160 0 -250 -4 -250 -10z"/>
<path d="M7180 10 c0 -6 77 -10 210 -10 133 0 210 4 210 10 0 6 -77 10 -210
10 -133 0 -210 -4 -210 -10z"/>
</g>
</svg>
