<?xml version="1.0" standalone="no"?>
<!DOCTYPE svg PUBLIC "-//W3C//DTD SVG 20010904//EN"
 "http://www.w3.org/TR/2001/REC-SVG-20010904/DTD/svg10.dtd">
<svg version="1.0" xmlns="http://www.w3.org/2000/svg"
 width="358.000000pt" height="241.000000pt" viewBox="0 0 358.000000 241.000000"
 preserveAspectRatio="xMidYMid meet">

<g transform="translate(0.000000,241.000000) scale(0.100000,-0.100000)"
fill="#000000" stroke="none">
<path d="M2 1208 l-2 -1208 1790 0 1790 0 -2 1198 -3 1197 -2 -1192 -3 -1193
-105 0 -105 0 0 1000 0 1000 -1675 0 -1675 0 -3 203 c-1 111 -3 -341 -5 -1005z
m448 704 l0 -58 -32 1 c-27 0 -34 4 -36 23 -4 29 14 52 40 52 15 0 19 5 15 20
-3 11 -1 20 4 20 5 0 9 -26 9 -58z m90 0 l0 -58 -32 1 c-27 0 -34 4 -36 23 -4
28 14 52 39 52 11 0 18 3 18 8 -2 14 1 32 6 32 3 0 5 -26 5 -58z m70 54 c0 -3
-4 -8 -10 -11 -5 -3 -10 -1 -10 4 0 6 5 11 10 11 6 0 10 -2 10 -4z m180 -6 c0
-5 -4 -10 -10 -10 -5 0 -10 5 -10 10 0 6 5 10 10 10 6 0 10 -4 10 -10z m-720
-49 c0 -30 5 -51 13 -54 6 -3 -4 -5 -23 -5 -19 0 -29 2 -22 5 7 3 12 24 12 54
0 27 5 49 10 49 6 0 10 -22 10 -49z m280 8 c6 -22 13 -48 16 -57 5 -15 4 -15
-9 1 -16 20 -53 23 -60 5 -2 -7 -3 -2 -1 12 4 37 22 80 33 80 6 0 15 -18 21
-41z m353 10 c22 -2 22 -2 0 -6 -17 -3 -23 -11 -23 -29 0 -16 8 -28 23 -34 22
-10 22 -10 -3 -7 -20 1 -26 8 -28 32 -2 16 -9 33 -15 37 -9 6 -9 8 1 8 6 0 13
8 13 18 1 16 2 16 6 0 2 -10 14 -19 26 -19z m-93 -33 c0 -19 6 -37 13 -39 6
-3 -4 -5 -23 -5 -19 0 -29 2 -22 5 6 2 12 17 12 33 0 16 -6 31 -12 33 -7 3 -3
6 10 6 19 1 22 -4 22 -33z m180 0 c0 -19 6 -37 13 -39 6 -3 -4 -5 -23 -5 -19
0 -29 2 -22 5 6 2 12 17 12 33 0 16 -6 31 -12 33 -7 3 -3 6 10 6 19 1 22 -4
22 -33z m105 0 c0 -36 -26 -56 -49 -37 -31 26 -11 75 29 69 15 -2 20 -11 20
-32z m87 21 c11 -18 10 -67 -2 -67 -6 0 -8 10 -5 23 6 26 -8 52 -24 43 -6 -4
-11 -20 -11 -37 0 -16 -4 -29 -10 -29 -5 0 -10 17 -10 38 0 33 3 37 27 39 16
0 31 -4 35 -10z m-822 -57 c0 -5 -7 -10 -15 -10 -8 0 -15 5 -15 10 0 6 7 10
15 10 8 0 15 -4 15 -10z m330 -113 c0 -18 5 -23 23 -23 18 1 22 -4 22 -28 0
-32 -23 -53 -49 -43 -12 5 -16 20 -16 62 0 30 5 55 10 55 6 0 10 -10 10 -23z
m570 13 c0 -5 -4 -10 -10 -10 -5 0 -10 5 -10 10 0 6 5 10 10 10 6 0 10 -4 10
-10z m-980 -15 c10 -12 8 -21 -8 -49 l-21 -35 22 -4 c13 -2 5 -5 -16 -6 l-39
-1 26 31 c14 17 26 40 26 51 0 17 -4 19 -27 14 -21 -5 -24 -4 -13 4 21 14 36
12 50 -5z m253 8 c-30 -6 -29 -27 2 -47 14 -9 25 -23 25 -31 0 -17 -47 -32
-61 -18 -5 5 2 9 18 8 37 0 38 17 3 37 -46 26 -37 57 15 56 17 -1 16 -1 -2 -5z
m280 -24 c22 -2 22 -2 0 -6 -17 -3 -23 -11 -23 -29 0 -16 8 -28 23 -34 22 -10
22 -10 -3 -7 -20 1 -26 8 -28 32 -2 16 -9 33 -15 37 -9 6 -9 8 1 8 6 0 13 8
13 18 1 16 2 16 6 0 2 -10 14 -19 26 -19z m360 0 c22 -2 22 -2 0 -6 -17 -3
-23 -11 -23 -29 0 -16 8 -28 23 -34 22 -10 22 -10 -3 -7 -20 1 -26 8 -28 32
-2 16 -9 33 -15 37 -9 6 -9 8 1 8 6 0 13 8 13 18 1 16 2 16 6 0 2 -10 14 -19
26 -19z m-573 -34 c0 -19 4 -35 9 -35 16 0 31 26 26 48 -2 12 0 22 6 22 5 0 9
-17 9 -38 0 -34 -3 -38 -27 -40 -15 -1 -30 4 -35 10 -11 18 -10 68 2 68 6 0
10 -16 10 -35z m317 15 c4 -12 3 -13 -5 -1 -16 22 -40 5 -45 -31 -3 -30 -4
-30 -5 8 -2 38 0 41 25 40 14 -1 28 -8 30 -16z m87 4 c3 -9 6 -26 6 -38 0 -18
-6 -22 -32 -21 -31 0 -34 4 -29 35 0 6 10 10 21 10 11 0 20 5 20 11 0 6 -9 9
-20 6 -11 -3 -18 -1 -14 4 9 15 41 10 48 -7z m69 6 c-14 -6 -23 -18 -23 -30 0
-12 9 -24 23 -30 l22 -9 -22 0 c-19 -1 -43 24 -43 43 0 12 33 36 48 35 12 0
11 -3 -5 -9z m187 -24 c0 -19 6 -37 13 -39 6 -3 -4 -5 -23 -5 -19 0 -29 2 -22
5 6 2 12 17 12 33 0 16 -6 31 -12 33 -7 3 -3 6 10 6 19 1 22 -4 22 -33z m108
-3 c2 -25 -1 -33 -18 -38 -39 -12 -67 34 -38 63 23 23 53 10 56 -25z m84 24
c4 -7 7 -25 7 -42 l-1 -30 -8 33 c-4 18 -10 35 -13 39 -12 11 -27 -10 -27 -38
0 -16 -4 -29 -10 -29 -5 0 -10 17 -10 38 0 33 3 37 27 39 16 0 31 -4 35 -10z
m-1092 -57 c0 -5 -7 -10 -15 -10 -8 0 -15 5 -15 10 0 6 7 10 15 10 8 0 15 -4
15 -10z m360 -144 c0 -34 5 -56 13 -59 6 -3 -4 -5 -23 -5 -19 0 -29 2 -22 5 7
3 12 24 12 53 0 29 -5 50 -12 53 -7 3 -3 6 10 6 20 1 22 -3 22 -53z m180 44
c0 -5 -4 -10 -10 -10 -5 0 -10 5 -10 10 0 6 5 10 10 10 6 0 10 -4 10 -10z
m180 -44 c0 -34 5 -56 13 -59 6 -3 -4 -5 -23 -5 -19 0 -29 2 -22 5 7 3 12 24
12 53 0 29 -5 50 -12 53 -7 3 -3 6 10 6 20 1 22 -3 22 -53z m90 50 c0 -3 -4
-8 -10 -11 -5 -3 -10 -1 -10 4 0 6 5 11 10 11 6 0 10 -2 10 -4z m360 0 c0 -3
-4 -8 -10 -11 -5 -3 -10 -1 -10 4 0 6 5 11 10 11 6 0 10 -2 10 -4z m-1254 -36
c0 -14 4 -31 8 -38 12 -19 -13 -42 -43 -41 -25 1 -25 1 3 8 17 3 29 9 28 14
-1 4 -2 12 -2 17 0 6 -8 11 -17 11 -17 1 -17 2 0 6 25 7 21 41 -5 46 -20 5
-20 5 2 4 19 -2 25 -8 26 -27z m238 5 c4 -14 11 -23 16 -20 6 4 7 -1 3 -11 -5
-14 -8 -13 -19 7 -13 23 -13 22 -14 -18 0 -24 -3 -43 -7 -43 -5 0 -6 25 -5 55
4 58 16 72 26 30z m55 -68 c1 -10 -4 -15 -9 -12 -6 4 -8 10 -5 14 2 5 0 23 -5
41 -5 18 -6 38 -2 44 6 10 20 -46 21 -87z m244 62 c22 -2 22 -2 0 -6 -17 -3
-23 -11 -23 -29 0 -16 8 -28 23 -34 22 -10 22 -10 -3 -7 -20 1 -26 8 -28 32
-2 16 -9 33 -15 37 -9 6 -9 8 1 8 6 0 13 8 13 18 1 16 2 16 6 0 2 -10 14 -19
26 -19z m630 0 c22 -2 22 -2 0 -6 -17 -3 -23 -11 -23 -29 0 -16 8 -28 23 -34
22 -10 22 -10 -3 -7 -20 1 -26 8 -28 32 -2 16 -9 33 -15 37 -9 6 -9 8 1 8 6 0
13 8 13 18 1 16 2 16 6 0 2 -10 14 -19 26 -19z m-843 -34 c0 -50 29 -43 37 9
6 36 13 30 13 -10 0 -36 -3 -40 -27 -42 -15 -1 -30 4 -35 10 -11 18 -10 68 2
68 6 0 10 -16 10 -35z m300 1 c0 -19 6 -37 13 -39 6 -3 -4 -5 -23 -5 -19 0
-29 2 -22 5 6 2 12 17 12 33 0 16 -6 31 -12 33 -7 3 -3 6 10 6 19 1 22 -4 22
-33z m105 -1 c0 -22 -6 -33 -22 -40 -13 -5 -23 -15 -23 -22 0 -7 -4 -13 -10
-13 -5 0 -10 24 -10 53 l0 53 33 -1 c29 0 32 -3 32 -30z m165 1 c0 -19 6 -37
13 -39 6 -3 -4 -5 -23 -5 -19 0 -29 2 -22 5 6 2 12 17 12 33 0 16 -6 31 -12
33 -7 3 -3 6 10 6 19 1 22 -4 22 -33z m83 24 c-14 -6 -23 -18 -23 -30 0 -12 9
-24 23 -30 l22 -9 -22 0 c-13 -1 -27 8 -33 19 -15 27 4 60 33 59 l22 0 -22 -9z
m115 -34 c2 -24 0 -36 -7 -32 -6 4 -8 13 -4 21 3 10 -2 15 -16 15 -23 0 -29
-25 -8 -33 7 -3 6 -6 -5 -6 -41 -2 -27 44 15 52 21 3 21 4 -3 15 l-25 12 25
-3 c21 -2 25 -8 28 -41z m162 10 c0 -19 6 -37 13 -39 6 -3 -4 -5 -23 -5 -19 0
-29 2 -22 5 6 2 12 17 12 33 0 16 -6 31 -12 33 -7 3 -3 6 10 6 19 1 22 -4 22
-33z m106 19 c10 -25 -5 -65 -24 -65 -22 0 -42 19 -42 40 0 35 55 56 66 25z
m86 1 c10 -15 10 -72 1 -62 -5 4 -8 20 -8 34 0 40 -29 35 -33 -5 -5 -46 -22
-41 -22 6 0 35 2 39 28 39 15 0 30 -5 34 -12z m-1362 -56 c0 -5 -7 -10 -16
-10 -8 0 -12 5 -9 10 3 6 10 10 16 10 5 0 9 -4 9 -10z m270 -94 c0 -3 -4 -8
-10 -11 -5 -3 -10 -1 -10 4 0 6 5 11 10 11 6 0 10 -2 10 -4z m180 0 c0 -3 -4
-8 -10 -11 -5 -3 -10 -1 -10 4 0 6 5 11 10 11 6 0 10 -2 10 -4z m180 0 c0 -3
-4 -8 -10 -11 -5 -3 -10 -1 -10 4 0 6 5 11 10 11 6 0 10 -2 10 -4z m-710 -45
c0 -22 4 -41 9 -43 5 -1 3 -9 -5 -16 -8 -7 -14 -8 -14 -2 0 5 -11 10 -25 10
-30 0 -31 9 -4 54 27 47 39 45 39 -3z m268 27 c7 -7 12 -26 12 -43 0 -37 -16
-55 -47 -55 -21 0 -23 4 -23 55 0 51 2 55 23 55 13 0 28 -5 35 -12z m82 -52
c0 -19 6 -37 13 -39 6 -3 -4 -5 -23 -5 -19 0 -29 2 -22 5 6 2 12 17 12 33 0
16 -6 31 -12 33 -7 3 -3 6 10 6 19 1 22 -4 22 -33z m66 -9 l7 -32 18 40 c10
22 18 34 18 27 1 -14 -27 -72 -34 -72 -4 0 -35 67 -35 77 0 2 4 2 9 -2 5 -3
13 -20 17 -38z m114 9 c0 -19 6 -37 13 -39 6 -3 -4 -5 -23 -5 -19 0 -29 2 -22
5 6 2 12 17 12 33 0 16 -6 31 -12 33 -7 3 -3 6 10 6 19 1 22 -4 22 -33z m83
27 c-30 -6 -29 -17 3 -32 21 -9 24 -14 14 -26 -7 -8 -22 -14 -34 -14 -20 2
-20 2 2 6 27 5 29 20 2 28 -35 11 -23 46 14 44 19 -2 19 -2 -1 -6z m97 -27 c0
-19 6 -37 13 -39 6 -3 -4 -5 -23 -5 -19 0 -29 2 -22 5 6 2 12 17 12 33 0 16
-6 31 -12 33 -7 3 -3 6 10 6 19 1 22 -4 22 -33z m108 0 c4 -30 -10 -46 -40
-46 -23 0 -35 45 -17 66 20 25 53 13 57 -20z m86 11 c9 -33 7 -57 -3 -57 -5 0
-8 10 -6 23 5 27 -9 52 -24 43 -6 -4 -11 -20 -11 -37 0 -16 -4 -29 -10 -29 -5
0 -10 17 -10 38 0 34 3 37 29 39 22 2 30 -3 35 -20z m-824 -47 c0 -5 -7 -10
-15 -10 -8 0 -15 5 -15 10 0 6 7 10 15 10 8 0 15 -4 15 -10z m360 -100 c0 -5
-4 -10 -10 -10 -5 0 -10 5 -10 10 0 6 5 10 10 10 6 0 10 -4 10 -10z m-457 -7
c-28 -5 -30 -29 -3 -36 43 -11 31 -69 -14 -66 -20 2 -20 2 2 6 30 6 32 53 2
53 -15 0 -20 7 -20 25 0 21 4 25 28 24 23 -2 24 -2 5 -6z m275 0 c-20 -3 -28
-10 -28 -24 0 -14 7 -19 28 -20 l27 -2 -27 -4 c-19 -3 -28 -10 -28 -23 0 -13
9 -20 28 -23 25 -4 25 -4 -5 -6 l-33 -1 0 55 0 55 33 -1 c30 -2 30 -2 5 -6z
m275 -24 c22 -2 22 -2 0 -6 -17 -3 -23 -11 -23 -29 0 -16 8 -28 23 -34 22 -10
22 -10 -3 -7 -20 1 -26 8 -28 32 -2 16 -9 33 -15 37 -9 6 -9 8 1 8 6 0 13 8
13 18 1 16 2 16 6 0 2 -10 14 -19 26 -19z m-209 -15 c6 -15 8 -15 28 2 21 19
21 19 9 -3 -9 -18 -9 -28 0 -45 12 -23 12 -23 -9 -4 -20 17 -22 17 -28 2 -3
-9 -10 -16 -16 -16 -5 0 -2 10 6 22 14 20 14 24 -1 40 -9 10 -11 18 -6 18 6 0
14 -7 17 -16z m116 -18 c0 -19 6 -37 13 -39 6 -3 -4 -5 -23 -5 -19 0 -29 2
-22 5 6 2 12 17 12 33 0 16 -6 31 -12 33 -7 3 -3 6 10 6 19 1 22 -4 22 -33z
m-360 -36 c0 -5 -7 -10 -15 -10 -8 0 -15 5 -15 10 0 6 7 10 15 10 8 0 15 -4
15 -10z m960 -315 c0 -18 4 -23 16 -18 9 3 20 0 25 -8 11 -17 12 -75 2 -65 -5
4 -8 20 -8 34 0 40 -29 35 -33 -5 -6 -57 -22 -36 -22 27 0 33 4 60 10 60 6 0
10 -11 10 -25z m210 21 c0 -3 -4 -8 -10 -11 -5 -3 -10 -1 -10 4 0 6 5 11 10
11 6 0 10 -2 10 -4z m265 -26 c-19 -37 -19 -53 1 -93 l17 -32 -22 19 c-25 23
-28 81 -5 114 22 31 27 27 9 -8z m368 -46 c-1 -24 -9 -44 -23 -58 l-23 -21 17
25 c9 13 16 38 16 55 0 17 -7 42 -16 55 l-17 25 24 -22 c16 -16 23 -33 22 -59z
m-1895 59 c-20 -3 -28 -10 -28 -24 0 -14 7 -19 28 -20 l27 -2 -27 -4 c-19 -3
-28 -10 -28 -23 0 -13 9 -20 28 -23 25 -4 25 -4 -5 -6 l-33 -1 0 55 0 55 33
-1 c30 -2 30 -2 5 -6z m185 -24 c22 -2 22 -2 0 -6 -17 -3 -23 -11 -23 -29 0
-16 8 -28 23 -34 22 -10 22 -10 -3 -7 -20 1 -26 8 -28 32 -2 16 -9 33 -15 37
-9 6 -9 8 1 8 6 0 13 8 13 18 1 16 2 16 6 0 2 -10 14 -19 26 -19z m317 23 c0
-5 6 -17 14 -27 14 -19 15 -19 27 8 7 15 16 27 21 27 5 0 1 -15 -9 -32 -10
-18 -21 -44 -24 -58 l-7 -25 -1 25 c-1 14 -10 40 -21 58 -11 17 -15 32 -10 32
6 0 10 -4 10 -8z m480 -5 c-18 -9 -25 -21 -25 -42 0 -21 7 -33 25 -43 l25 -13
-25 3 c-52 6 -50 108 2 108 23 0 23 0 -2 -13z m640 -42 c0 -25 5 -45 13 -48 6
-3 -4 -5 -23 -5 -19 0 -29 2 -22 5 7 3 12 24 12 54 0 31 4 48 10 44 6 -3 10
-26 10 -50z m173 48 c-28 -5 -30 -29 -3 -36 43 -11 31 -68 -14 -66 -21 0 -21
0 2 9 28 12 30 50 2 50 -15 0 -20 7 -20 25 0 21 4 25 28 24 23 -2 24 -2 5 -6z
m-1691 -36 c10 -15 10 -73 1 -63 -4 4 -7 19 -8 34 0 40 -29 35 -33 -5 -4 -45
-22 -41 -22 5 0 33 3 37 27 39 16 0 31 -4 35 -10z m186 -9 c3 -14 -3 -18 -27
-18 -23 0 -29 -4 -25 -15 4 -8 18 -16 33 -16 24 -2 24 -2 3 -6 -42 -8 -69 36
-40 65 17 17 52 11 56 -10z m89 2 c4 -12 3 -13 -5 -1 -16 22 -40 5 -45 -31 -3
-30 -4 -30 -5 8 -2 38 0 41 25 40 14 -1 28 -8 30 -16z m269 5 c10 -25 -5 -65
-24 -65 -36 0 -55 43 -30 68 17 17 47 15 54 -3z m44 -20 c0 -19 4 -35 9 -35
15 0 28 24 26 48 -1 12 2 22 7 22 4 0 8 -17 8 -37 0 -34 -3 -38 -27 -40 -16 0
-31 4 -35 10 -11 18 -10 67 2 67 6 0 10 -16 10 -35z m137 15 c4 -12 3 -13 -5
-1 -16 22 -40 5 -45 -31 -3 -30 -4 -30 -5 8 -2 38 0 41 25 40 14 -1 28 -8 30
-16z m361 -11 c2 -14 -4 -31 -12 -38 -22 -18 -56 -4 -56 23 0 49 62 64 68 15z
m72 -3 c0 -19 6 -37 13 -39 6 -3 -4 -5 -23 -5 -19 0 -29 2 -22 5 6 2 12 17 12
33 0 16 -6 31 -12 33 -7 3 -3 6 10 6 19 1 22 -4 22 -33z m83 24 c-14 -6 -23
-18 -23 -30 0 -12 9 -24 23 -30 22 -9 22 -9 1 -9 -28 -1 -46 21 -37 45 8 23
23 34 43 33 8 0 5 -4 -7 -9z m115 -12 c3 -14 -3 -18 -27 -18 -23 0 -29 -4 -25
-15 4 -8 18 -16 33 -16 24 -2 24 -2 3 -6 -42 -8 -69 36 -40 65 17 17 52 11 56
-10z m255 -15 c-7 -2 -21 -2 -30 0 -10 3 -4 5 12 5 17 0 24 -2 18 -5z"/>
<path d="M397 1913 c-11 -10 -8 -41 5 -49 12 -8 38 21 38 43 0 13 -32 18 -43
6z"/>
<path d="M487 1913 c-11 -10 -8 -41 3 -48 16 -10 39 13 37 36 -1 18 -27 26
-40 12z"/>
<path d="M318 1925 c-7 -34 -5 -38 15 -33 13 2 13 8 3 33 l-13 30 -5 -30z"/>
<path d="M844 1906 c-9 -24 4 -48 23 -44 12 2 18 12 18 28 0 29 -32 41 -41 16z"/>
<path d="M497 1714 c-4 -4 -7 -18 -7 -31 0 -18 5 -24 18 -21 10 2 17 12 17 27
0 24 -15 37 -28 25z"/>
<path d="M755 1681 c-3 -5 -1 -12 4 -15 12 -8 41 3 41 15 0 12 -37 12 -45 0z"/>
<path d="M1114 1706 c-9 -24 4 -48 23 -44 12 2 18 12 18 28 0 29 -32 41 -41
16z"/>
<path d="M767 1514 c-4 -4 -7 -18 -7 -31 0 -18 5 -24 18 -21 10 2 17 12 17 27
0 24 -15 37 -28 25z"/>
<path d="M1384 1506 c-9 -24 4 -48 23 -44 24 4 24 52 0 56 -9 2 -20 -4 -23
-12z"/>
<path d="M45 1310 c-15 -29 -15 -30 5 -30 16 0 20 7 20 30 0 17 -2 30 -5 30
-2 0 -11 -13 -20 -30z"/>
<path d="M300 1306 c0 -32 4 -46 14 -46 41 0 49 82 9 88 -21 3 -23 -1 -23 -42z"/>
<path d="M844 1306 c-9 -24 4 -48 23 -44 12 2 18 12 18 28 0 29 -32 41 -41 16z"/>
<path d="M305 710 c-4 -6 5 -10 20 -10 15 0 24 4 20 10 -3 6 -12 10 -20 10 -8
0 -17 -4 -20 -10z"/>
<path d="M664 706 c-9 -24 4 -48 23 -44 12 2 18 12 18 28 0 29 -32 41 -41 16z"/>
<path d="M1204 706 c-9 -24 4 -48 23 -44 12 2 18 12 18 28 0 29 -32 41 -41 16z"/>
<path d="M1475 710 c-4 -6 5 -10 20 -10 15 0 24 4 20 10 -3 6 -12 10 -20 10
-8 0 -17 -4 -20 -10z"/>
<path d="M908 2403 c490 -2 1294 -2 1785 0 490 1 89 2 -893 2 -982 0 -1383 -1
-892 -2z"/>
<path d="M2620 2210 l0 -60 60 0 60 0 0 60 0 60 -60 0 -60 0 0 -60z m110 0 l0
-50 -50 0 -50 0 0 50 0 50 50 0 50 0 0 -50z"/>
<path d="M3234 2243 l30 -33 -30 -32 -29 -33 33 29 32 30 33 -30 32 -29 -29
33 -30 32 30 33 29 32 -32 -29 -33 -30 -32 30 -33 29 29 -32z"/>
<path d="M381 2244 c0 -11 3 -14 6 -6 3 7 2 16 -1 19 -3 4 -6 -2 -5 -13z"/>
<path d="M411 2244 c0 -11 3 -14 6 -6 3 7 2 16 -1 19 -3 4 -6 -2 -5 -13z"/>
<path d="M456 2244 c-19 -18 -21 -65 -4 -82 7 -7 23 -11 38 -11 20 1 21 2 5 6
-30 8 -45 23 -45 48 0 25 15 40 45 48 19 4 18 5 -2 6 -12 0 -29 -6 -37 -15z"/>
<path d="M551 2255 c0 -5 6 -21 14 -35 8 -14 14 -20 14 -15 0 6 -6 21 -14 35
-8 14 -14 21 -14 15z"/>
<path d="M621 2227 c-1 -46 13 -77 37 -77 30 0 42 22 40 70 l-1 45 -6 -50 c-5
-42 -10 -51 -28 -53 -23 -3 -28 6 -36 73 -3 26 -4 25 -6 -8z"/>
<path d="M1040 2205 c0 -52 2 -55 24 -55 33 0 56 25 56 60 0 31 -23 50 -59 50
-19 0 -21 -6 -21 -55z m58 33 c27 -27 7 -78 -30 -78 -15 0 -18 8 -18 45 0 37
3 45 18 45 10 0 23 -5 30 -12z"/>
<path d="M1150 2205 c0 -54 1 -55 28 -54 23 2 24 2 5 6 -14 3 -23 12 -23 23 0
11 9 20 23 23 l22 4 -22 2 c-16 1 -23 7 -23 20 0 12 8 21 23 24 19 4 18 4 -5
6 -27 1 -28 0 -28 -54z"/>
<path d="M1223 2230 c6 -16 13 -28 15 -26 6 6 -10 56 -18 56 -5 0 -3 -13 3
-30z"/>
<path d="M1287 2253 c-2 -5 -10 -25 -17 -47 -9 -29 -15 -35 -22 -25 -7 11 -8
9 -6 -6 5 -33 20 -23 36 25 8 25 20 48 26 52 8 6 7 8 -1 8 -6 0 -14 -3 -16 -7z"/>
<path d="M1380 2205 c0 -52 2 -55 24 -55 33 0 56 25 56 60 0 31 -23 50 -59 50
-19 0 -21 -6 -21 -55z m58 33 c27 -27 7 -78 -30 -78 -15 0 -18 8 -18 45 0 37
3 45 18 45 10 0 23 -5 30 -12z"/>
<path d="M970 2235 c0 -5 5 -17 10 -25 5 -8 10 -10 10 -5 0 6 -5 17 -10 25 -5
8 -10 11 -10 5z"/>
<path d="M1316 2220 c3 -14 11 -32 16 -40 6 -10 7 -7 2 10 -3 14 -11 32 -16
40 -6 10 -7 7 -2 -10z"/>
<path d="M723 2214 c-4 -10 0 -20 10 -26 22 -12 22 -25 0 -31 -17 -4 -17 -5 0
-6 24 -1 34 29 14 41 -22 12 -22 25 1 31 16 4 16 5 -1 6 -10 0 -20 -6 -24 -15z"/>
<path d="M791 2216 c-21 -25 -10 -61 19 -63 25 -3 25 -3 3 7 -31 13 -29 30 3
30 19 0 25 5 22 17 -4 23 -31 28 -47 9z m39 -6 c0 -5 -9 -10 -21 -10 -11 0
-17 5 -14 10 3 6 13 10 21 10 8 0 14 -4 14 -10z"/>
<path d="M861 2185 c2 -33 3 -35 6 -10 2 17 11 35 20 42 13 10 13 12 -6 10
-18 -1 -21 -7 -20 -42z"/>
<path d="M913 2214 c-4 -10 0 -20 10 -26 22 -12 22 -25 0 -31 -14 -4 -12 -5 5
-6 26 -1 32 33 7 43 -20 7 -19 24 3 29 16 4 16 5 -1 6 -10 0 -20 -6 -24 -15z"/>
<path d="M1492 2218 c-29 -29 3 -82 36 -61 25 15 22 67 -3 71 -11 1 -26 -3
-33 -10z m43 -28 c0 -29 -32 -41 -41 -16 -9 24 4 48 23 44 12 -2 18 -12 18
-28z"/>
<path d="M1582 2218 c-27 -27 -8 -69 31 -67 7 0 2 4 -10 9 -14 6 -23 18 -23
30 0 12 9 24 23 30 13 5 16 9 7 9 -9 1 -21 -4 -28 -11z"/>
<path d="M2068 2213 c17 -2 47 -2 65 0 17 2 3 4 -33 4 -36 0 -50 -2 -32 -4z"/>
<path d="M590 2151 c0 -6 4 -13 10 -16 6 -3 7 1 4 9 -7 18 -14 21 -14 7z"/>
<path d="M1000 2151 c0 -6 4 -13 10 -16 6 -3 7 1 4 9 -7 18 -14 21 -14 7z"/>
<path d="M1340 2151 c0 -6 4 -13 10 -16 6 -3 7 1 4 9 -7 18 -14 21 -14 7z"/>
<path d="M3442 1917 c-30 -32 -29 -57 1 -29 l23 22 22 -22 c17 -17 22 -19 22
-7 0 9 -10 25 -23 37 l-23 22 -22 -23z"/>
<path d="M3420 139 c0 -9 10 -25 23 -37 l23 -22 22 23 c30 32 29 57 -1 29
l-23 -22 -22 22 c-17 17 -22 19 -22 7z"/>
</g>
</svg>
